<?xml version="1.0" standalone="no"?>
<!DOCTYPE svg PUBLIC "-//W3C//DTD SVG 1.1//EN" "http://www.w3.org/Graphics/SVG/1.1/DTD/svg11.dtd" >
<svg xmlns="http://www.w3.org/2000/svg" xmlns:xlink="http://www.w3.org/1999/xlink" version="1.1">
<metadata>
Created by FontForge 20161013 at Thu Oct  8 14:00:25 2009
 By ,,,
Copyright 2003, 2009 B. Jackowski and J. M. Nowacki (on behalf of TeX users groups). This work is released under the GUST Font License --  see http://tug.org/fonts/licenses/GUST-FONT-LICENSE.txt for details.
</metadata>
<defs>
<font id="LMSans10-Regular" horiz-adv-x="500" >
  <font-face 
    font-family="LM Sans 10"
    font-weight="400"
    font-stretch="normal"
    units-per-em="1000"
    panose-1="0 0 5 0 0 0 0 0 0 0"
    ascent="806"
    descent="-194"
    x-height="444"
    cap-height="694"
    bbox="-420 -309 1431 1154"
    underline-thickness="40"
    underline-position="-226"
    unicode-range="U+0020-FB04"
  />
<missing-glyph horiz-adv-x="280" 
 />
    <glyph glyph-name="I_J" unicode="IJ" horiz-adv-x="722" 
d="M183 0h-89v694h89v-694zM638 149q0 -83 -47.5 -127t-127.5 -44q-87 0 -171 42l14 75q50 -56 128 -56q33 0 57.5 10.5t35.5 23.5t17.5 32t7 28t0.5 19v542h86v-545z" />
    <glyph glyph-name="i_j" unicode="ij" horiz-adv-x="482" 
d="M163 566h-89v89h89v-89zM399 566h-89v89h89v-89zM156 0h-75v444h75v-444zM399 -59q0 -67 -37.5 -106.5t-87.5 -39.5q-62 0 -120 34l15 61q34 -31 77 -31q78 0 78 73v512h75v-503z" />
    <glyph glyph-name="f_k" unicode="fk" horiz-adv-x="792" 
d="M294 386h-118v-386h-75v386h-74v58h74v91q0 74 38.5 122t94.5 48q27 0 60 -11v-67q-28 17 -60 17q-24 0 -42.5 -18t-18.5 -61v-121h121v-58zM771 0h-82l-156 224l-80 -83v-141h-69v694h72v-458l203 208h90l-168 -172z" />
    <glyph glyph-name="f_f" unicode="ff" horiz-adv-x="583" 
d="M347 627q-39 17 -81 17q-13 0 -26 -2.5t-29.5 -10t-27 -25t-10.5 -43.5v-119h113v-58h-110v-386h-75v386h-74v58h74v90q0 74 47.5 122.5t118.5 48.5q36 0 80 -11v-67zM624 627q-39 17 -81 17q-13 0 -26 -2.5t-29.5 -10t-27 -25t-10.5 -43.5v-119h113v-58h-110v-386h-75
v534q0 74 47.5 122.5t118.5 48.5q36 0 80 -11v-67z" />
    <glyph glyph-name="f_i" unicode="fi" horiz-adv-x="536" 
d="M457 612h-83v83h83v-83zM453 0h-75v444h75v-444zM294 386h-118v-386h-75v386h-74v58h74v91q0 74 38.5 122t94.5 48q27 0 60 -11v-68q-28 18 -60 18q-24 0 -42.5 -18t-18.5 -61v-121h121v-58z" />
    <glyph glyph-name="f_l" unicode="fl" horiz-adv-x="536" 
d="M294 386h-118v-386h-75v386h-74v58h74v91q0 74 38.5 122t94.5 48q27 0 60 -11v-67q-28 17 -60 17q-24 0 -42.5 -18t-18.5 -61v-121h121v-58zM453 0h-75v694h75v-694z" />
    <glyph glyph-name="f_f_i" unicode="&#xfb00;i" horiz-adv-x="814" 
d="M735 612h-83v83h83v-83zM731 0h-75v444h75v-444zM572 386h-118v-386h-75v535q0 74 38.5 122t94.5 48q32 0 60 -10v-68q-28 17 -60 17q-24 0 -42.5 -18t-18.5 -61v-121h121v-58zM319 627q-33 17 -70 17q-12 0 -23 -3t-24 -10.5t-21 -24.5t-8 -42v-120h121v-58h-118v-386
h-75v386h-74v58h74v90q0 75 42.5 123t106.5 48q36 0 69 -11v-67z" />
    <glyph glyph-name="f_f_l" unicode="ffl" horiz-adv-x="814" 
d="M319 627q-33 17 -70 17q-12 0 -23 -3t-24 -10.5t-21 -24.5t-8 -42v-120h121v-58h-118v-386h-75v386h-74v58h74v90q0 75 42.5 123t106.5 48q36 0 69 -11v-67zM731 0h-75v694h75v-694zM572 386h-118v-386h-75v535q0 74 38.5 122t94.5 48q27 0 60 -11v-67q-28 17 -60 17
q-24 0 -42.5 -18t-18.5 -61v-121h121v-58z" />
    <glyph glyph-name=".notdef" horiz-adv-x="280" 
 />
    <glyph glyph-name=".null" horiz-adv-x="0" 
 />
    <glyph glyph-name="nonmarkingreturn" horiz-adv-x="333" 
 />
    <glyph glyph-name="space" unicode=" " horiz-adv-x="333" 
 />
    <glyph glyph-name="exclam" unicode="!" horiz-adv-x="319" 
d="M201 694l-8 -476v-43h-67v43l-8 476h83zM201 0h-83v83h83v-83z" />
    <glyph glyph-name="quotedbl" unicode="&#x22;" horiz-adv-x="434" 
d="M178 430h-78v286h78v-286zM334 430h-78v286h78v-286z" />
    <glyph glyph-name="numbersign" unicode="#" horiz-adv-x="833" 
d="M776 150q0 -20 -33 -20h-225l-80 -300q-2 -8 -3.5 -11.5t-6.5 -8t-12 -4.5q-8 0 -14 6t-6 14q0 10 4 18l77 286h-188l-80 -300q-2 -8 -3.5 -11.5t-6.5 -8t-12 -4.5q-8 0 -14 6t-6 14q0 10 4 18l77 286h-159q-33 0 -33 20t34 20h170l42 160h-212q-34 0 -34 20t33 20h225
l80 300q2 8 3.5 11.5t6.5 8t12 4.5q8 0 14 -6t6 -14q0 -10 -4 -18l-77 -286h188l80 300q2 8 3.5 11.5t6.5 8t12 4.5q8 0 14 -6t6 -14q0 -10 -4 -18l-77 -286h159q33 0 33 -20t-34 -20h-170l-42 -160h212q34 0 34 -20zM531 330h-188l-42 -160h188z" />
    <glyph glyph-name="dollar" unicode="$" 
d="M443 195q0 -74 -45.5 -132.5t-118.5 -70.5v-48h-58v46q-95 9 -177 68l12 68q70 -62 165 -72v268q-51 12 -86.5 37t-51 55.5t-21.5 54t-6 44.5q0 65 43 120.5t122 69.5v47h58v-46q76 -5 148 -55l-12 -66q-63 50 -136 57v-241q80 -16 122 -75.5t42 -128.5zM221 414v224
q-42 -10 -67 -41.5t-25 -70.5q0 -36 22.5 -68t69.5 -44zM370 182q0 44 -25.5 79.5t-65.5 46.5v-251q44 13 67.5 48.5t23.5 76.5z" />
    <glyph glyph-name="percent" unicode="%" horiz-adv-x="833" 
d="M333 548q0 -85 -41 -143t-96 -58t-97.5 57.5t-42.5 144.5q0 86 42 143.5t98 57.5q55 0 96 -57.5t41 -144.5zM659 730q0 -6 -8 -18l-434 -752q-9 -16 -21 -16q-8 0 -14 6t-6 14l7 18l435 752q11 16 21 16q8 0 14 -6t6 -14zM776 145q0 -85 -41 -143t-96 -58t-97.5 57.5
t-42.5 144.5q0 86 42 143.5t98 57.5q55 0 96 -57.5t41 -144.5zM264 549q0 56 -19.5 98t-48.5 42q-6 0 -12.5 -1.5t-16.5 -10t-17.5 -22.5t-13 -41.5t-5.5 -65.5q0 -39 6 -67t13.5 -41.5t18 -21.5t16 -9t11.5 -1q29 0 48.5 41.5t19.5 99.5zM707 146q0 56 -19.5 98t-48.5 42
q-6 0 -12.5 -1.5t-16.5 -10t-17.5 -22.5t-13 -41.5t-5.5 -65.5q0 -39 6 -67t13.5 -41.5t18 -21.5t16 -9t11.5 -1q29 0 48.5 41.5t19.5 99.5z" />
    <glyph glyph-name="ampersand" unicode="&#x26;" horiz-adv-x="758" 
d="M701 -7q-60 -15 -116 -15q-85 0 -161 58q-102 -58 -199 -58q-78 0 -130.5 49.5t-52.5 118.5q0 62 45 111q7 8 74 65q4 4 9 8t7.5 6.5l5.5 5.5l9 11q0 3 -3 10q-27 81 -27 155q0 83 38 140.5t100 57.5q57 0 93 -48t36 -109q0 -47 -36.5 -97t-114.5 -119q52 -110 156 -221
q56 45 102 123q40 63 67 160l62 -18q-56 -197 -183 -308q53 -37 104 -37q58 0 115 18v-67zM360 560q0 18 -3.5 36.5t-18.5 38.5t-39 20q-27 0 -49.5 -26t-22.5 -77q0 -78 27 -148q53 48 79.5 84.5t26.5 71.5zM373 80q-11 11 -34.5 38.5t-60.5 79t-59 94.5q-64 -55 -65 -57
q-34 -32 -34 -82q0 -43 28 -77t78 -34q74 0 147 38z" />
    <glyph glyph-name="quotesingle" unicode="'" horiz-adv-x="278" 
d="M178 430h-78v286h78v-286z" />
    <glyph glyph-name="parenleft" unicode="(" horiz-adv-x="389" 
d="M332 -250h-61q-192 176 -192 500q0 160 47 286q16 43 36 79.5t43 64t35 40t31 30.5h61q-88 -88 -131 -209q-44 -127 -44 -291q0 -92 14.5 -172t32.5 -129.5t46.5 -95t44 -63.5t37.5 -40z" />
    <glyph glyph-name="parenright" unicode=")" horiz-adv-x="389" 
d="M309 250q0 -160 -47 -286q-16 -43 -36 -79.5t-43 -64t-35 -40t-31 -30.5h-61q88 88 131 209q44 127 44 291q0 92 -14.5 172t-32.5 129.5t-46.5 95t-44 63.5t-37.5 40h61q192 -176 192 -500z" />
    <glyph glyph-name="asterisk" unicode="*" 
d="M435 436q0 -17 -11 -26.5t-23 -9.5q-11 0 -32 16l-93 64q8 -120 8 -139q0 -17 -10.5 -26t-24.5 -9q-12 0 -23 8.5t-11 26.5q0 19 8 139l-96 -67q-18 -13 -29 -13q-12 0 -23 9.5t-11 26.5q0 13 5.5 19t20.5 14l109 59q-33 18 -64 34t-42.5 22.5t-14.5 8.5q-14 9 -14 27
q0 17 11 26.5t23 9.5t27 -11l98 -69q-8 120 -8 139q0 17 10.5 26t24.5 9q12 0 23 -8.5t11 -26.5q0 -19 -8 -139l96 67q18 13 29 13q12 0 23 -9.5t11 -26.5q0 -13 -5.5 -19t-20.5 -14l-109 -59q33 -18 64 -34t42.5 -22.5t14.5 -8.5q14 -9 14 -27z" />
    <glyph glyph-name="plus" unicode="+" horiz-adv-x="778" 
d="M721 250q0 -20 -33 -20h-279v-280q0 -33 -20 -33t-20 33v280h-280q-33 0 -33 20t33 20h280v280q0 33 20 33t20 -33v-280h279q33 0 33 -20z" />
    <glyph glyph-name="comma" unicode="," horiz-adv-x="278" 
d="M180 1l-42 -126h-41l25 125h-25v83h83v-82z" />
    <glyph glyph-name="hyphen" unicode="-" horiz-adv-x="333" 
d="M276 193h-265v58h265v-58z" />
    <glyph glyph-name="period" unicode="." horiz-adv-x="278" 
d="M180 0h-83v83h83v-83z" />
    <glyph glyph-name="slash" unicode="/" 
d="M443 730q0 -5 -5 -18l-341 -942q-6 -20 -21 -20q-8 0 -14 6t-6 14q0 5 5 18l341 942q6 20 21 20q8 0 14 -6t6 -14z" />
    <glyph glyph-name="zero" unicode="0" 
d="M457 326q0 -151 -40 -238q-24 -52 -68.5 -81t-99.5 -29q-32 0 -61.5 10t-61 39t-50.5 74q-34 83 -34 225q0 152 38 236q28 62 74 89t96 27q44 0 88.5 -23.5t72.5 -75.5q46 -89 46 -253zM379 338q0 129 -19 185q-6 15 -10.5 23.5t-17.5 28.5t-34.5 31t-48.5 11
q-80 0 -112 -101q-17 -55 -17 -178q0 -128 17 -189q31 -110 113 -110q80 0 111 107q18 63 18 192z" />
    <glyph glyph-name="one" unicode="1" 
d="M424 0h-329v58h125v520q-51 -22 -131 -24v58q131 5 190 66h20v-620h125v-58z" />
    <glyph glyph-name="two" unicode="2" 
d="M449 0h-399v64l124 124l77 71q30 31 44.5 46.5t34.5 43.5t28.5 55t8.5 57q0 62 -39 107.5t-106 45.5q-33 0 -57 -12.5t-39.5 -37t-24.5 -48t-18 -57.5q-17 24 -22 29q-1 1 -3 4t-6.5 9t-9.5 13q46 164 194 164q96 0 154.5 -62.5t58.5 -152.5q0 -39 -17.5 -76.5t-33.5 -56
t-48 -50.5q-9 -9 -44 -39t-45 -39q-7 -6 -63.5 -61t-75.5 -71h109q6 0 18 0.5t18 0.5h182v-71z" />
    <glyph glyph-name="three" unicode="3" 
d="M457 180q0 -81 -60.5 -141.5t-149.5 -60.5q-124 0 -205 104l11 60q32 -49 85 -76t107 -27q56 0 89.5 41t33.5 101q0 22 -5.5 44t-18.5 45.5t-40.5 38.5t-65.5 15h-71v61q75 6 79 7q45 10 73.5 48.5t28.5 85.5q0 45 -29.5 69.5t-71.5 24.5q-48 0 -91 -28t-64 -78l-36 54
q31 52 82.5 81t109.5 29q75 0 128.5 -44t53.5 -108q0 -50 -28 -96.5t-83 -75.5q56 -17 97 -63.5t41 -110.5z" />
    <glyph glyph-name="four" unicode="4" 
d="M471 171h-99v-171h-79v171h-265v61l253 424h91v-424h99v-61zM299 232v380q-1 -63 -193 -380h193z" />
    <glyph glyph-name="five" unicode="5" 
d="M449 203q0 -94 -64.5 -159.5t-154.5 -65.5q-59 0 -109 27t-82 71l33 56q22 -41 65 -67t92 -26q8 0 17.5 1t32 10t38.5 24.5t29.5 49.5t13.5 81q0 83 -30 122t-71 39q-40 0 -69 -22.5t-43 -56.5h-66v369h335v-64h-263v-206q46 41 107 41q78 0 133.5 -65.5t55.5 -158.5z
" />
    <glyph glyph-name="six" unicode="6" 
d="M457 222q0 -58 -14.5 -97.5t-49.5 -78.5q-59 -68 -142 -68q-28 0 -54.5 8t-55.5 31.5t-50 60.5t-35 100t-14 144q0 157 79 256.5t188 99.5q55 0 106 -20v-59q-53 21 -105 21q-72 0 -123.5 -62.5t-60.5 -178.5q68 83 169 83q70 0 116 -70.5t46 -169.5zM375 222
q0 76 -23 117q-34 62 -96 62q-59 0 -93.5 -47t-34.5 -107q-1 -12 -1 -28q2 -23 6.5 -44t16.5 -56.5t38 -57.5t63 -22q62 0 100 62q24 41 24 121z" />
    <glyph glyph-name="seven" unicode="7" 
d="M457 591q-35 -39 -68.5 -91t-70.5 -128.5t-59.5 -176.5t-22.5 -206h-84q0 336 237 597h-121q-6 0 -18 -0.5t-18 -0.5h-190v71h415v-65z" />
    <glyph glyph-name="eight" unicode="8" 
d="M457 180q0 -81 -60 -141.5t-148 -60.5q-86 0 -146.5 60t-60.5 142q0 62 39.5 108.5t97.5 66.5q-62 20 -92.5 61.5t-30.5 86.5q0 71 56 123t138 52q80 0 136.5 -52t56.5 -123q0 -45 -30.5 -86.5t-92.5 -61.5q56 -19 96.5 -65t40.5 -110zM373 503q0 51 -33.5 84t-90.5 33
q-55 0 -89 -32.5t-34 -84.5q0 -53 33.5 -85.5t90.5 -32.5q55 0 89 32.5t34 85.5zM376 181q0 71 -38.5 107t-88.5 36q-48 0 -87 -35.5t-39 -107.5q0 -68 36 -105t91 -37q52 0 89 36.5t37 105.5z" />
    <glyph glyph-name="nine" unicode="9" 
d="M457 335q0 -158 -75 -257.5t-177 -99.5q-70 0 -133 46l31 53q46 -38 103 -38q64 0 111.5 61.5t55.5 176.5q-32 -40 -77 -61.5t-92 -21.5q-70 0 -116 70.5t-46 169.5q0 107 65 177q63 67 146 67q36 0 68.5 -15t64.5 -50.5t51.5 -107t19.5 -170.5zM371 411q0 17 -1 24
q-1 25 -6 51t-16 59t-36 54t-59 21q-61 0 -100 -57q-29 -46 -29 -129q0 -78 23 -119q34 -60 96 -60q57 0 92.5 46t35.5 110z" />
    <glyph glyph-name="colon" unicode=":" horiz-adv-x="278" 
d="M180 361h-83v83h83v-83zM180 0h-83v83h83v-83z" />
    <glyph glyph-name="semicolon" unicode=";" horiz-adv-x="278" 
d="M180 361h-83v83h83v-83zM180 1l-42 -126h-41l25 125h-25v83h83v-82z" />
    <glyph glyph-name="less" unicode="&#x3c;" horiz-adv-x="778" 
d="M694 -20q0 -8 -6 -14t-14 -6q-5 0 -18 7l-554 261q-19 9 -19 22t19 22l554 261q13 7 18 7q8 0 14 -6t6 -14q0 -12 -19 -22l-525 -248l525 -248q19 -10 19 -22z" />
    <glyph glyph-name="equal" unicode="=" horiz-adv-x="778" 
d="M721 350q0 -20 -34 -20h-597q-34 0 -34 20t33 20h599q33 0 33 -20zM721 150q0 -20 -33 -20h-599q-33 0 -33 20t34 20h597q34 0 34 -20z" />
    <glyph glyph-name="greater" unicode="&#x3e;" horiz-adv-x="778" 
d="M694 250q0 -13 -19 -22l-554 -261q-13 -7 -18 -7q-8 0 -14 6t-6 14q0 12 19 22l525 248l-525 248q-19 10 -19 22q0 8 6 14t14 6q5 0 18 -7l554 -261q19 -9 19 -22z" />
    <glyph glyph-name="question" unicode="?" horiz-adv-x="472" 
d="M415 550q0 -72 -57 -120q-103 -87 -103 -201v-54h-67v32q0 171 114 268q35 32 35 76q0 93 -113 93q-85 0 -145 -55l-23 63q78 53 168 53q102 0 146.5 -46.5t44.5 -108.5zM263 0h-83v83h83v-83z" />
    <glyph glyph-name="at" unicode="@" horiz-adv-x="667" 
d="M610 85q-33 -37 -90.5 -66.5t-131.5 -29.5q-136 0 -234 104t-98 254t99 254t232 104q223 0 223 -343q0 -65 -19 -115t-48.5 -76t-59.5 -38.5t-58 -12.5q-75 0 -130 65.5t-55 161.5t55 161.5t130 65.5q44 0 84 -25q-34 95 -123 95q-101 0 -178 -85t-77 -212
q0 -123 75 -210t185 -87q74 0 146 31q8 4 25 4h48zM535 347q0 70 -32.5 118t-77.5 48t-77.5 -48t-32.5 -118t32.5 -118t77.5 -48t77.5 48t32.5 118z" />
    <glyph glyph-name="A" unicode="A" horiz-adv-x="667" 
d="M638 0h-92l-76 204h-291l-77 -204h-74l261 694h88zM448 260l-91 257q-29 83 -32 105h-1q-6 -33 -59 -181q-25 -72 -32 -91t-33 -90h248z" />
    <glyph glyph-name="B" unicode="B" horiz-adv-x="667" 
d="M610 188q0 -75 -71.5 -131.5t-177.5 -56.5h-264v694h237q105 0 177 -52t72 -122q0 -55 -47 -97t-119 -60q81 -13 137 -62t56 -113zM505 519q0 50 -58 84.5t-141 34.5h-126v-247h116q97 0 153 39t56 89zM529 189q0 59 -61.5 100t-142.5 41h-145v-274h153q81 0 138.5 38.5
t57.5 94.5z" />
    <glyph glyph-name="C" unicode="C" horiz-adv-x="639" 
d="M587 45q-59 -36 -95 -45q-37 -11 -104 -11q-133 0 -228 105q-94 105 -94 253t94 254q95 105 228 105q54 0 95 -8q43 -8 93 -28l-14 -82q-43 30 -84 42q-39 12 -90 12q-96 0 -165 -86q-68 -87 -68 -209q0 -121 68 -208q69 -86 165 -86q66 0 101 12q37 11 92 49z" />
    <glyph glyph-name="D" unicode="D" horiz-adv-x="722" 
d="M665 341q0 -142 -89.5 -241.5t-216.5 -99.5h-263v694h262q128 0 217.5 -103.5t89.5 -249.5zM579 341q0 131 -69 214t-175 83h-153v-582h153q106 0 175 79.5t69 205.5z" />
    <glyph glyph-name="E" unicode="E" horiz-adv-x="597" 
d="M554 0h-460v691h446v-65h-183q-6 0 -18 0.5t-18 0.5h-138v-237h330v-61h-330v-259h209q6 0 18 0.5t18 0.5h126v-71z" />
    <glyph glyph-name="F" unicode="F" horiz-adv-x="569" 
d="M526 626h-176q-6 0 -18 0.5t-18 0.5h-131v-251h302v-61h-302v-315h-89v691h432v-65z" />
    <glyph glyph-name="G" unicode="G" horiz-adv-x="667" 
d="M598 38q-100 -49 -210 -49q-133 0 -228 105q-94 105 -94 253t94 254q95 105 228 105q57 0 104 -11q52 -14 98 -39l-15 -82q-44 37 -88 52q-43 16 -99 16q-96 0 -165 -86q-68 -87 -68 -209q0 -121 68 -208q69 -86 165 -86q69 0 132 21v165h-132v61h210v-262z" />
    <glyph glyph-name="H" unicode="H" horiz-adv-x="708" 
d="M613 0h-89v330h-341v-330h-89v694h89v-303h341v303h89v-694z" />
    <glyph glyph-name="I" unicode="I" horiz-adv-x="278" 
d="M183 0h-89v694h89v-694z" />
    <glyph glyph-name="J" unicode="J" horiz-adv-x="472" 
d="M388 149q0 -83 -47.5 -127t-127.5 -44q-87 0 -171 42l14 75q50 -56 128 -56q33 0 57.5 10.5t35.5 23.5t17.5 32t7 28t0.5 19v542h86v-545z" />
    <glyph glyph-name="K" unicode="K" horiz-adv-x="694" 
d="M651 0h-92l-245 364l-133 -137v-227h-85v694h85v-371l363 371h93l-268 -274z" />
    <glyph glyph-name="L" unicode="L" horiz-adv-x="542" 
d="M499 0h-405v694h89v-630h49l267 2v-66z" />
    <glyph glyph-name="M" unicode="M" horiz-adv-x="875" 
d="M774 0h-78v620l-1 1q-1 -6 -42 -124l-48 -127l-133 -348h-73l-148 389q-64 168 -72 209h-1v-620h-78v694h113l34 -87l157 -414q25 -69 32 -100h1q12 52 93 262l130 339h114v-694z" />
    <glyph glyph-name="N" unicode="N" horiz-adv-x="708" 
d="M611 0h-124l-245 486l-67 137h-1v-623h-78v694h124l245 -486l67 -137h1v623h78v-694z" />
    <glyph glyph-name="O" unicode="O" horiz-adv-x="736" 
d="M679 345q0 -155 -92.5 -261t-219.5 -106q-125 0 -218 105.5t-93 261.5q0 155 92 263t220 108q126 0 218.5 -108t92.5 -263zM590 360q0 130 -66 211t-157 81q-89 0 -155.5 -80.5t-66.5 -211.5q0 -140 65.5 -228.5t157.5 -88.5q90 0 156 88t66 229z" />
    <glyph glyph-name="P" unicode="P" horiz-adv-x="639" 
d="M582 492q0 -84 -68 -143.5t-162 -59.5h-167v-289h-89v694h249q101 0 169 -60t68 -142zM501 492q0 65 -48.5 105.5t-129.5 40.5h-141v-291h141q83 0 130.5 41.5t47.5 103.5z" />
    <glyph glyph-name="Q" unicode="Q" horiz-adv-x="736" 
d="M679 345q0 -87 -35 -169.5t-111 -142.5l119 -158h-103l-86 121q-46 -18 -96 -18q-125 0 -218 105.5t-93 261.5q0 155 92 263t220 108q126 0 218.5 -108t92.5 -263zM593 345q0 135 -66.5 221t-159.5 86q-91 0 -158 -86t-67 -221t67 -219t159 -84q13 0 27 2t21 4l8 3
l-101 143h89l79 -105q102 93 102 256z" />
    <glyph glyph-name="R" unicode="R" horiz-adv-x="646" 
d="M617 0h-89l-188 317h-158v-317h-86v694h241q106 0 179 -55.5t73 -130.5q0 -61 -46.5 -110t-123.5 -72zM508 508q0 55 -49 92.5t-133 37.5h-144v-260h144q85 0 133.5 37t48.5 93z" />
    <glyph glyph-name="S" unicode="S" horiz-adv-x="556" 
d="M499 189q0 -85 -64 -148t-160 -63q-121 0 -231 69l15 81q96 -81 215 -81q65 0 105.5 40t40.5 92q0 57 -42 93q-21 18 -39.5 25.5t-83.5 23.5q-53 13 -84.5 26.5t-60.5 44.5q-54 57 -54 127q0 78 63 137.5t163 59.5t183 -50l-15 -80q-76 64 -169 64q-66 0 -106 -36
t-40 -83q0 -49 35 -79q21 -18 39 -25.5t65 -18.5q76 -19 107.5 -33t64.5 -49q53 -58 53 -137z" />
    <glyph glyph-name="T" unicode="T" horiz-adv-x="681" 
d="M644 623h-134q-6 0 -18 0.5t-18 0.5h-89v-624h-89v624h-90q-6 0 -18 -0.5t-18 -0.5h-134v65h608v-65z" />
    <glyph glyph-name="U" unicode="U" horiz-adv-x="688" 
d="M593 233q0 -108 -72.5 -181.5t-174.5 -73.5q-103 0 -177.5 73.5t-74.5 181.5v461h89v-462q0 -95 48.5 -146.5t115.5 -51.5q68 0 118 52t50 146v462h78v-461z" />
    <glyph glyph-name="V" unicode="V" horiz-adv-x="667" 
d="M652 694l-273 -694h-92l-273 694h93l173 -448q54 -144 60 -174h1q9 48 100 280l133 342h78z" />
    <glyph glyph-name="W" unicode="W" horiz-adv-x="944" 
d="M929 694l-203 -694h-87l-115 401q-48 170 -55 220h-1q-6 -51 -70 -274l-100 -347h-81l-203 694h86l81 -282l47 -167q37 -154 39 -171h1q5 56 77 308l90 312h81l98 -341q29 -101 47 -171.5t21 -89.5l4 -20h1q6 57 79 308l91 314h72z" />
    <glyph glyph-name="X" unicode="X" horiz-adv-x="667" 
d="M652 0h-104l-222 306l-216 -306h-96l269 366l-255 328h104l194 -261l188 261h96l-241 -328z" />
    <glyph glyph-name="Y" unicode="Y" horiz-adv-x="667" 
d="M663 694l-287 -417v-277h-86v278l-287 416h105l198 -290q8 -11 36 -57l61 95q13 20 17 26l155 226h88z" />
    <glyph glyph-name="Z" unicode="Z" horiz-adv-x="611" 
d="M560 0h-504v43l385 590h-136q-6 0 -18 -0.5t-18 -0.5h-200v62h485v-41l-385 -589h32l263 2h96v-66z" />
    <glyph glyph-name="bracketleft" unicode="[" horiz-adv-x="289" 
d="M266 -250h-164v1000h164v-61h-92v-878h92v-61z" />
    <glyph glyph-name="backslash" unicode="\" 
d="M443 -230q0 -8 -6 -14t-14 -6q-14 0 -22 22l-340 940l-5 18q0 8 6 14t14 6q14 0 22 -22l340 -940z" />
    <glyph glyph-name="bracketright" unicode="]" horiz-adv-x="289" 
d="M186 -250h-164v61h92v878h-92v61h164v-1000z" />
    <glyph glyph-name="asciicircum" unicode="^" horiz-adv-x="556" 
d="M561 584l-12 -22l-272 123l-271 -123l-11 22l283 160z" />
    <glyph glyph-name="underscore" unicode="_" horiz-adv-x="667" 
d="M667 -164h-667v78h667v-78z" />
    <glyph glyph-name="grave" unicode="`" 
d="M320 527h-61l-150 167h78z" />
    <glyph glyph-name="a" unicode="a" horiz-adv-x="481" 
d="M409 0h-75v36q-61 -47 -166 -47q-58 0 -86 40.5t-28 83.5q0 63 78.5 96.5t198.5 35.5v43q0 53 -25 83.5t-62 30.5q-81 0 -151 -50l-6 66q75 43 157 43q70 0 117.5 -48.5t47.5 -123.5v-289zM331 132v62q-205 -10 -205 -79q0 -30 27.5 -47.5t65.5 -17.5q47 0 78 19
q34 19 34 63z" />
    <glyph glyph-name="b" unicode="b" horiz-adv-x="517" 
d="M480 223q0 -99 -55 -166.5t-131 -67.5q-72 0 -134 57v-46h-78v694h75v-298q72 59 161 59q69 0 115.5 -68.5t46.5 -163.5zM402 223q0 87 -41 129t-94 42q-68 0 -107 -59v-221q35 -64 97 -64q55 0 100 42.5t45 130.5z" />
    <glyph glyph-name="c" unicode="c" horiz-adv-x="444" 
d="M415 40q-74 -51 -163 -51q-92 0 -154 69t-62 164t60.5 167t159.5 72q46 0 78 -9t76 -34l-12 -65q-40 26 -70 35t-71 9q-50 0 -83.5 -28t-46.5 -65.5t-13 -80.5q0 -74 38.5 -122t100.5 -48q87 0 156 54z" />
    <glyph glyph-name="d" unicode="d" horiz-adv-x="517" 
d="M434 0h-78v52q-65 -63 -148 -63q-72 0 -122 67.5t-50 165.5q0 97 51.5 165t125.5 68q80 0 146 -55v294h75v-694zM356 139v200q-38 55 -97 55q-55 0 -100 -42t-45 -131q0 -86 40.5 -128.5t94.5 -42.5q42 0 74 28q33 30 33 61z" />
    <glyph glyph-name="e" unicode="e" horiz-adv-x="444" 
d="M414 219h-309q2 -73 44.5 -121t102.5 -48q84 0 152 56l6 -65q-72 -52 -159 -52q-90 0 -153 69t-63 168q0 97 59 166t142 69q90 0 138 -73q40 -62 40 -169zM357 274q-9 64 -43 95t-78 31q-43 0 -78.5 -35t-47.5 -91h247z" />
    <glyph glyph-name="f" unicode="f" horiz-adv-x="306" 
d="M347 627q-39 17 -81 17q-13 0 -26 -2.5t-29.5 -10t-27 -25t-10.5 -43.5v-119h113v-58h-110v-386h-75v386h-74v58h74v90q0 74 47.5 122.5t118.5 48.5q36 0 80 -11v-67z" />
    <glyph glyph-name="g" unicode="g" 
d="M485 392q-41 3 -59 3q-12 0 -37.5 -2t-36.5 -2l-4 1q33 -45 33 -100q0 -67 -46.5 -115t-113.5 -48q-50 0 -91 29q-11 -14 -11 -36q0 -53 58 -53h88q17 0 29.5 -1t40.5 -4t48.5 -12.5t42 -23.5t33.5 -39.5t12 -58.5q0 -57 -64.5 -96.5t-157.5 -39.5q-92 0 -156.5 39.5
t-64.5 95.5q0 65 64 103q-26 32 -26 76t29 85q-33 43 -33 99q0 68 47 115.5t112 47.5q55 0 95 -32q74 32 158 32zM311 292q0 54 -26.5 80t-63.5 26q-34 0 -61.5 -25t-27.5 -81t27.5 -81t61.5 -25q37 0 63.5 26t26.5 80zM401 -72q0 69 -135 69h-90q-22 0 -38 -7t-23.5 -15.5
t-11.5 -20.5t-4.5 -16.5t-0.5 -8.5q0 -34 44.5 -56t107.5 -22q62 0 106.5 22t44.5 55z" />
    <glyph glyph-name="h" unicode="h" horiz-adv-x="517" 
d="M435 0h-78v291q0 14 -0.5 23.5t-6 26t-15 27t-29 18.5t-46.5 8q-52 0 -76.5 -45t-24.5 -104v-245h-78v694h75v-311q56 72 142 72q137 0 137 -157v-298z" />
    <glyph glyph-name="i" unicode="i" horiz-adv-x="239" 
d="M156 0h-75v444h75v-444zM164 566h-89v89h89v-89z" />
    <glyph glyph-name="j" unicode="j" horiz-adv-x="267" 
d="M184 -59q0 -67 -37.5 -106.5t-87.5 -39.5q-62 0 -120 34l21 61q32 -31 74 -31q10 0 20 2t24 8.5t22.5 22.5t8.5 39v513h75v-503zM184 566h-89v89h89v-89z" />
    <glyph glyph-name="k" unicode="k" horiz-adv-x="489" 
d="M471 0h-82l-156 224l-80 -83v-141h-69v694h72v-458l203 208h90l-168 -172z" />
    <glyph glyph-name="l" unicode="l" horiz-adv-x="239" 
d="M156 0h-75v694h75v-694z" />
    <glyph glyph-name="m" unicode="m" horiz-adv-x="794" 
d="M713 0h-78v291q0 19 -2.5 33t-11 32t-30 28t-54.5 10q-51 0 -76 -45t-25 -104v-245h-78v291q0 19 -2.5 33t-11 32t-30 28t-54.5 10q-51 0 -76 -45t-25 -104v-245h-78v450h72v-72q58 77 146 77q100 0 128 -82q56 82 149 82q137 0 137 -157v-298z" />
    <glyph glyph-name="n" unicode="n" horiz-adv-x="517" 
d="M435 0h-78v291q0 14 -0.5 23.5t-6 26t-15 27t-29 18.5t-46.5 8q-52 0 -76.5 -45t-24.5 -104v-245h-78v450h72v-71q57 76 145 76q137 0 137 -157v-298z" />
    <glyph glyph-name="o" unicode="o" 
d="M469 220q0 -97 -64.5 -164t-155.5 -67q-89 0 -154 66.5t-65 164.5q0 99 64 170t156 71q90 0 154.5 -70.5t64.5 -170.5zM391 230q0 83 -42 126.5t-100 43.5q-56 0 -98.5 -43t-42.5 -127q0 -85 42 -131t99 -46q59 0 100.5 46.5t41.5 130.5z" />
    <glyph glyph-name="p" unicode="p" horiz-adv-x="517" 
d="M480 223q0 -100 -55 -167t-130 -67q-74 0 -135 57v-240h-78v638h75v-49q71 60 164 60q70 0 114.5 -69t44.5 -163zM402 223q0 69 -39.5 118.5t-96.5 49.5q-66 0 -106 -58v-201q0 -20 10 -35q35 -47 86 -47q58 0 102 49t44 124z" />
    <glyph glyph-name="q" unicode="q" horiz-adv-x="517" 
d="M434 -194h-78v244q-67 -61 -151 -61q-71 0 -120 68t-49 164q0 100 55 167t131 67q35 0 68 -15.5t46.5 -28.5t22.5 -24v68h75v-649zM359 140v140q0 37 -26.5 74t-73.5 37q-57 0 -101 -48t-44 -122q0 -70 39.5 -120.5t96.5 -50.5q62 0 99 57q10 13 10 33z" />
    <glyph glyph-name="r" unicode="r" horiz-adv-x="342" 
d="M327 388q-74 -2 -122 -50.5t-48 -123.5v-214h-75v450h70v-91q64 95 175 96v-67z" />
    <glyph glyph-name="s" unicode="s" horiz-adv-x="383" 
d="M360 128q0 -70 -48 -107q-43 -32 -116 -32q-80 0 -168 44l12 68q73 -49 155 -49q94 0 94 69q0 15 -7 27t-15.5 19t-23.5 13t-24 8t-24 5q-34 7 -47 10t-29.5 9.5t-31.5 17.5q-54 41 -54 100q0 37 15.5 63.5t35 39t47 19.5t40.5 8t28 1q75 0 144 -32l-12 -65
q-64 38 -142 38q-85 0 -85 -62q0 -14 6 -25t13.5 -17.5t23 -12t26.5 -8.5t32 -7q43 -8 66 -17t50 -33l3 -4q4 -4 8 -9t9 -13.5t9 -18t7 -22t3 -25.5z" />
    <glyph glyph-name="t" unicode="t" horiz-adv-x="361" 
d="M332 27q-73 -38 -146 -38q-83 0 -83 130v267h-84v58h87v127h69v-127h141v-58h-141v-250q0 -83 51 -83q49 0 90 33z" />
    <glyph glyph-name="u" unicode="u" horiz-adv-x="517" 
d="M435 0h-75v48q-67 -59 -173 -59q-59 0 -82.5 30.5t-23.5 89.5v335h78v-331q0 -37 14.5 -53t63.5 -16q51 0 85.5 28.5t34.5 81.5v290h78v-444z" />
    <glyph glyph-name="v" unicode="v" horiz-adv-x="461" 
d="M446 444l-172 -444h-88l-172 444h78l97 -259q36 -98 42 -132h1q8 47 60 183l79 208h75z" />
    <glyph glyph-name="w" unicode="w" horiz-adv-x="683" 
d="M668 444l-137 -444h-88l-73 248q-29 95 -32 140h-1q-4 -47 -45 -182l-62 -206h-79l-137 444h76l52 -173q49 -169 54 -216h1q5 60 49 201l57 188h70l65 -213q41 -137 46 -177h1q5 44 46 178l64 212h73z" />
    <glyph glyph-name="x" unicode="x" horiz-adv-x="461" 
d="M460 0h-83l-150 188l-145 -188h-82l194 229l-188 215h83l138 -165l134 165h82l-183 -215z" />
    <glyph glyph-name="y" unicode="y" horiz-adv-x="461" 
d="M446 444l-218 -535q-28 -69 -54.5 -91.5t-58.5 -22.5q-37 0 -72 8l-6 65q40 -16 78 -16q10 0 16 2t17.5 15.5t23.5 40.5l36 90l-194 444h79l54 -125q8 -18 24.5 -58t39.5 -107t26 -97h1q3 69 133 387h75z" />
    <glyph glyph-name="z" unicode="z" horiz-adv-x="435" 
d="M402 0h-374v41l267 345h-78q-6 0 -18 -0.5t-18 -0.5h-139v59h358v-39l-266 -344h85q6 0 18 0.5t18 0.5h147v-62z" />
    <glyph glyph-name="braceleft" unicode="{" 
d="M427 -239q0 -11 -20 -11q-85 0 -139 38q-35 25 -43.5 51t-8.5 78v198q0 35 -13.5 60.5t-35 38t-40.5 18.5t-39 7q-5 1 -7 1t-4.5 1t-3.5 3t-1 6q0 11 14 11q63 4 104 45q19 20 22.5 42t3.5 96v183q1 53 57.5 88t133.5 35q20 0 20 -11q0 -9 -9 -11q-32 -2 -56 -10.5
t-33 -15.5t-22 -20q-17 -18 -20.5 -39t-3.5 -80v-180q0 -99 -118 -133q101 -29 116 -103q2 -10 2 -91v-150q0 -37 3 -48q8 -32 39.5 -57.5t85.5 -28.5q5 -1 7 -1t4.5 -1t3.5 -3t1 -6z" />
    <glyph glyph-name="bar" unicode="|" horiz-adv-x="278" 
d="M159 -217q0 -33 -20 -33t-20 33v934q0 33 20 33t20 -33v-934z" />
    <glyph glyph-name="braceright" unicode="}" 
d="M427 250q0 -11 -14 -11q-63 -4 -104 -45q-19 -20 -22.5 -42t-3.5 -96v-183q-1 -53 -57.5 -88t-133.5 -35q-20 0 -20 11q0 9 9 11q32 2 56 10.5t33 15.5t22 20q17 18 20.5 39t3.5 80v180q0 99 118 133q-101 29 -116 103q-2 10 -2 91v150q0 37 -3 48q-8 32 -39.5 57.5
t-85.5 28.5q-5 1 -7 1t-4.5 1t-3.5 3t-1 6q0 11 20 11q83 0 139 -38q35 -25 43.5 -51t8.5 -78v-198q0 -35 13.5 -60.5t35 -38t40.5 -18.5t39 -7q5 -1 7 -1t4.5 -1t3.5 -3t1 -6z" />
    <glyph glyph-name="asciitilde" unicode="~" horiz-adv-x="556" 
d="M555 290l-54 -44q-20 -17 -57 -35q-40 -18 -73 -18q-42 0 -100 34q-65 37 -104 37q-68 0 -153 -71l-14 17l54 44q20 17 57 35q40 18 73 18q42 0 100 -34q65 -37 104 -37q68 0 153 71z" />
    <glyph glyph-name="uni00A0" unicode="&#xa0;" 
 />
    <glyph glyph-name="exclamdown" unicode="&#xa1;" horiz-adv-x="319" 
d="M201 417h-83v83h83v-83zM201 -194h-83l8 476v43h67v-43z" />
    <glyph glyph-name="cent" unicode="&#xa2;" horiz-adv-x="444" 
d="M415 40q-65 -44 -139 -50v-54h-64v57q-77 15 -126.5 80.5t-49.5 148.5t47.5 151t128.5 84v51h64v-47q64 -3 134 -43l-12 -65q-61 40 -122 44v-343q75 7 133 53zM212 59v331q-50 -15 -74 -63t-24 -104q0 -61 26.5 -105t71.5 -59z" />
    <glyph glyph-name="sterling" unicode="&#xa3;" horiz-adv-x="667" 
d="M600 148q0 -69 -39 -119.5t-100 -50.5q-44 0 -106 16q-55 14 -87 20t-73 3t-59 -25l-61 50q103 122 114 214q4 28 -2 59h-120v64h99l-20 57q-22 99 37 178.5t156 79.5q81 0 137.5 -59.5t56.5 -143.5h-78q0 52 -33.5 88.5t-82.5 36.5q-60 0 -95.5 -50t-21.5 -113
q2 -13 27 -74h151v-64h-134q4 -35 0 -69q-8 -72 -55 -149q51 0 163 -27q49 -14 87 -14q29 0 45 27.5t16 64.5h78z" />
    <glyph glyph-name="currency" unicode="&#xa4;" horiz-adv-x="778" 
d="M624 15q-14 -14 -37 9l-75 74q-54 -44 -123 -44t-124 44l-74 -74q-23 -23 -38 -9q-5 5 -6 10t2.5 10.5t5.5 8t8 8.5l74 75q-44 54 -44 123t44 124l-74 74q-24 24 -10 38q15 14 38 -9l75 -75q54 44 123 44q68 0 123 -44l74 74q23 23 38 9q14 -13 -10 -37l-74 -74
q44 -53 44 -124q0 -70 -43 -123l74 -75q23 -23 9 -37zM544 250q0 65 -45.5 110.5t-109.5 45.5q-65 0 -110.5 -46t-45.5 -110t45.5 -110t110.5 -46q64 0 109.5 45.5t45.5 110.5z" />
    <glyph glyph-name="yen" unicode="&#xa5;" horiz-adv-x="667" 
d="M663 694l-228 -332h121v-64h-166l-14 -21v-64h180v-64h-180v-149h-86v149h-179v64h179v65l-14 20h-165v64h121l-229 332h105l198 -290q8 -11 27 -42h19l51 80q13 20 17 26l155 226h88z" />
    <glyph glyph-name="brokenbar" unicode="&#xa6;" horiz-adv-x="278" 
d="M159 343q0 -32 -20 -32t-20 32v374q0 33 20 33t20 -33v-374zM159 -217q0 -33 -20 -33t-20 33v374q0 32 20 32t20 -32v-374z" />
    <glyph glyph-name="section" unicode="&#xa7;" horiz-adv-x="528" 
d="M494 200q0 -89 -74 -143q33 -42 33 -93q0 -74 -56 -125t-133 -51t-133 49.5t-56 121.5h78q0 -43 32.5 -72t78.5 -29t78.5 31t32.5 75q0 61 -97 107l-101 46q-63 29 -103 76.5t-40 106.5q0 88 74 142q-33 42 -33 94q0 74 56 125t133 51t133 -49.5t56 -121.5h-78
q0 43 -32.5 72t-78.5 29t-78.5 -31t-32.5 -75q0 -61 97 -107l101 -46q63 -29 103 -76.5t40 -106.5zM416 200q0 66 -97 112l-101 46q-35 18 -58 34q-48 -30 -48 -92q0 -66 97 -112l101 -46q31 -16 58 -35q48 32 48 93z" />
    <glyph glyph-name="dieresis" unicode="&#xa8;" 
d="M217 571h-80v80h80v-80zM363 571h-80v80h80v-80z" />
    <glyph glyph-name="copyright" unicode="&#xa9;" horiz-adv-x="694" 
d="M694 347q0 -144 -101.5 -245.5t-245.5 -101.5t-245.5 101.5t-101.5 245.5t101.5 245.5t245.5 101.5t245.5 -101.5t101.5 -245.5zM656 347q0 128 -90.5 218.5t-218.5 90.5t-218.5 -90.5t-90.5 -218.5t90.5 -218.5t218.5 -90.5t218.5 90.5t90.5 218.5zM491 150
q-33 -21 -58 -28t-63 -7q-90 0 -148.5 69t-58.5 163q0 95 58.5 164t147.5 69q59 0 115 -23l-9 -51q-52 33 -107 33q-64 0 -106.5 -56.5t-42.5 -135.5q0 -77 41.5 -134.5t109.5 -57.5q34 0 59 8t58 31z" />
    <glyph glyph-name="ordfeminine" unicode="&#xaa;" horiz-adv-x="372" 
d="M335 394h-63v25q-51 -33 -139 -33q-49 0 -72.5 28.5t-23.5 58.5q0 44 66.5 67.5t166.5 24.5v30q0 37 -21 58.5t-52 21.5q-69 0 -127 -35l-5 46q62 30 132 30q59 0 98.5 -33.5t39.5 -86.5v-202zM303 334q0 -10 -9 -16.5t-23 -6.5h-170q-14 0 -23 6.5t-9 16.5q0 9 9.5 15.5
t22.5 6.5h170q13 0 22.5 -6.5t9.5 -15.5zM270 486v44q-173 -10 -173 -56q0 -21 23 -33t56 -12q41 0 65 13q29 13 29 44z" />
    <glyph glyph-name="guillemotleft" unicode="&#xab;" 
d="M277 0h-61l-105 219l105 220h61l-88 -220zM444 0h-61l-105 219l105 220h61l-88 -220z" />
    <glyph glyph-name="logicalnot" unicode="&#xac;" horiz-adv-x="778" 
d="M721 150q0 -8 -6 -14t-14 -6t-14 6t-6 14v180h-605q-8 0 -14 6t-6 14t6 14t14 6h625q8 0 14 -6t6 -14v-200z" />
    <glyph glyph-name="uni00AD" unicode="&#xad;" horiz-adv-x="333" 
d="M276 193h-265v58h265v-58z" />
    <glyph glyph-name="registered" unicode="&#xae;" horiz-adv-x="694" 
d="M694 347q0 -144 -101.5 -245.5t-245.5 -101.5t-245.5 101.5t-101.5 245.5t101.5 245.5t245.5 101.5t245.5 -101.5t101.5 -245.5zM656 347q0 128 -90.5 218.5t-218.5 90.5t-218.5 -90.5t-90.5 -218.5t90.5 -218.5t218.5 -90.5t218.5 90.5t90.5 218.5zM526 129h-56
l-118 199h-100v-199h-54v437h152q67 0 113 -35t46 -82q0 -38 -29.5 -69.5t-77.5 -45.5zM458 449q0 34 -31 57.5t-84 23.5h-91v-163h91q54 0 84.5 23.5t30.5 58.5z" />
    <glyph glyph-name="macron" unicode="&#xaf;" 
d="M431 579h-361v64h361v-64z" />
    <glyph glyph-name="degree" unicode="&#xb0;" horiz-adv-x="375" 
d="M326 556q0 -58 -40.5 -98.5t-97.5 -40.5q-58 0 -98.5 40.5t-40.5 98.5q0 57 40.5 97.5t98.5 40.5q57 0 97.5 -40.5t40.5 -97.5zM286 556q0 40 -29 69t-69 29q-41 0 -70 -28.5t-29 -69.5t29 -70t70 -29t69.5 29t28.5 70z" />
    <glyph glyph-name="plusminus" unicode="&#xb1;" horiz-adv-x="778" 
d="M721 20q0 -20 -33 -20h-599q-33 0 -33 20t33 20h280v273h-280q-33 0 -33 20t33 20h280v280q0 33 20 33t20 -33v-280h279q33 0 33 -20t-33 -20h-279v-273h279q33 0 33 -20z" />
    <glyph glyph-name="two.superior" unicode="&#xb2;" horiz-adv-x="354" 
d="M323 310h-287v38l89 74l56 43q29 25 42 37.5t27 36t14 47.5q0 38 -27.5 65t-76.5 27q-44 0 -65.5 -24.5t-34.5 -68.5q-7 8 -16 17l-2.5 2.5t-4.5 5.5t-7 8q34 98 140 98q69 0 111 -37.5t42 -91.5q0 -24 -13 -46.5t-24 -32.5t-34 -30q-7 -5 -32 -23t-32 -24
q-77 -63 -100 -79h78h26h131v-42z" />
    <glyph glyph-name="three.superior" unicode="&#xb3;" horiz-adv-x="359" 
d="M329 418q0 -49 -43.5 -85.5t-107.5 -36.5q-89 0 -148 63l8 36q23 -30 61 -46t77 -16q41 0 65 24.5t24 60.5q0 31 -21 58.5t-73 27.5h-51v37l57 4q32 6 53 29t21 51t-21.5 42.5t-51.5 14.5q-35 0 -66 -17t-46 -47l-26 32q49 66 139 66q54 0 92.5 -26t38.5 -65
q0 -30 -20.5 -57.5t-59.5 -45.5q41 -11 70 -38.5t29 -65.5z" />
    <glyph glyph-name="acute" unicode="&#xb4;" 
d="M391 694l-150 -167h-61l133 167h78z" />
    <glyph glyph-name="uni00B5" unicode="&#xb5;" horiz-adv-x="517" 
d="M435 0h-75v48q-66 -59 -173 -59q-18 0 -28 2v-185h-78v638h78v-329q0 -38 14 -54.5t64 -16.5t85 27.5t35 84.5v288h78v-444z" />
    <glyph glyph-name="paragraph" unicode="&#xb6;" horiz-adv-x="611" 
d="M582 674q0 -20 -33 -20h-50v-815q0 -33 -20 -33t-20 33v815h-70v-815q0 -33 -20 -33t-20 33v391q-50 2 -100 17t-94 42t-71.5 72.5t-27.5 101.5q0 95 73 163t177 68h243q33 0 33 -20z" />
    <glyph glyph-name="periodcentered" unicode="&#xb7;" horiz-adv-x="778" 
d="M430 306h-83v83h83v-83z" />
    <glyph glyph-name="cedilla" unicode="&#xb8;" horiz-adv-x="444" 
d="M280 -24l-66 -168h-69l74 168h61z" />
    <glyph glyph-name="one.superior" unicode="&#xb9;" horiz-adv-x="369" 
d="M305 310h-237v34h90v312q-35 -12 -94 -14v35q94 3 137 39h14v-372h90v-34z" />
    <glyph glyph-name="ordmasculine" unicode="&#xba;" horiz-adv-x="419" 
d="M394 548q0 -68 -54.5 -115t-130.5 -47q-75 0 -129.5 46.5t-54.5 115.5t54 118.5t131 49.5q76 0 130 -49t54 -119zM362 334q0 -10 -9 -16.5t-23 -6.5h-241q-13 0 -22.5 6.5t-9.5 16.5q0 9 9.5 15.5t22.5 6.5h241q13 0 22.5 -6.5t9.5 -15.5zM328 555q0 58 -35 88.5
t-84 30.5q-46 0 -82 -30.5t-36 -88.5q0 -60 35 -92t83 -32q50 0 84.5 32.5t34.5 91.5z" />
    <glyph glyph-name="guillemotright" unicode="&#xbb;" 
d="M389 219l-105 -219h-61l88 219l-88 220h61zM222 219l-105 -219h-61l88 219l-88 220h61z" />
    <glyph glyph-name="onequarter" unicode="&#xbc;" horiz-adv-x="788" 
d="M305 310h-237v34h90v312q-35 -12 -94 -14v35q94 3 137 39h14v-372h90v-34zM723 103h-71v-103h-57v103h-190v36l182 255h65v-255h71v-36zM657 674l-400 -654h-47l400 654h47zM600 139v228q-1 -34 -139 -228h139z" />
    <glyph glyph-name="onehalf" unicode="&#xbd;" horiz-adv-x="788" 
d="M305 310h-237v34h90v312q-35 -12 -94 -14v35q94 3 137 39h14v-372h90v-34zM723 0h-287v38l89 75l56 42q28 24 42 37.5t27.5 37t13.5 47.5q0 37 -28 64t-76 27q-44 0 -65.5 -24.5t-34.5 -68.5q-13 16 -16 18q0 1 -1.5 2.5l-5 5l-7.5 7.5q34 99 140 99q69 0 111 -37.5
t42 -91.5q0 -24 -12.5 -46t-24.5 -34t-34 -30q-7 -6 -32.5 -24t-31.5 -23l-100 -79h79q4 0 12.5 0.5t12.5 0.5h131v-43zM617 674l-400 -654h-47l400 654h47z" />
    <glyph glyph-name="threequarters" unicode="&#xbe;" horiz-adv-x="788" 
d="M359 418q0 -49 -43.5 -85.5t-107.5 -36.5q-89 0 -148 63l8 36q23 -30 61.5 -46t77.5 -16q40 0 64 24.5t24 60.5q0 31 -21 58.5t-72 27.5h-52v37l57 4q32 6 53 29t21 51t-21 42.5t-52 14.5q-35 0 -66 -17t-46 -47l-25 32q47 66 138 66q54 0 92.5 -26t38.5 -65
q0 -30 -20 -57.5t-60 -45.5q41 -11 70 -38.5t29 -65.5zM723 103h-71v-103h-57v103h-190v36l182 255h65v-255h71v-36zM657 674l-400 -654h-47l400 654h47zM600 139v228q-1 -34 -139 -228h139z" />
    <glyph glyph-name="questiondown" unicode="&#xbf;" horiz-adv-x="472" 
d="M263 417h-83v83h83v-83zM415 -152q-91 -53 -192 -53q-87 0 -127 43.5t-40 111.5q0 71 49 120q83 84 83 198v57h67v-32q0 -165 -91 -266q-30 -32 -30 -79q0 -49 21 -70.5t69 -21.5q92 0 168 55z" />
    <glyph glyph-name="Agrave" unicode="&#xc0;" horiz-adv-x="667" 
d="M638 0h-92l-76 204h-291l-77 -204h-74l261 694h88zM448 260l-91 257q-29 83 -32 105h-1q-6 -33 -59 -181q-25 -72 -32 -91t-33 -90h248zM428 746h-89l-197 122h111z" />
    <glyph glyph-name="Aacute" unicode="&#xc1;" horiz-adv-x="667" 
d="M638 0h-92l-76 204h-291l-77 -204h-74l261 694h88zM448 260l-91 257q-29 83 -32 105h-1q-6 -33 -59 -181q-25 -72 -32 -91t-33 -90h248zM524 868l-197 -122h-89l175 122h111z" />
    <glyph glyph-name="Acircumflex" unicode="&#xc2;" horiz-adv-x="667" 
d="M638 0h-92l-76 204h-291l-77 -204h-74l261 694h88zM448 260l-91 257q-29 83 -32 105h-1q-6 -33 -59 -181q-25 -72 -32 -91t-33 -90h248zM489 736h-59l-97 97l-97 -97h-59l126 134h60z" />
    <glyph glyph-name="Atilde" unicode="&#xc3;" horiz-adv-x="667" 
d="M638 0h-92l-76 204h-291l-77 -204h-74l261 694h88zM448 260l-91 257q-29 83 -32 105h-1q-6 -33 -59 -181q-25 -72 -32 -91t-33 -90h248zM500 855q-1 -55 -30.5 -87t-67.5 -32q-27 0 -64 25q-47 33 -71 33q-37 0 -39 -58h-61q1 55 30.5 87t67.5 32q27 0 64 -25
q47 -33 71 -33q37 0 39 58h61z" />
    <glyph glyph-name="Adieresis" unicode="&#xc4;" horiz-adv-x="667" 
d="M638 0h-92l-76 204h-291l-77 -204h-74l261 694h88zM448 260l-91 257q-29 83 -32 105h-1q-6 -33 -59 -181q-25 -72 -32 -91t-33 -90h248zM286 736h-80v80h80v-80zM460 736h-80v80h80v-80z" />
    <glyph glyph-name="Aring" unicode="&#xc5;" horiz-adv-x="667" 
d="M638 0h-92l-76 204h-291l-77 -204h-74l261 694h88zM448 260l-91 257q-29 83 -32 105h-1q-6 -33 -59 -181q-25 -72 -32 -91t-33 -90h248zM383 778q0 37 -50 37t-50 -37t50 -37t50 37zM444 777q0 -33 -32 -58t-79 -25t-79 24.5t-32 60.5q0 33 32 58t79 25t79 -24.5
t32 -60.5z" />
    <glyph glyph-name="AE" unicode="&#xc6;" horiz-adv-x="861" 
d="M818 0h-399v222h-225l-91 -222h-75l284 694h492v-65h-153q-6 0 -18 0.5t-18 0.5h-108v-239h270v-61h-270v-260h170q6 0 18 0.5t18 0.5h105v-71zM419 278v352h-58l-144 -352h202z" />
    <glyph glyph-name="Ccedilla" unicode="&#xc7;" horiz-adv-x="639" 
d="M588 34q-54 -33 -93 -44.5t-100 -11.5q-142 0 -235 110t-93 259q0 151 93 260t234 109q91 0 183 -35l-15 -81q-81 52 -169 52q-102 0 -169.5 -90t-67.5 -215q0 -122 66 -213.5t174 -91.5q55 0 94.5 12t91.5 49zM398 -46l-66 -168h-69l74 168h61z" />
    <glyph glyph-name="Egrave" unicode="&#xc8;" horiz-adv-x="597" 
d="M554 0h-460v691h446v-65h-183q-6 0 -18 0.5t-18 0.5h-138v-237h330v-61h-330v-259h209q6 0 18 0.5t18 0.5h126v-71zM394 746h-89l-197 122h111z" />
    <glyph glyph-name="Eacute" unicode="&#xc9;" horiz-adv-x="597" 
d="M554 0h-460v691h446v-65h-183q-6 0 -18 0.5t-18 0.5h-138v-237h330v-61h-330v-259h209q6 0 18 0.5t18 0.5h126v-71zM490 868l-197 -122h-89l175 122h111z" />
    <glyph glyph-name="Ecircumflex" unicode="&#xca;" horiz-adv-x="597" 
d="M554 0h-460v691h446v-65h-183q-6 0 -18 0.5t-18 0.5h-138v-237h330v-61h-330v-259h209q6 0 18 0.5t18 0.5h126v-71zM455 736h-59l-97 97l-97 -97h-59l126 134h60z" />
    <glyph glyph-name="Edieresis" unicode="&#xcb;" horiz-adv-x="597" 
d="M554 0h-460v691h446v-65h-183q-6 0 -18 0.5t-18 0.5h-138v-237h330v-61h-330v-259h209q6 0 18 0.5t18 0.5h126v-71zM252 736h-80v80h80v-80zM426 736h-80v80h80v-80z" />
    <glyph glyph-name="Igrave" unicode="&#xcc;" horiz-adv-x="278" 
d="M183 0h-89v694h89v-694zM183 746h-89l-197 122h111z" />
    <glyph glyph-name="Iacute" unicode="&#xcd;" horiz-adv-x="278" 
d="M183 0h-89v694h89v-694zM380 868l-197 -122h-89l175 122h111z" />
    <glyph glyph-name="Icircumflex" unicode="&#xce;" horiz-adv-x="278" 
d="M183 0h-89v694h89v-694zM295 736h-59l-97 97l-97 -97h-59l126 134h60z" />
    <glyph glyph-name="Idieresis" unicode="&#xcf;" horiz-adv-x="278" 
d="M183 0h-89v694h89v-694zM92 736h-80v80h80v-80zM266 736h-80v80h80v-80z" />
    <glyph glyph-name="Eth" unicode="&#xd0;" horiz-adv-x="722" 
d="M665 341q0 -142 -89.5 -241.5t-216.5 -99.5h-263v315h-78v64h78v315h262q128 0 217.5 -103.5t89.5 -249.5zM579 341q0 131 -69 214t-175 83h-153v-259h101v-64h-101v-259h153q106 0 175 79.5t69 205.5z" />
    <glyph glyph-name="Ntilde" unicode="&#xd1;" horiz-adv-x="708" 
d="M611 0h-124l-245 486l-67 137h-1v-623h-78v694h124l245 -486l67 -137h1v623h78v-694zM521 855q-1 -55 -30.5 -87t-67.5 -32q-27 0 -64 25q-47 33 -71 33q-37 0 -39 -58h-61q1 55 30.5 87t67.5 32q27 0 64 -25q47 -33 71 -33q37 0 39 58h61z" />
    <glyph glyph-name="Ograve" unicode="&#xd2;" horiz-adv-x="736" 
d="M679 345q0 -155 -92.5 -261t-219.5 -106q-125 0 -218 105.5t-93 261.5q0 155 92 263t220 108q126 0 218.5 -108t92.5 -263zM590 360q0 130 -66 211t-157 81q-89 0 -155.5 -80.5t-66.5 -211.5q0 -140 65.5 -228.5t157.5 -88.5q90 0 156 88t66 229zM463 746h-89l-197 122
h111z" />
    <glyph glyph-name="Oacute" unicode="&#xd3;" horiz-adv-x="736" 
d="M679 345q0 -155 -92.5 -261t-219.5 -106q-125 0 -218 105.5t-93 261.5q0 155 92 263t220 108q126 0 218.5 -108t92.5 -263zM590 360q0 130 -66 211t-157 81q-89 0 -155.5 -80.5t-66.5 -211.5q0 -140 65.5 -228.5t157.5 -88.5q90 0 156 88t66 229zM559 868l-197 -122h-89
l175 122h111z" />
    <glyph glyph-name="Ocircumflex" unicode="&#xd4;" horiz-adv-x="736" 
d="M679 345q0 -155 -92.5 -261t-219.5 -106q-125 0 -218 105.5t-93 261.5q0 155 92 263t220 108q126 0 218.5 -108t92.5 -263zM590 360q0 130 -66 211t-157 81q-89 0 -155.5 -80.5t-66.5 -211.5q0 -140 65.5 -228.5t157.5 -88.5q90 0 156 88t66 229zM524 736h-59l-97 97
l-97 -97h-59l126 134h60z" />
    <glyph glyph-name="Otilde" unicode="&#xd5;" horiz-adv-x="736" 
d="M679 345q0 -155 -92.5 -261t-219.5 -106q-125 0 -218 105.5t-93 261.5q0 155 92 263t220 108q126 0 218.5 -108t92.5 -263zM590 360q0 130 -66 211t-157 81q-89 0 -155.5 -80.5t-66.5 -211.5q0 -140 65.5 -228.5t157.5 -88.5q90 0 156 88t66 229zM535 855
q-1 -55 -30.5 -87t-67.5 -32q-27 0 -64 25q-47 33 -71 33q-37 0 -39 -58h-61q1 55 30.5 87t67.5 32q27 0 64 -25q47 -33 71 -33q37 0 39 58h61z" />
    <glyph glyph-name="Odieresis" unicode="&#xd6;" horiz-adv-x="736" 
d="M679 345q0 -155 -92.5 -261t-219.5 -106q-125 0 -218 105.5t-93 261.5q0 155 92 263t220 108q126 0 218.5 -108t92.5 -263zM590 360q0 130 -66 211t-157 81q-89 0 -155.5 -80.5t-66.5 -211.5q0 -140 65.5 -228.5t157.5 -88.5q90 0 156 88t66 229zM321 736h-80v80h80v-80z
M495 736h-80v80h80v-80z" />
    <glyph glyph-name="multiply" unicode="&#xd7;" horiz-adv-x="778" 
d="M624 15q-14 -14 -37 9l-198 198l-198 -198q-23 -23 -38 -9q-5 5 -6 10t2.5 10.5t5.5 8t8 8.5l198 198l-198 198q-24 24 -10 38q15 14 38 -9l198 -198l197 197q23 23 38 9q14 -13 -10 -37l-197 -198l198 -198q23 -23 9 -37z" />
    <glyph glyph-name="Oslash" unicode="&#xd8;" horiz-adv-x="778" 
d="M721 345q0 -154 -98 -260.5t-235 -106.5q-78 0 -153 41l-48 -84l-55 32l51 90q-127 112 -127 288q0 154 98 262.5t235 108.5q74 0 153 -41l48 84l55 -32l-52 -90q51 -42 89.5 -118.5t38.5 -173.5zM509 619q-60 36 -121 36q-100 0 -173.5 -84t-73.5 -226q0 -140 77 -228z
M636 345q0 144 -78 231l-290 -502q58 -35 121 -35q100 0 173.5 82t73.5 224z" />
    <glyph glyph-name="Ugrave" unicode="&#xd9;" horiz-adv-x="688" 
d="M593 233q0 -108 -72.5 -181.5t-174.5 -73.5q-103 0 -177.5 73.5t-74.5 181.5v461h89v-462q0 -95 48.5 -146.5t115.5 -51.5q68 0 118 52t50 146v462h78v-461zM439 746h-89l-197 122h111z" />
    <glyph glyph-name="Uacute" unicode="&#xda;" horiz-adv-x="688" 
d="M593 233q0 -108 -72.5 -181.5t-174.5 -73.5q-103 0 -177.5 73.5t-74.5 181.5v461h89v-462q0 -95 48.5 -146.5t115.5 -51.5q68 0 118 52t50 146v462h78v-461zM535 868l-197 -122h-89l175 122h111z" />
    <glyph glyph-name="Ucircumflex" unicode="&#xdb;" horiz-adv-x="688" 
d="M593 233q0 -108 -72.5 -181.5t-174.5 -73.5q-103 0 -177.5 73.5t-74.5 181.5v461h89v-462q0 -95 48.5 -146.5t115.5 -51.5q68 0 118 52t50 146v462h78v-461zM500 736h-59l-97 97l-97 -97h-59l126 134h60z" />
    <glyph glyph-name="Udieresis" unicode="&#xdc;" horiz-adv-x="688" 
d="M593 233q0 -108 -72.5 -181.5t-174.5 -73.5q-103 0 -177.5 73.5t-74.5 181.5v461h89v-462q0 -95 48.5 -146.5t115.5 -51.5q68 0 118 52t50 146v462h78v-461zM297 736h-80v80h80v-80zM471 736h-80v80h80v-80z" />
    <glyph glyph-name="Yacute" unicode="&#xdd;" horiz-adv-x="667" 
d="M663 694l-287 -417v-277h-86v278l-287 416h105l198 -290q8 -11 36 -57l61 95q13 20 17 26l155 226h88zM524 868l-197 -122h-89l175 122h111z" />
    <glyph glyph-name="Thorn" unicode="&#xde;" horiz-adv-x="583" 
d="M527 374q0 -32 -12.5 -64.5t-37.5 -62.5t-70 -48.5t-103 -18.5h-124v-180h-83v694h83v-127h131q100 0 158 -59.5t58 -133.5zM446 373q0 54 -47 96t-130 42h-89v-275h96q48 0 83 14t53 36.5t26 44.5t8 42z" />
    <glyph glyph-name="germandbls" unicode="&#xdf;" horiz-adv-x="481" 
d="M452 179q0 -81 -52 -135.5t-124 -54.5q-20 0 -41.5 4t-34.5 8.5t-13 7.5l4 11l17 45q33 -15 67 -15q43 0 71.5 34.5t28.5 94.5q0 83 -44 142.5t-118 61.5v61q65 1 99.5 35.5t34.5 79.5q0 37 -26 61t-69 24q-12 0 -24.5 -2.5t-30.5 -11t-29 -29t-11 -50.5v-551h-75v552
q0 72 52.5 112.5t118.5 40.5q70 0 120.5 -42.5t50.5 -104.5q0 -41 -24.5 -80.5t-71.5 -66.5q62 -39 93 -102.5t31 -129.5z" />
    <glyph glyph-name="agrave" unicode="&#xe0;" horiz-adv-x="481" 
d="M409 0h-75v36q-61 -47 -166 -47q-58 0 -86 40.5t-28 83.5q0 63 78.5 96.5t198.5 35.5v43q0 53 -25 83.5t-62 30.5q-81 0 -151 -50l-6 66q75 43 157 43q70 0 117.5 -48.5t47.5 -123.5v-289zM331 132v62q-205 -10 -205 -79q0 -30 27.5 -47.5t65.5 -17.5q47 0 78 19
q34 19 34 63zM310 527h-61l-150 167h78z" />
    <glyph glyph-name="aacute" unicode="&#xe1;" horiz-adv-x="481" 
d="M409 0h-75v36q-61 -47 -166 -47q-58 0 -86 40.5t-28 83.5q0 63 78.5 96.5t198.5 35.5v43q0 53 -25 83.5t-62 30.5q-81 0 -151 -50l-6 66q75 43 157 43q70 0 117.5 -48.5t47.5 -123.5v-289zM331 132v62q-205 -10 -205 -79q0 -30 27.5 -47.5t65.5 -17.5q47 0 78 19
q34 19 34 63zM381 694l-150 -167h-61l133 167h78z" />
    <glyph glyph-name="acircumflex" unicode="&#xe2;" horiz-adv-x="481" 
d="M409 0h-75v36q-61 -47 -166 -47q-58 0 -86 40.5t-28 83.5q0 63 78.5 96.5t198.5 35.5v43q0 53 -25 83.5t-62 30.5q-81 0 -151 -50l-6 66q75 43 157 43q70 0 117.5 -48.5t47.5 -123.5v-289zM331 132v62q-205 -10 -205 -79q0 -30 27.5 -47.5t65.5 -17.5q47 0 78 19
q34 19 34 63zM395 525h-59l-96 123l-96 -123h-59l125 172h60z" />
    <glyph glyph-name="atilde" unicode="&#xe3;" horiz-adv-x="481" 
d="M409 0h-75v36q-61 -47 -166 -47q-58 0 -86 40.5t-28 83.5q0 63 78.5 96.5t198.5 35.5v43q0 53 -25 83.5t-62 30.5q-81 0 -151 -50l-6 66q75 43 157 43q70 0 117.5 -48.5t47.5 -123.5v-289zM331 132v62q-205 -10 -205 -79q0 -30 27.5 -47.5t65.5 -17.5q47 0 78 19
q34 19 34 63zM407 670q-1 -55 -30.5 -87t-67.5 -32q-27 0 -64 25q-47 33 -71 33q-37 0 -39 -58h-61q1 55 30.5 87t67.5 32q27 0 64 -25q47 -33 71 -33q37 0 39 58h61z" />
    <glyph glyph-name="adieresis" unicode="&#xe4;" horiz-adv-x="481" 
d="M409 0h-75v36q-61 -47 -166 -47q-58 0 -86 40.5t-28 83.5q0 63 78.5 96.5t198.5 35.5v43q0 53 -25 83.5t-62 30.5q-81 0 -151 -50l-6 66q75 43 157 43q70 0 117.5 -48.5t47.5 -123.5v-289zM331 132v62q-205 -10 -205 -79q0 -30 27.5 -47.5t65.5 -17.5q47 0 78 19
q34 19 34 63zM207 571h-80v80h80v-80zM353 571h-80v80h80v-80z" />
    <glyph glyph-name="aring" unicode="&#xe5;" horiz-adv-x="481" 
d="M409 0h-75v36q-61 -47 -166 -47q-58 0 -86 40.5t-28 83.5q0 63 78.5 96.5t198.5 35.5v43q0 53 -25 83.5t-62 30.5q-81 0 -151 -50l-6 66q75 43 157 43q70 0 117.5 -48.5t47.5 -123.5v-289zM331 132v62q-205 -10 -205 -79q0 -30 27.5 -47.5t65.5 -17.5q47 0 78 19
q34 19 34 63zM290 601q0 37 -50 37t-50 -37t50 -37t50 37zM351 600q0 -33 -32 -58t-79 -25t-79 24.5t-32 60.5q0 33 32 58t79 25t79 -24.5t32 -60.5z" />
    <glyph glyph-name="ae" unicode="&#xe6;" horiz-adv-x="722" 
d="M693 219h-293q4 -77 46 -123t98 -46q77 0 138 56l6 -65q-64 -52 -145 -52q-96 0 -163 77q-16 -26 -48.5 -43t-70 -23.5t-59.5 -8.5t-41 -2q-34 0 -58 14.5t-35.5 36.5t-16 40t-4.5 34q0 119 275 133v41q0 54 -25.5 84t-61.5 30q-81 0 -152 -50l-6 66q75 43 157 43
q43 0 81 -20.5t60 -56.5q63 77 152 77q39 0 69.5 -14.5t47.5 -41t28 -51.5t15 -57.5t5 -47t1 -30.5zM634 274q-5 39 -18 66t-29.5 39t-30.5 16.5t-28 4.5q-41 0 -75.5 -34.5t-47.5 -91.5h229zM327 127q0 36 -4 64q-22 0 -50 -2.5t-66 -9.5t-63 -23.5t-25 -40.5
q0 -28 26 -46.5t66 -18.5q13 0 25.5 1.5t36.5 7.5t39 23.5t15 44.5z" />
    <glyph glyph-name="ccedilla" unicode="&#xe7;" horiz-adv-x="444" 
d="M415 40q-74 -51 -163 -51q-92 0 -154 69t-62 164t60.5 167t159.5 72q46 0 78 -9t76 -34l-12 -65q-40 26 -70 35t-71 9q-50 0 -83.5 -28t-46.5 -65.5t-13 -80.5q0 -74 38.5 -122t100.5 -48q87 0 156 54zM291 -46l-66 -168h-69l74 168h61z" />
    <glyph glyph-name="egrave" unicode="&#xe8;" horiz-adv-x="444" 
d="M414 219h-309q2 -73 44.5 -121t102.5 -48q84 0 152 56l6 -65q-72 -52 -159 -52q-90 0 -153 69t-63 168q0 97 59 166t142 69q90 0 138 -73q40 -62 40 -169zM357 274q-9 64 -43 95t-78 31q-43 0 -78.5 -35t-47.5 -91h247zM292 527h-61l-150 167h78z" />
    <glyph glyph-name="eacute" unicode="&#xe9;" horiz-adv-x="444" 
d="M414 219h-309q2 -73 44.5 -121t102.5 -48q84 0 152 56l6 -65q-72 -52 -159 -52q-90 0 -153 69t-63 168q0 97 59 166t142 69q90 0 138 -73q40 -62 40 -169zM357 274q-9 64 -43 95t-78 31q-43 0 -78.5 -35t-47.5 -91h247zM363 694l-150 -167h-61l133 167h78z" />
    <glyph glyph-name="ecircumflex" unicode="&#xea;" horiz-adv-x="444" 
d="M414 219h-309q2 -73 44.5 -121t102.5 -48q84 0 152 56l6 -65q-72 -52 -159 -52q-90 0 -153 69t-63 168q0 97 59 166t142 69q90 0 138 -73q40 -62 40 -169zM357 274q-9 64 -43 95t-78 31q-43 0 -78.5 -35t-47.5 -91h247zM377 525h-59l-96 123l-96 -123h-59l125 172h60z
" />
    <glyph glyph-name="edieresis" unicode="&#xeb;" horiz-adv-x="444" 
d="M414 219h-309q2 -73 44.5 -121t102.5 -48q84 0 152 56l6 -65q-72 -52 -159 -52q-90 0 -153 69t-63 168q0 97 59 166t142 69q90 0 138 -73q40 -62 40 -169zM357 274q-9 64 -43 95t-78 31q-43 0 -78.5 -35t-47.5 -91h247zM189 571h-80v80h80v-80zM335 571h-80v80h80v-80z
" />
    <glyph glyph-name="igrave" unicode="&#xec;" horiz-adv-x="239" 
d="M156 0h-75v444h75v-444zM156 527h-61l-150 167h78z" />
    <glyph glyph-name="iacute" unicode="&#xed;" horiz-adv-x="239" 
d="M156 0h-75v444h75v-444zM292 694l-150 -167h-61l133 167h78z" />
    <glyph glyph-name="icircumflex" unicode="&#xee;" horiz-adv-x="239" 
d="M156 0h-75v444h75v-444zM274 525h-59l-96 123l-96 -123h-59l125 172h60z" />
    <glyph glyph-name="idieresis" unicode="&#xef;" horiz-adv-x="239" 
d="M156 0h-75v444h75v-444zM86 571h-80v80h80v-80zM232 571h-80v80h80v-80z" />
    <glyph glyph-name="eth" unicode="&#xf0;" 
d="M469 242q0 -33 -2 -54t-16 -58t-42 -68q-66 -73 -160 -73q-89 0 -154 67t-65 164q0 99 64.5 170t155.5 71q53 0 100 -27q-38 87 -114 152l-77 -61l-35 46l65 51q-47 29 -97 48l30 52q61 -18 121 -57l75 58l35 -46l-62 -48q84 -72 133 -174q45 -94 45 -213zM391 225
q0 74 -39.5 124.5t-102.5 50.5q-56 0 -98.5 -43t-42.5 -127q0 -83 41 -130t101 -47q61 0 101 49t40 123z" />
    <glyph glyph-name="ntilde" unicode="&#xf1;" horiz-adv-x="517" 
d="M435 0h-78v291q0 14 -0.5 23.5t-6 26t-15 27t-29 18.5t-46.5 8q-52 0 -76.5 -45t-24.5 -104v-245h-78v450h72v-71q57 76 145 76q137 0 137 -157v-298zM425 670q-1 -55 -30.5 -87t-67.5 -32q-27 0 -64 25q-47 33 -71 33q-37 0 -39 -58h-61q1 55 30.5 87t67.5 32
q27 0 64 -25q47 -33 71 -33q37 0 39 58h61z" />
    <glyph glyph-name="ograve" unicode="&#xf2;" 
d="M469 220q0 -97 -64.5 -164t-155.5 -67q-89 0 -154 66.5t-65 164.5q0 99 64 170t156 71q90 0 154.5 -70.5t64.5 -170.5zM391 230q0 83 -42 126.5t-100 43.5q-56 0 -98.5 -43t-42.5 -127q0 -85 42 -131t99 -46q59 0 100.5 46.5t41.5 130.5zM320 527h-61l-150 167h78z" />
    <glyph glyph-name="oacute" unicode="&#xf3;" 
d="M469 220q0 -97 -64.5 -164t-155.5 -67q-89 0 -154 66.5t-65 164.5q0 99 64 170t156 71q90 0 154.5 -70.5t64.5 -170.5zM391 230q0 83 -42 126.5t-100 43.5q-56 0 -98.5 -43t-42.5 -127q0 -85 42 -131t99 -46q59 0 100.5 46.5t41.5 130.5zM391 694l-150 -167h-61l133 167
h78z" />
    <glyph glyph-name="ocircumflex" unicode="&#xf4;" 
d="M469 220q0 -97 -64.5 -164t-155.5 -67q-89 0 -154 66.5t-65 164.5q0 99 64 170t156 71q90 0 154.5 -70.5t64.5 -170.5zM391 230q0 83 -42 126.5t-100 43.5q-56 0 -98.5 -43t-42.5 -127q0 -85 42 -131t99 -46q59 0 100.5 46.5t41.5 130.5zM405 525h-59l-96 123l-96 -123
h-59l125 172h60z" />
    <glyph glyph-name="otilde" unicode="&#xf5;" 
d="M469 220q0 -97 -64.5 -164t-155.5 -67q-89 0 -154 66.5t-65 164.5q0 99 64 170t156 71q90 0 154.5 -70.5t64.5 -170.5zM391 230q0 83 -42 126.5t-100 43.5q-56 0 -98.5 -43t-42.5 -127q0 -85 42 -131t99 -46q59 0 100.5 46.5t41.5 130.5zM417 670q-1 -55 -30.5 -87
t-67.5 -32q-27 0 -64 25q-47 33 -71 33q-37 0 -39 -58h-61q1 55 30.5 87t67.5 32q27 0 64 -25q47 -33 71 -33q37 0 39 58h61z" />
    <glyph glyph-name="odieresis" unicode="&#xf6;" 
d="M469 220q0 -97 -64.5 -164t-155.5 -67q-89 0 -154 66.5t-65 164.5q0 99 64 170t156 71q90 0 154.5 -70.5t64.5 -170.5zM391 230q0 83 -42 126.5t-100 43.5q-56 0 -98.5 -43t-42.5 -127q0 -85 42 -131t99 -46q59 0 100.5 46.5t41.5 130.5zM217 571h-80v80h80v-80zM363 571
h-80v80h80v-80z" />
    <glyph glyph-name="divide" unicode="&#xf7;" horiz-adv-x="778" 
d="M721 250q0 -20 -34 -20h-597q-34 0 -34 20t33 20h599q33 0 33 -20zM430 331h-83v83h83v-83zM430 85h-83v83h83v-83z" />
    <glyph glyph-name="oslash" unicode="&#xf8;" 
d="M467 220q0 -97 -64.5 -164t-153.5 -67q-44 0 -86 19l-67 -120l-53 30l69 123q-80 77 -80 179q0 99 64 170t154 71q44 0 88 -20l65 116l53 -30l-68 -121q79 -72 79 -186zM307 387q-26 13 -57 13q-60 0 -101.5 -47.5t-41.5 -132.5q0 -74 37 -121zM392 220q0 78 -37 127
l-161 -286q23 -11 55 -11q59 0 101 44t42 126z" />
    <glyph glyph-name="ugrave" unicode="&#xf9;" horiz-adv-x="517" 
d="M435 0h-75v48q-67 -59 -173 -59q-59 0 -82.5 30.5t-23.5 89.5v335h78v-331q0 -37 14.5 -53t63.5 -16q51 0 85.5 28.5t34.5 81.5v290h78v-444zM328 527h-61l-150 167h78z" />
    <glyph glyph-name="uacute" unicode="&#xfa;" horiz-adv-x="517" 
d="M435 0h-75v48q-67 -59 -173 -59q-59 0 -82.5 30.5t-23.5 89.5v335h78v-331q0 -37 14.5 -53t63.5 -16q51 0 85.5 28.5t34.5 81.5v290h78v-444zM399 694l-150 -167h-61l133 167h78z" />
    <glyph glyph-name="ucircumflex" unicode="&#xfb;" horiz-adv-x="517" 
d="M435 0h-75v48q-67 -59 -173 -59q-59 0 -82.5 30.5t-23.5 89.5v335h78v-331q0 -37 14.5 -53t63.5 -16q51 0 85.5 28.5t34.5 81.5v290h78v-444zM413 525h-59l-96 123l-96 -123h-59l125 172h60z" />
    <glyph glyph-name="udieresis" unicode="&#xfc;" horiz-adv-x="517" 
d="M435 0h-75v48q-67 -59 -173 -59q-59 0 -82.5 30.5t-23.5 89.5v335h78v-331q0 -37 14.5 -53t63.5 -16q51 0 85.5 28.5t34.5 81.5v290h78v-444zM225 571h-80v80h80v-80zM371 571h-80v80h80v-80z" />
    <glyph glyph-name="yacute" unicode="&#xfd;" horiz-adv-x="461" 
d="M446 444l-218 -535q-28 -69 -54.5 -91.5t-58.5 -22.5q-37 0 -72 8l-6 65q40 -16 78 -16q10 0 16 2t17.5 15.5t23.5 40.5l36 90l-194 444h79l54 -125q8 -18 24.5 -58t39.5 -107t26 -97h1q3 69 133 387h75zM372 694l-150 -167h-61l133 167h78z" />
    <glyph glyph-name="thorn" unicode="&#xfe;" horiz-adv-x="517" 
d="M480 223q0 -100 -55 -167t-130 -67q-74 0 -135 57v-240h-78v888h75v-299q71 60 164 60q70 0 114.5 -69t44.5 -163zM402 223q0 69 -39.5 118.5t-96.5 49.5q-66 0 -106 -58v-201q0 -20 10 -35q35 -47 86 -47q58 0 102 49t44 124z" />
    <glyph glyph-name="ydieresis" unicode="&#xff;" horiz-adv-x="461" 
d="M446 444l-218 -535q-28 -69 -54.5 -91.5t-58.5 -22.5q-37 0 -72 8l-6 65q40 -16 78 -16q10 0 16 2t17.5 15.5t23.5 40.5l36 90l-194 444h79l54 -125q8 -18 24.5 -58t39.5 -107t26 -97h1q3 69 133 387h75zM198 571h-80v80h80v-80zM344 571h-80v80h80v-80z" />
    <glyph glyph-name="Amacron" unicode="&#x100;" horiz-adv-x="667" 
d="M638 0h-92l-76 204h-291l-77 -204h-74l261 694h88zM448 260l-91 257q-29 83 -32 105h-1q-6 -33 -59 -181q-25 -72 -32 -91t-33 -90h248zM514 756h-361v64h361v-64z" />
    <glyph glyph-name="amacron" unicode="&#x101;" horiz-adv-x="481" 
d="M409 0h-75v36q-61 -47 -166 -47q-58 0 -86 40.5t-28 83.5q0 63 78.5 96.5t198.5 35.5v43q0 53 -25 83.5t-62 30.5q-81 0 -151 -50l-6 66q75 43 157 43q70 0 117.5 -48.5t47.5 -123.5v-289zM331 132v62q-205 -10 -205 -79q0 -30 27.5 -47.5t65.5 -17.5q47 0 78 19
q34 19 34 63zM421 579h-361v64h361v-64z" />
    <glyph glyph-name="Abreve" unicode="&#x102;" horiz-adv-x="667" 
d="M638 0h-92l-76 204h-291l-77 -204h-74l261 694h88zM448 260l-91 257q-29 83 -32 105h-1q-6 -33 -59 -181q-25 -72 -32 -91t-33 -90h248zM502 924q-1 -77 -51 -127.5t-118 -50.5q-67 0 -117 50t-51 128h61q1 -51 34 -81t74 -30q40 0 73 29.5t34 81.5h61z" />
    <glyph glyph-name="abreve" unicode="&#x103;" horiz-adv-x="481" 
d="M409 0h-75v36q-61 -47 -166 -47q-58 0 -86 40.5t-28 83.5q0 63 78.5 96.5t198.5 35.5v43q0 53 -25 83.5t-62 30.5q-81 0 -151 -50l-6 66q75 43 157 43q70 0 117.5 -48.5t47.5 -123.5v-289zM331 132v62q-205 -10 -205 -79q0 -30 27.5 -47.5t65.5 -17.5q47 0 78 19
q34 19 34 63zM409 700q-1 -77 -51 -127.5t-118 -50.5q-67 0 -117 50t-51 128h61q1 -51 34 -81t74 -30q40 0 73 29.5t34 81.5h61z" />
    <glyph glyph-name="Aogonek" unicode="&#x104;" horiz-adv-x="667" 
d="M656 -187q-53 -25 -98 -25q-47 0 -72.5 25t-26.5 60q-2 37 22.5 71t64.5 56l-76 204h-291l-77 -204h-74l261 694h88l261 -694h-29q-88 -50 -87 -104q1 -34 53 -38q29 -1 67 14zM448 260l-91 257q-29 83 -32 105h-1q-6 -33 -59 -181q-25 -72 -32 -91t-33 -90h248z" />
    <glyph glyph-name="aogonek" unicode="&#x105;" horiz-adv-x="481" 
d="M444 -187q-53 -25 -98 -25q-47 0 -72.5 25t-26.5 60q-2 37 22.5 71t64.5 56v36q-61 -47 -166 -47q-58 0 -86 40.5t-28 83.5q0 63 78.5 96.5t198.5 35.5v43q0 53 -25 83.5t-62 30.5q-81 0 -151 -50l-6 66q75 43 157 43q70 0 117.5 -48.5t47.5 -123.5v-289h-11
q-89 -50 -88 -104q1 -34 53 -38q29 -1 67 14zM331 132v62q-205 -10 -205 -79q0 -30 27.5 -47.5t65.5 -17.5q47 0 78 19q34 19 34 63z" />
    <glyph glyph-name="Cacute" unicode="&#x106;" horiz-adv-x="639" 
d="M587 45q-59 -36 -95 -45q-37 -11 -104 -11q-133 0 -228 105q-94 105 -94 253t94 254q95 105 228 105q54 0 95 -8q43 -8 93 -28l-14 -82q-43 30 -84 42q-39 12 -90 12q-96 0 -165 -86q-68 -87 -68 -209q0 -121 68 -208q69 -86 165 -86q66 0 101 12q37 11 92 49zM542 868
l-197 -122h-89l175 122h111z" />
    <glyph glyph-name="cacute" unicode="&#x107;" horiz-adv-x="444" 
d="M415 40q-74 -51 -163 -51q-92 0 -154 69t-62 164t60.5 167t159.5 72q46 0 78 -9t76 -34l-12 -65q-40 26 -70 35t-71 9q-50 0 -83.5 -28t-46.5 -65.5t-13 -80.5q0 -74 38.5 -122t100.5 -48q87 0 156 54zM385 694l-150 -167h-61l133 167h78z" />
    <glyph glyph-name="Ccircumflex" unicode="&#x108;" horiz-adv-x="639" 
d="M587 45q-59 -36 -95 -45q-37 -11 -104 -11q-133 0 -228 105q-94 105 -94 253t94 254q95 105 228 105q54 0 95 -8q43 -8 93 -28l-14 -82q-43 30 -84 42q-39 12 -90 12q-96 0 -165 -86q-68 -87 -68 -209q0 -121 68 -208q69 -86 165 -86q66 0 101 12q37 11 92 49zM507 736
h-59l-97 97l-97 -97h-59l126 134h60z" />
    <glyph glyph-name="ccircumflex" unicode="&#x109;" horiz-adv-x="444" 
d="M415 40q-74 -51 -163 -51q-92 0 -154 69t-62 164t60.5 167t159.5 72q46 0 78 -9t76 -34l-12 -65q-40 26 -70 35t-71 9q-50 0 -83.5 -28t-46.5 -65.5t-13 -80.5q0 -74 38.5 -122t100.5 -48q87 0 156 54zM399 525h-59l-96 123l-96 -123h-59l125 172h60z" />
    <glyph glyph-name="Cdotaccent" unicode="&#x10a;" horiz-adv-x="639" 
d="M587 45q-59 -36 -95 -45q-37 -11 -104 -11q-133 0 -228 105q-94 105 -94 253t94 254q95 105 228 105q54 0 95 -8q43 -8 93 -28l-14 -82q-43 30 -84 42q-39 12 -90 12q-96 0 -165 -86q-68 -87 -68 -209q0 -121 68 -208q69 -86 165 -86q66 0 101 12q37 11 92 49zM395 736
h-89v89h89v-89z" />
    <glyph glyph-name="cdotaccent" unicode="&#x10b;" horiz-adv-x="444" 
d="M415 40q-74 -51 -163 -51q-92 0 -154 69t-62 164t60.5 167t159.5 72q46 0 78 -9t76 -34l-12 -65q-40 26 -70 35t-71 9q-50 0 -83.5 -28t-46.5 -65.5t-13 -80.5q0 -74 38.5 -122t100.5 -48q87 0 156 54zM288 566h-89v89h89v-89z" />
    <glyph glyph-name="Ccaron" unicode="&#x10c;" horiz-adv-x="639" 
d="M587 45q-59 -36 -95 -45q-37 -11 -104 -11q-133 0 -228 105q-94 105 -94 253t94 254q95 105 228 105q54 0 95 -8q43 -8 93 -28l-14 -82q-43 30 -84 42q-39 12 -90 12q-96 0 -165 -86q-68 -87 -68 -209q0 -121 68 -208q69 -86 165 -86q66 0 101 12q37 11 92 49zM507 870
l-126 -134h-60l-126 134h59l97 -97l97 97h59z" />
    <glyph glyph-name="ccaron" unicode="&#x10d;" horiz-adv-x="444" 
d="M415 40q-74 -51 -163 -51q-92 0 -154 69t-62 164t60.5 167t159.5 72q46 0 78 -9t76 -34l-12 -65q-40 26 -70 35t-71 9q-50 0 -83.5 -28t-46.5 -65.5t-13 -80.5q0 -74 38.5 -122t100.5 -48q87 0 156 54zM399 697l-125 -172h-60l-125 172h59l96 -123l96 123h59z" />
    <glyph glyph-name="Dcaron" unicode="&#x10e;" horiz-adv-x="722" 
d="M665 341q0 -142 -89.5 -241.5t-216.5 -99.5h-263v694h262q128 0 217.5 -103.5t89.5 -249.5zM579 341q0 131 -69 214t-175 83h-153v-582h153q106 0 175 79.5t69 205.5zM415 870l-126 -134h-60l-126 134h59l97 -97l97 97h59z" />
    <glyph glyph-name="dcaron" unicode="&#x10f;" horiz-adv-x="517" 
d="M434 0h-78v52q-65 -63 -148 -63q-72 0 -122 67.5t-50 165.5q0 97 51.5 165t125.5 68q80 0 146 -55v294h75v-694zM356 139v200q-38 55 -97 55q-55 0 -100 -42t-45 -131q0 -86 40.5 -128.5t94.5 -42.5q42 0 74 28q33 30 33 61zM545 620l-37 -113h-37l22 112h-22v75h74v-74z
" />
    <glyph glyph-name="Dcroat" unicode="&#x110;" horiz-adv-x="722" 
d="M665 341q0 -142 -89.5 -241.5t-216.5 -99.5h-263v315h-78v64h78v315h262q128 0 217.5 -103.5t89.5 -249.5zM579 341q0 131 -69 214t-175 83h-153v-259h101v-64h-101v-259h153q106 0 175 79.5t69 205.5z" />
    <glyph glyph-name="dcroat" unicode="&#x111;" horiz-adv-x="517" 
d="M512 537h-78v-537h-78v52q-65 -63 -148 -63q-72 0 -122 67.5t-50 165.5q0 97 51.5 165t125.5 68q80 0 146 -55v137h-152v64h152v93h75v-93h78v-64zM356 139v200q-38 55 -97 55q-55 0 -100 -42t-45 -131q0 -86 40.5 -128.5t94.5 -42.5q42 0 74 28q33 30 33 61z" />
    <glyph glyph-name="Emacron" unicode="&#x112;" horiz-adv-x="597" 
d="M554 0h-460v691h446v-65h-183q-6 0 -18 0.5t-18 0.5h-138v-237h330v-61h-330v-259h209q6 0 18 0.5t18 0.5h126v-71zM480 756h-361v64h361v-64z" />
    <glyph glyph-name="emacron" unicode="&#x113;" horiz-adv-x="444" 
d="M414 219h-309q2 -73 44.5 -121t102.5 -48q84 0 152 56l6 -65q-72 -52 -159 -52q-90 0 -153 69t-63 168q0 97 59 166t142 69q90 0 138 -73q40 -62 40 -169zM357 274q-9 64 -43 95t-78 31q-43 0 -78.5 -35t-47.5 -91h247zM403 579h-361v64h361v-64z" />
    <glyph glyph-name="Ebreve" unicode="&#x114;" horiz-adv-x="597" 
d="M554 0h-460v691h446v-65h-183q-6 0 -18 0.5t-18 0.5h-138v-237h330v-61h-330v-259h209q6 0 18 0.5t18 0.5h126v-71zM468 924q-1 -77 -51 -127.5t-118 -50.5q-67 0 -117 50t-51 128h61q1 -51 34 -81t74 -30q40 0 73 29.5t34 81.5h61z" />
    <glyph glyph-name="ebreve" unicode="&#x115;" horiz-adv-x="444" 
d="M414 219h-309q2 -73 44.5 -121t102.5 -48q84 0 152 56l6 -65q-72 -52 -159 -52q-90 0 -153 69t-63 168q0 97 59 166t142 69q90 0 138 -73q40 -62 40 -169zM357 274q-9 64 -43 95t-78 31q-43 0 -78.5 -35t-47.5 -91h247zM391 700q-1 -77 -51 -127.5t-118 -50.5
q-67 0 -117 50t-51 128h61q1 -51 34 -81t74 -30q40 0 73 29.5t34 81.5h61z" />
    <glyph glyph-name="Edotaccent" unicode="&#x116;" horiz-adv-x="597" 
d="M554 0h-460v691h446v-65h-183q-6 0 -18 0.5t-18 0.5h-138v-237h330v-61h-330v-259h209q6 0 18 0.5t18 0.5h126v-71zM343 736h-89v89h89v-89z" />
    <glyph glyph-name="edotaccent" unicode="&#x117;" horiz-adv-x="444" 
d="M414 219h-309q2 -73 44.5 -121t102.5 -48q84 0 152 56l6 -65q-72 -52 -159 -52q-90 0 -153 69t-63 168q0 97 59 166t142 69q90 0 138 -73q40 -62 40 -169zM357 274q-9 64 -43 95t-78 31q-43 0 -78.5 -35t-47.5 -91h247zM266 566h-89v89h89v-89z" />
    <glyph glyph-name="Eogonek" unicode="&#x118;" horiz-adv-x="597" 
d="M554 -187q-53 -25 -98 -25q-47 0 -72.5 25t-26.5 60q-4 66 87 127h-350v691h446v-65h-183q-6 0 -18 0.5t-18 0.5h-138v-237h330v-61h-330v-259h209q6 0 18 0.5t18 0.5h126v-71h-45q-90 -51 -89 -104q1 -34 53 -38q29 -1 67 14z" />
    <glyph glyph-name="eogonek" unicode="&#x119;" horiz-adv-x="444" 
d="M414 219h-309q2 -73 44.5 -121t102.5 -48q84 0 152 56l6 -65q-33 -23 -75 -38q-90 -51 -89 -107q1 -34 53 -38q29 -1 67 14l14 -59q-53 -25 -98 -25q-47 0 -72.5 25t-26.5 60q-4 65 68 116q-90 0 -153 69t-63 168q0 97 59 166t142 69q90 0 138 -73q40 -62 40 -169z
M357 274q-9 64 -43 95t-78 31q-43 0 -78.5 -35t-47.5 -91h247z" />
    <glyph glyph-name="Ecaron" unicode="&#x11a;" horiz-adv-x="597" 
d="M554 0h-460v691h446v-65h-183q-6 0 -18 0.5t-18 0.5h-138v-237h330v-61h-330v-259h209q6 0 18 0.5t18 0.5h126v-71zM455 870l-126 -134h-60l-126 134h59l97 -97l97 97h59z" />
    <glyph glyph-name="ecaron" unicode="&#x11b;" horiz-adv-x="444" 
d="M414 219h-309q2 -73 44.5 -121t102.5 -48q84 0 152 56l6 -65q-72 -52 -159 -52q-90 0 -153 69t-63 168q0 97 59 166t142 69q90 0 138 -73q40 -62 40 -169zM357 274q-9 64 -43 95t-78 31q-43 0 -78.5 -35t-47.5 -91h247zM377 697l-125 -172h-60l-125 172h59l96 -123
l96 123h59z" />
    <glyph glyph-name="Gcircumflex" unicode="&#x11c;" horiz-adv-x="667" 
d="M598 38q-100 -49 -210 -49q-133 0 -228 105q-94 105 -94 253t94 254q95 105 228 105q57 0 104 -11q52 -14 98 -39l-15 -82q-44 37 -88 52q-43 16 -99 16q-96 0 -165 -86q-68 -87 -68 -209q0 -121 68 -208q69 -86 165 -86q69 0 132 21v165h-132v61h210v-262zM489 736h-59
l-97 97l-97 -97h-59l126 134h60z" />
    <glyph glyph-name="gcircumflex" unicode="&#x11d;" 
d="M485 392q-41 3 -59 3q-12 0 -37.5 -2t-36.5 -2l-4 1q33 -45 33 -100q0 -67 -46.5 -115t-113.5 -48q-50 0 -91 29q-11 -14 -11 -36q0 -53 58 -53h88q17 0 29.5 -1t40.5 -4t48.5 -12.5t42 -23.5t33.5 -39.5t12 -58.5q0 -57 -64.5 -96.5t-157.5 -39.5q-92 0 -156.5 39.5
t-64.5 95.5q0 65 64 103q-26 32 -26 76t29 85q-33 43 -33 99q0 68 47 115.5t112 47.5q55 0 95 -32q74 32 158 32zM311 292q0 54 -26.5 80t-63.5 26q-34 0 -61.5 -25t-27.5 -81t27.5 -81t61.5 -25q37 0 63.5 26t26.5 80zM401 -72q0 69 -135 69h-90q-22 0 -38 -7t-23.5 -15.5
t-11.5 -20.5t-4.5 -16.5t-0.5 -8.5q0 -34 44.5 -56t107.5 -22q62 0 106.5 22t44.5 55zM370 525h-59l-96 123l-96 -123h-59l125 172h60z" />
    <glyph glyph-name="Gbreve" unicode="&#x11e;" horiz-adv-x="667" 
d="M598 38q-100 -49 -210 -49q-133 0 -228 105q-94 105 -94 253t94 254q95 105 228 105q57 0 104 -11q52 -14 98 -39l-15 -82q-44 37 -88 52q-43 16 -99 16q-96 0 -165 -86q-68 -87 -68 -209q0 -121 68 -208q69 -86 165 -86q69 0 132 21v165h-132v61h210v-262zM502 924
q-1 -77 -51 -127.5t-118 -50.5q-67 0 -117 50t-51 128h61q1 -51 34 -81t74 -30q40 0 73 29.5t34 81.5h61z" />
    <glyph glyph-name="gbreve" unicode="&#x11f;" 
d="M485 392q-41 3 -59 3q-12 0 -37.5 -2t-36.5 -2l-4 1q33 -45 33 -100q0 -67 -46.5 -115t-113.5 -48q-50 0 -91 29q-11 -14 -11 -36q0 -53 58 -53h88q17 0 29.5 -1t40.5 -4t48.5 -12.5t42 -23.5t33.5 -39.5t12 -58.5q0 -57 -64.5 -96.5t-157.5 -39.5q-92 0 -156.5 39.5
t-64.5 95.5q0 65 64 103q-26 32 -26 76t29 85q-33 43 -33 99q0 68 47 115.5t112 47.5q55 0 95 -32q74 32 158 32zM311 292q0 54 -26.5 80t-63.5 26q-34 0 -61.5 -25t-27.5 -81t27.5 -81t61.5 -25q37 0 63.5 26t26.5 80zM401 -72q0 69 -135 69h-90q-22 0 -38 -7t-23.5 -15.5
t-11.5 -20.5t-4.5 -16.5t-0.5 -8.5q0 -34 44.5 -56t107.5 -22q62 0 106.5 22t44.5 55zM384 700q-1 -77 -51 -127.5t-118 -50.5q-67 0 -117 50t-51 128h61q1 -51 34 -81t74 -30q40 0 73 29.5t34 81.5h61z" />
    <glyph glyph-name="Gdotaccent" unicode="&#x120;" horiz-adv-x="667" 
d="M598 38q-100 -49 -210 -49q-133 0 -228 105q-94 105 -94 253t94 254q95 105 228 105q57 0 104 -11q52 -14 98 -39l-15 -82q-44 37 -88 52q-43 16 -99 16q-96 0 -165 -86q-68 -87 -68 -209q0 -121 68 -208q69 -86 165 -86q69 0 132 21v165h-132v61h210v-262zM377 736h-89
v89h89v-89z" />
    <glyph glyph-name="gdotaccent" unicode="&#x121;" 
d="M485 392q-41 3 -59 3q-12 0 -37.5 -2t-36.5 -2l-4 1q33 -45 33 -100q0 -67 -46.5 -115t-113.5 -48q-50 0 -91 29q-11 -14 -11 -36q0 -53 58 -53h88q17 0 29.5 -1t40.5 -4t48.5 -12.5t42 -23.5t33.5 -39.5t12 -58.5q0 -57 -64.5 -96.5t-157.5 -39.5q-92 0 -156.5 39.5
t-64.5 95.5q0 65 64 103q-26 32 -26 76t29 85q-33 43 -33 99q0 68 47 115.5t112 47.5q55 0 95 -32q74 32 158 32zM311 292q0 54 -26.5 80t-63.5 26q-34 0 -61.5 -25t-27.5 -81t27.5 -81t61.5 -25q37 0 63.5 26t26.5 80zM401 -72q0 69 -135 69h-90q-22 0 -38 -7t-23.5 -15.5
t-11.5 -20.5t-4.5 -16.5t-0.5 -8.5q0 -34 44.5 -56t107.5 -22q62 0 106.5 22t44.5 55zM259 566h-89v89h89v-89z" />
    <glyph glyph-name="Gcommaaccent" unicode="&#x122;" horiz-adv-x="667" 
d="M598 38q-100 -49 -210 -49q-133 0 -228 105q-94 105 -94 253t94 254q95 105 228 105q57 0 104 -11q52 -14 98 -39l-15 -82q-44 37 -88 52q-43 16 -99 16q-96 0 -165 -86q-68 -87 -68 -209q0 -121 68 -208q69 -86 165 -86q69 0 132 21v165h-132v61h210v-262zM370 -153
l-37 -113h-37l22 112h-22v75h74v-74z" />
    <glyph glyph-name="gcommaaccent" unicode="&#x123;" 
d="M252 540h-74v74l37 113h37l-22 -112h22v-75zM485 392q-41 3 -59 3q-12 0 -37.5 -2t-36.5 -2l-4 1q33 -45 33 -100q0 -67 -46.5 -115t-113.5 -48q-50 0 -91 29q-11 -14 -11 -36q0 -53 58 -53h88q17 0 29.5 -1t40.5 -4t48.5 -12.5t42 -23.5t33.5 -39.5t12 -58.5
q0 -57 -64.5 -96.5t-157.5 -39.5q-92 0 -156.5 39.5t-64.5 95.5q0 65 64 103q-26 32 -26 76t29 85q-33 43 -33 99q0 68 47 115.5t112 47.5q55 0 95 -32q74 32 158 32zM311 292q0 54 -26.5 80t-63.5 26q-34 0 -61.5 -25t-27.5 -81t27.5 -81t61.5 -25q37 0 63.5 26t26.5 80z
M401 -72q0 69 -135 69h-90q-22 0 -38 -7t-23.5 -15.5t-11.5 -20.5t-4.5 -16.5t-0.5 -8.5q0 -34 44.5 -56t107.5 -22q62 0 106.5 22t44.5 55z" />
    <glyph glyph-name="Hcircumflex" unicode="&#x124;" horiz-adv-x="708" 
d="M613 0h-89v330h-341v-330h-89v694h89v-303h341v303h89v-694zM510 736h-59l-97 97l-97 -97h-59l126 134h60z" />
    <glyph glyph-name="hcircumflex" unicode="&#x125;" horiz-adv-x="517" 
d="M435 0h-78v291q0 14 -0.5 23.5t-6 26t-15 27t-29 18.5t-46.5 8q-52 0 -76.5 -45t-24.5 -104v-245h-78v694h75v-311q56 72 142 72q137 0 137 -157v-298zM414 736h-59l-97 97l-97 -97h-59l126 134h60z" />
    <glyph glyph-name="Hbar" unicode="&#x126;" horiz-adv-x="708" 
d="M665 489h-52v-489h-89v330h-341v-330h-89v489h-52v64h52v141h89v-141h341v141h89v-141h52v-64zM524 391v98h-341v-98h341z" />
    <glyph glyph-name="hbar" unicode="&#x127;" horiz-adv-x="517" 
d="M435 0h-78v291q0 14 -0.5 23.5t-6 26t-15 27t-29 18.5t-46.5 8q-52 0 -76.5 -45t-24.5 -104v-245h-78v537h-78v64h78v93h75v-93h102v-64h-102v-154q56 72 142 72q137 0 137 -157v-298z" />
    <glyph glyph-name="Itilde" unicode="&#x128;" horiz-adv-x="278" 
d="M183 0h-89v694h89v-694zM306 855q-1 -55 -30.5 -87t-67.5 -32q-27 0 -64 25q-47 33 -71 33q-37 0 -39 -58h-61q1 55 30.5 87t67.5 32q27 0 64 -25q47 -33 71 -33q37 0 39 58h61z" />
    <glyph glyph-name="itilde" unicode="&#x129;" horiz-adv-x="239" 
d="M156 0h-75v444h75v-444zM286 670q-1 -55 -30.5 -87t-67.5 -32q-27 0 -64 25q-47 33 -71 33q-37 0 -39 -58h-61q1 55 30.5 87t67.5 32q27 0 64 -25q47 -33 71 -33q37 0 39 58h61z" />
    <glyph glyph-name="Imacron" unicode="&#x12a;" horiz-adv-x="278" 
d="M183 0h-89v694h89v-694zM320 756h-361v64h361v-64z" />
    <glyph glyph-name="imacron" unicode="&#x12b;" horiz-adv-x="239" 
d="M156 0h-75v444h75v-444zM300 579h-361v64h361v-64z" />
    <glyph glyph-name="Ibreve" unicode="&#x12c;" horiz-adv-x="278" 
d="M183 0h-89v694h89v-694zM308 924q-1 -77 -51 -127.5t-118 -50.5q-67 0 -117 50t-51 128h61q1 -51 34 -81t74 -30q40 0 73 29.5t34 81.5h61z" />
    <glyph glyph-name="ibreve" unicode="&#x12d;" horiz-adv-x="239" 
d="M156 0h-75v444h75v-444zM288 700q-1 -77 -51 -127.5t-118 -50.5q-67 0 -117 50t-51 128h61q1 -51 34 -81t74 -30q40 0 73 29.5t34 81.5h61z" />
    <glyph glyph-name="Iogonek" unicode="&#x12e;" horiz-adv-x="278" 
d="M229 -187q-53 -25 -98 -25q-47 0 -72.5 25t-26.5 60q-2 37 22.5 71t64.5 56h-25v694h89v-694q-89 -50 -88 -104q1 -34 53 -38q29 -1 67 14z" />
    <glyph glyph-name="iogonek" unicode="&#x12f;" horiz-adv-x="239" 
d="M163 591h-89v89h89v-89zM202 -187q-53 -25 -98 -25q-47 0 -72.5 25t-26.5 60q-2 37 22.5 71t64.5 56h-11v444h75v-444q-89 -50 -88 -104q1 -34 53 -38q29 -1 67 14z" />
    <glyph glyph-name="Idotaccent" unicode="&#x130;" horiz-adv-x="278" 
d="M183 0h-89v694h89v-694zM183 736h-89v89h89v-89z" />
    <glyph glyph-name="dotlessi" unicode="&#x131;" horiz-adv-x="239" 
d="M156 0h-75v444h75v-444z" />
    <glyph glyph-name="Jcircumflex" unicode="&#x134;" horiz-adv-x="472" 
d="M388 149q0 -83 -47.5 -127t-127.5 -44q-87 0 -171 42l14 75q50 -56 128 -56q33 0 57.5 10.5t35.5 23.5t17.5 32t7 28t0.5 19v542h86v-545zM501 736h-59l-97 97l-97 -97h-59l126 134h60z" />
    <glyph glyph-name="jcircumflex" unicode="&#x135;" horiz-adv-x="267" 
d="M184 -59q0 -67 -37.5 -106.5t-87.5 -39.5q-62 0 -120 34l21 61q32 -31 74 -31q10 0 20 2t24 8.5t22.5 22.5t8.5 39v513h75v-503zM295 525h-59l-96 123l-96 -123h-59l125 172h60z" />
    <glyph glyph-name="Kcommaaccent" unicode="&#x136;" horiz-adv-x="694" 
d="M651 0h-92l-245 364l-133 -137v-227h-85v694h85v-371l363 371h93l-268 -274zM384 -153l-37 -113h-37l22 112h-22v75h74v-74z" />
    <glyph glyph-name="kcommaaccent" unicode="&#x137;" horiz-adv-x="489" 
d="M471 0h-82l-156 224l-80 -83v-141h-69v694h72v-458l203 208h90l-168 -172zM281 -153l-37 -113h-37l22 112h-22v75h74v-74z" />
    <glyph glyph-name="Lacute" unicode="&#x139;" horiz-adv-x="542" 
d="M499 0h-405v694h89v-630h49l267 2v-66zM380 868l-197 -122h-89l175 122h111z" />
    <glyph glyph-name="lacute" unicode="&#x13a;" horiz-adv-x="239" 
d="M156 0h-75v694h75v-694zM367 868l-197 -122h-89l175 122h111z" />
    <glyph glyph-name="Lcommaaccent" unicode="&#x13b;" horiz-adv-x="542" 
d="M499 0h-405v694h89v-630h49l267 2v-66zM308 -153l-37 -113h-37l22 112h-22v75h74v-74z" />
    <glyph glyph-name="lcommaaccent" unicode="&#x13c;" horiz-adv-x="239" 
d="M156 0h-75v694h75v-694zM156 -153l-37 -113h-37l22 112h-22v75h74v-74z" />
    <glyph glyph-name="Lcaron" unicode="&#x13d;" horiz-adv-x="542" 
d="M499 0h-405v694h89v-630h49l267 2v-66zM313 620l-37 -113h-37l22 112h-22v75h74v-74z" />
    <glyph glyph-name="lcaron" unicode="&#x13e;" horiz-adv-x="239" 
d="M156 0h-75v694h75v-694zM267 620l-37 -113h-37l22 112h-22v75h74v-74z" />
    <glyph glyph-name="Ldot" unicode="&#x13f;" horiz-adv-x="542" 
d="M499 0h-405v694h89v-630h49l267 2v-66zM453 324h-89v89h89v-89z" />
    <glyph glyph-name="ldot" unicode="&#x140;" horiz-adv-x="288" 
d="M156 0h-75v694h75v-694zM306 324h-89v89h89v-89z" />
    <glyph glyph-name="Lslash" unicode="&#x141;" horiz-adv-x="625" 
d="M587 0h-405v289l-64 -54l-37 43l101 85v331h89v-256l130 110l38 -45l-168 -140v-299h49l267 2v-66z" />
    <glyph glyph-name="lslash" unicode="&#x142;" horiz-adv-x="324" 
d="M320 448l-108 -93v-355h-75v289l-60 -52l-38 45l98 86v326h75v-262l68 60z" />
    <glyph glyph-name="Nacute" unicode="&#x143;" horiz-adv-x="708" 
d="M611 0h-124l-245 486l-67 137h-1v-623h-78v694h124l245 -486l67 -137h1v623h78v-694zM545 868l-197 -122h-89l175 122h111z" />
    <glyph glyph-name="nacute" unicode="&#x144;" horiz-adv-x="517" 
d="M435 0h-78v291q0 14 -0.5 23.5t-6 26t-15 27t-29 18.5t-46.5 8q-52 0 -76.5 -45t-24.5 -104v-245h-78v450h72v-71q57 76 145 76q137 0 137 -157v-298zM399 694l-150 -167h-61l133 167h78z" />
    <glyph glyph-name="Ncommaaccent" unicode="&#x145;" horiz-adv-x="708" 
d="M611 0h-124l-245 486l-67 137h-1v-623h-78v694h124l245 -486l67 -137h1v623h78v-694zM391 -153l-37 -113h-37l22 112h-22v75h74v-74z" />
    <glyph glyph-name="ncommaaccent" unicode="&#x146;" horiz-adv-x="517" 
d="M435 0h-78v291q0 14 -0.5 23.5t-6 26t-15 27t-29 18.5t-46.5 8q-52 0 -76.5 -45t-24.5 -104v-245h-78v450h72v-71q57 76 145 76q137 0 137 -157v-298zM295 -153l-37 -113h-37l22 112h-22v75h74v-74z" />
    <glyph glyph-name="Ncaron" unicode="&#x147;" horiz-adv-x="708" 
d="M611 0h-124l-245 486l-67 137h-1v-623h-78v694h124l245 -486l67 -137h1v623h78v-694zM510 870l-126 -134h-60l-126 134h59l97 -97l97 97h59z" />
    <glyph glyph-name="ncaron" unicode="&#x148;" horiz-adv-x="517" 
d="M435 0h-78v291q0 14 -0.5 23.5t-6 26t-15 27t-29 18.5t-46.5 8q-52 0 -76.5 -45t-24.5 -104v-245h-78v450h72v-71q57 76 145 76q137 0 137 -157v-298zM413 697l-125 -172h-60l-125 172h59l96 -123l96 123h59z" />
    <glyph glyph-name="Eng" unicode="&#x14a;" horiz-adv-x="708" 
d="M613 347q0 -96 -22 -177t-74 -136.5t-127 -55.5v78q42 0 70.5 25t41.5 70.5t18 90.5t5 105t-5 105t-18 90.5t-41.5 70.5t-70.5 25q-75 0 -132.5 -48.5t-74.5 -122.5v-467h-89v694h89v-67q84 89 207 89q75 0 127 -55.5t74 -136.5t22 -177z" />
    <glyph glyph-name="eng" unicode="&#x14b;" horiz-adv-x="517" 
d="M435 0q0 -84 -41 -146.5t-110 -62.5v64q73 0 73 145v291q0 14 -0.5 23.5t-6 26t-15 27t-29 18.5t-46.5 8q-52 0 -76.5 -45t-24.5 -104v-245h-78v450h72v-71q57 76 145 76q137 0 137 -157v-298z" />
    <glyph glyph-name="Omacron" unicode="&#x14c;" horiz-adv-x="736" 
d="M679 345q0 -155 -92.5 -261t-219.5 -106q-125 0 -218 105.5t-93 261.5q0 155 92 263t220 108q126 0 218.5 -108t92.5 -263zM590 360q0 130 -66 211t-157 81q-89 0 -155.5 -80.5t-66.5 -211.5q0 -140 65.5 -228.5t157.5 -88.5q90 0 156 88t66 229zM549 756h-361v64h361
v-64z" />
    <glyph glyph-name="omacron" unicode="&#x14d;" 
d="M469 220q0 -97 -64.5 -164t-155.5 -67q-89 0 -154 66.5t-65 164.5q0 99 64 170t156 71q90 0 154.5 -70.5t64.5 -170.5zM391 230q0 83 -42 126.5t-100 43.5q-56 0 -98.5 -43t-42.5 -127q0 -85 42 -131t99 -46q59 0 100.5 46.5t41.5 130.5zM431 579h-361v64h361v-64z" />
    <glyph glyph-name="Obreve" unicode="&#x14e;" horiz-adv-x="736" 
d="M679 345q0 -155 -92.5 -261t-219.5 -106q-125 0 -218 105.5t-93 261.5q0 155 92 263t220 108q126 0 218.5 -108t92.5 -263zM590 360q0 130 -66 211t-157 81q-89 0 -155.5 -80.5t-66.5 -211.5q0 -140 65.5 -228.5t157.5 -88.5q90 0 156 88t66 229zM537 924
q-1 -77 -51 -127.5t-118 -50.5q-67 0 -117 50t-51 128h61q1 -51 34 -81t74 -30q40 0 73 29.5t34 81.5h61z" />
    <glyph glyph-name="obreve" unicode="&#x14f;" 
d="M469 220q0 -97 -64.5 -164t-155.5 -67q-89 0 -154 66.5t-65 164.5q0 99 64 170t156 71q90 0 154.5 -70.5t64.5 -170.5zM391 230q0 83 -42 126.5t-100 43.5q-56 0 -98.5 -43t-42.5 -127q0 -85 42 -131t99 -46q59 0 100.5 46.5t41.5 130.5zM419 700q-1 -77 -51 -127.5
t-118 -50.5q-67 0 -117 50t-51 128h61q1 -51 34 -81t74 -30q40 0 73 29.5t34 81.5h61z" />
    <glyph glyph-name="Ohungarumlaut" unicode="&#x150;" horiz-adv-x="736" 
d="M679 345q0 -155 -92.5 -261t-219.5 -106q-125 0 -218 105.5t-93 261.5q0 155 92 263t220 108q126 0 218.5 -108t92.5 -263zM590 360q0 130 -66 211t-157 81q-89 0 -155.5 -80.5t-66.5 -211.5q0 -140 65.5 -228.5t157.5 -88.5q90 0 156 88t66 229zM367 913l-80 -167h-61
l63 167h78zM534 913l-80 -167h-61l63 167h78z" />
    <glyph glyph-name="ohungarumlaut" unicode="&#x151;" 
d="M469 220q0 -97 -64.5 -164t-155.5 -67q-89 0 -154 66.5t-65 164.5q0 99 64 170t156 71q90 0 154.5 -70.5t64.5 -170.5zM391 230q0 83 -42 126.5t-100 43.5q-56 0 -98.5 -43t-42.5 -127q0 -85 42 -131t99 -46q59 0 100.5 46.5t41.5 130.5zM249 694l-80 -167h-61l63 167h78
zM416 694l-80 -167h-61l63 167h78z" />
    <glyph glyph-name="OE" unicode="&#x152;" horiz-adv-x="972" 
d="M929 0h-410q-29 0 -81 -11t-80 -11q-131 0 -230.5 105.5t-99.5 261.5t99 263.5t231 107.5q29 0 81 -11q49 -11 80 -11h396v-65h-182q-6 0 -18 0.5t-18 0.5h-138v-239h329v-61h-329v-260h209q6 0 18 0.5t18 0.5h125v-71zM472 347q0 180 -4 213q-7 51 -27 73t-78 22
q-105 0 -177 -86t-72 -209q0 -133 72 -227t177 -94q58 0 78 21.5t27 70.5q4 33 4 216z" />
    <glyph glyph-name="oe" unicode="&#x153;" horiz-adv-x="778" 
d="M749 219h-294q4 -76 45.5 -122.5t99.5 -46.5q78 0 138 56l6 -65q-63 -52 -146 -52q-56 0 -104 28t-77 73q-70 -101 -176 -101q-86 0 -148.5 68.5t-62.5 167.5q0 98 62.5 167t148.5 69q107 0 174 -99q25 41 69.5 70t98.5 29q41 0 72.5 -17t48.5 -42.5t28 -60t14 -63.5
t3 -59zM690 274q-9 63 -37.5 94.5t-69.5 31.5q-42 0 -77 -36t-46 -90h230zM377 230q0 84 -40.5 127t-95.5 43q-57 0 -98 -44.5t-41 -125.5q0 -85 41 -132.5t98 -47.5q56 0 96 46.5t40 133.5z" />
    <glyph glyph-name="Racute" unicode="&#x154;" horiz-adv-x="646" 
d="M617 0h-89l-188 317h-158v-317h-86v694h241q106 0 179 -55.5t73 -130.5q0 -61 -46.5 -110t-123.5 -72zM508 508q0 55 -49 92.5t-133 37.5h-144v-260h144q85 0 133.5 37t48.5 93zM514 868l-197 -122h-89l175 122h111z" />
    <glyph glyph-name="racute" unicode="&#x155;" horiz-adv-x="342" 
d="M327 388q-74 -2 -122 -50.5t-48 -123.5v-214h-75v450h70v-91q64 95 175 96v-67zM293 694l-150 -167h-61l133 167h78z" />
    <glyph glyph-name="Rcommaaccent" unicode="&#x156;" horiz-adv-x="646" 
d="M617 0h-89l-188 317h-158v-317h-86v694h241q106 0 179 -55.5t73 -130.5q0 -61 -46.5 -110t-123.5 -72zM508 508q0 55 -49 92.5t-133 37.5h-144v-260h144q85 0 133.5 37t48.5 93zM360 -153l-37 -113h-37l22 112h-22v75h74v-74z" />
    <glyph glyph-name="rcommaaccent" unicode="&#x157;" horiz-adv-x="342" 
d="M327 388q-74 -2 -122 -50.5t-48 -123.5v-214h-75v450h70v-91q64 95 175 96v-67zM157 -153l-37 -113h-37l22 112h-22v75h74v-74z" />
    <glyph glyph-name="Rcaron" unicode="&#x158;" horiz-adv-x="646" 
d="M617 0h-89l-188 317h-158v-317h-86v694h241q106 0 179 -55.5t73 -130.5q0 -61 -46.5 -110t-123.5 -72zM508 508q0 55 -49 92.5t-133 37.5h-144v-260h144q85 0 133.5 37t48.5 93zM479 870l-126 -134h-60l-126 134h59l97 -97l97 97h59z" />
    <glyph glyph-name="rcaron" unicode="&#x159;" horiz-adv-x="342" 
d="M327 388q-74 -2 -122 -50.5t-48 -123.5v-214h-75v450h70v-91q64 95 175 96v-67zM326 697l-125 -172h-60l-125 172h59l96 -123l96 123h59z" />
    <glyph glyph-name="Sacute" unicode="&#x15a;" horiz-adv-x="556" 
d="M499 189q0 -85 -64 -148t-160 -63q-121 0 -231 69l15 81q96 -81 215 -81q65 0 105.5 40t40.5 92q0 57 -42 93q-21 18 -39.5 25.5t-83.5 23.5q-53 13 -84.5 26.5t-60.5 44.5q-54 57 -54 127q0 78 63 137.5t163 59.5t183 -50l-15 -80q-76 64 -169 64q-66 0 -106 -36
t-40 -83q0 -49 35 -79q21 -18 39 -25.5t65 -18.5q76 -19 107.5 -33t64.5 -49q53 -58 53 -137zM469 868l-197 -122h-89l175 122h111z" />
    <glyph glyph-name="sacute" unicode="&#x15b;" horiz-adv-x="383" 
d="M360 128q0 -70 -48 -107q-43 -32 -116 -32q-80 0 -168 44l12 68q73 -49 155 -49q94 0 94 69q0 15 -7 27t-15.5 19t-23.5 13t-24 8t-24 5q-34 7 -47 10t-29.5 9.5t-31.5 17.5q-54 41 -54 100q0 37 15.5 63.5t35 39t47 19.5t40.5 8t28 1q75 0 144 -32l-12 -65
q-64 38 -142 38q-85 0 -85 -62q0 -14 6 -25t13.5 -17.5t23 -12t26.5 -8.5t32 -7q43 -8 66 -17t50 -33l3 -4q4 -4 8 -9t9 -13.5t9 -18t7 -22t3 -25.5zM333 694l-150 -167h-61l133 167h78z" />
    <glyph glyph-name="Scircumflex" unicode="&#x15c;" horiz-adv-x="556" 
d="M499 189q0 -85 -64 -148t-160 -63q-121 0 -231 69l15 81q96 -81 215 -81q65 0 105.5 40t40.5 92q0 57 -42 93q-21 18 -39.5 25.5t-83.5 23.5q-53 13 -84.5 26.5t-60.5 44.5q-54 57 -54 127q0 78 63 137.5t163 59.5t183 -50l-15 -80q-76 64 -169 64q-66 0 -106 -36
t-40 -83q0 -49 35 -79q21 -18 39 -25.5t65 -18.5q76 -19 107.5 -33t64.5 -49q53 -58 53 -137zM434 736h-59l-97 97l-97 -97h-59l126 134h60z" />
    <glyph glyph-name="scircumflex" unicode="&#x15d;" horiz-adv-x="383" 
d="M360 128q0 -70 -48 -107q-43 -32 -116 -32q-80 0 -168 44l12 68q73 -49 155 -49q94 0 94 69q0 15 -7 27t-15.5 19t-23.5 13t-24 8t-24 5q-34 7 -47 10t-29.5 9.5t-31.5 17.5q-54 41 -54 100q0 37 15.5 63.5t35 39t47 19.5t40.5 8t28 1q75 0 144 -32l-12 -65
q-64 38 -142 38q-85 0 -85 -62q0 -14 6 -25t13.5 -17.5t23 -12t26.5 -8.5t32 -7q43 -8 66 -17t50 -33l3 -4q4 -4 8 -9t9 -13.5t9 -18t7 -22t3 -25.5zM347 525h-59l-96 123l-96 -123h-59l125 172h60z" />
    <glyph glyph-name="Scedilla" unicode="&#x15e;" horiz-adv-x="556" 
d="M499 189q0 -85 -64 -148t-160 -63q-121 0 -231 69l15 81q96 -81 215 -81q65 0 105.5 40t40.5 92q0 57 -42 93q-21 18 -39.5 25.5t-83.5 23.5q-53 13 -84.5 26.5t-60.5 44.5q-54 57 -54 127q0 78 63 137.5t163 59.5t183 -50l-15 -80q-76 64 -169 64q-66 0 -106 -36
t-40 -83q0 -49 35 -79q21 -18 39 -25.5t65 -18.5q76 -19 107.5 -33t64.5 -49q53 -58 53 -137zM324 -46l-66 -168h-69l74 168h61z" />
    <glyph glyph-name="scedilla" unicode="&#x15f;" horiz-adv-x="383" 
d="M360 128q0 -70 -48 -107q-43 -32 -116 -32q-80 0 -168 44l12 68q73 -49 155 -49q94 0 94 69q0 15 -7 27t-15.5 19t-23.5 13t-24 8t-24 5q-34 7 -47 10t-29.5 9.5t-31.5 17.5q-54 41 -54 100q0 37 15.5 63.5t35 39t47 19.5t40.5 8t28 1q75 0 144 -32l-12 -65
q-64 38 -142 38q-85 0 -85 -62q0 -14 6 -25t13.5 -17.5t23 -12t26.5 -8.5t32 -7q43 -8 66 -17t50 -33l3 -4q4 -4 8 -9t9 -13.5t9 -18t7 -22t3 -25.5zM238 -46l-66 -168h-69l74 168h61z" />
    <glyph glyph-name="Scaron" unicode="&#x160;" horiz-adv-x="556" 
d="M499 189q0 -85 -64 -148t-160 -63q-121 0 -231 69l15 81q96 -81 215 -81q65 0 105.5 40t40.5 92q0 57 -42 93q-21 18 -39.5 25.5t-83.5 23.5q-53 13 -84.5 26.5t-60.5 44.5q-54 57 -54 127q0 78 63 137.5t163 59.5t183 -50l-15 -80q-76 64 -169 64q-66 0 -106 -36
t-40 -83q0 -49 35 -79q21 -18 39 -25.5t65 -18.5q76 -19 107.5 -33t64.5 -49q53 -58 53 -137zM434 870l-126 -134h-60l-126 134h59l97 -97l97 97h59z" />
    <glyph glyph-name="scaron" unicode="&#x161;" horiz-adv-x="383" 
d="M360 128q0 -70 -48 -107q-43 -32 -116 -32q-80 0 -168 44l12 68q73 -49 155 -49q94 0 94 69q0 15 -7 27t-15.5 19t-23.5 13t-24 8t-24 5q-34 7 -47 10t-29.5 9.5t-31.5 17.5q-54 41 -54 100q0 37 15.5 63.5t35 39t47 19.5t40.5 8t28 1q75 0 144 -32l-12 -65
q-64 38 -142 38q-85 0 -85 -62q0 -14 6 -25t13.5 -17.5t23 -12t26.5 -8.5t32 -7q43 -8 66 -17t50 -33l3 -4q4 -4 8 -9t9 -13.5t9 -18t7 -22t3 -25.5zM347 697l-125 -172h-60l-125 172h59l96 -123l96 123h59z" />
    <glyph glyph-name="Tcedilla" unicode="&#x162;" horiz-adv-x="681" 
d="M644 623h-134q-6 0 -18 0.5t-18 0.5h-89v-624h-89v624h-90q-6 0 -18 -0.5t-18 -0.5h-134v65h608v-65zM371 -24l-66 -168h-69l74 168h61z" />
    <glyph glyph-name="tcedilla" unicode="&#x163;" horiz-adv-x="361" 
d="M332 27q-73 -38 -146 -38q-83 0 -83 130v267h-84v58h87v127h69v-127h141v-58h-141v-250q0 -83 51 -83q49 0 90 33zM243 -24l-66 -168h-69l74 168h61z" />
    <glyph glyph-name="Tcaron" unicode="&#x164;" horiz-adv-x="681" 
d="M644 623h-134q-6 0 -18 0.5t-18 0.5h-89v-624h-89v624h-90q-6 0 -18 -0.5t-18 -0.5h-134v65h608v-65zM496 870l-126 -134h-60l-126 134h59l97 -97l97 97h59z" />
    <glyph glyph-name="tcaron" unicode="&#x165;" horiz-adv-x="361" 
d="M332 27q-73 -38 -146 -38q-83 0 -83 130v267h-84v58h87v127h69v-127h141v-58h-141v-250q0 -83 51 -83q49 0 90 33zM286 594l-37 -113h-37l22 112h-22v75h74v-74z" />
    <glyph glyph-name="Utilde" unicode="&#x168;" horiz-adv-x="688" 
d="M593 233q0 -108 -72.5 -181.5t-174.5 -73.5q-103 0 -177.5 73.5t-74.5 181.5v461h89v-462q0 -95 48.5 -146.5t115.5 -51.5q68 0 118 52t50 146v462h78v-461zM511 855q-1 -55 -30.5 -87t-67.5 -32q-27 0 -64 25q-47 33 -71 33q-37 0 -39 -58h-61q1 55 30.5 87t67.5 32
q27 0 64 -25q47 -33 71 -33q37 0 39 58h61z" />
    <glyph glyph-name="utilde" unicode="&#x169;" horiz-adv-x="517" 
d="M435 0h-75v48q-67 -59 -173 -59q-59 0 -82.5 30.5t-23.5 89.5v335h78v-331q0 -37 14.5 -53t63.5 -16q51 0 85.5 28.5t34.5 81.5v290h78v-444zM425 670q-1 -55 -30.5 -87t-67.5 -32q-27 0 -64 25q-47 33 -71 33q-37 0 -39 -58h-61q1 55 30.5 87t67.5 32q27 0 64 -25
q47 -33 71 -33q37 0 39 58h61z" />
    <glyph glyph-name="Umacron" unicode="&#x16a;" horiz-adv-x="688" 
d="M593 233q0 -108 -72.5 -181.5t-174.5 -73.5q-103 0 -177.5 73.5t-74.5 181.5v461h89v-462q0 -95 48.5 -146.5t115.5 -51.5q68 0 118 52t50 146v462h78v-461zM525 756h-361v64h361v-64z" />
    <glyph glyph-name="umacron" unicode="&#x16b;" horiz-adv-x="517" 
d="M435 0h-75v48q-67 -59 -173 -59q-59 0 -82.5 30.5t-23.5 89.5v335h78v-331q0 -37 14.5 -53t63.5 -16q51 0 85.5 28.5t34.5 81.5v290h78v-444zM439 579h-361v64h361v-64z" />
    <glyph glyph-name="Ubreve" unicode="&#x16c;" horiz-adv-x="688" 
d="M593 233q0 -108 -72.5 -181.5t-174.5 -73.5q-103 0 -177.5 73.5t-74.5 181.5v461h89v-462q0 -95 48.5 -146.5t115.5 -51.5q68 0 118 52t50 146v462h78v-461zM513 924q-1 -77 -51 -127.5t-118 -50.5q-67 0 -117 50t-51 128h61q1 -51 34 -81t74 -30q40 0 73 29.5t34 81.5
h61z" />
    <glyph glyph-name="ubreve" unicode="&#x16d;" horiz-adv-x="517" 
d="M435 0h-75v48q-67 -59 -173 -59q-59 0 -82.5 30.5t-23.5 89.5v335h78v-331q0 -37 14.5 -53t63.5 -16q51 0 85.5 28.5t34.5 81.5v290h78v-444zM427 700q-1 -77 -51 -127.5t-118 -50.5q-67 0 -117 50t-51 128h61q1 -51 34 -81t74 -30q40 0 73 29.5t34 81.5h61z" />
    <glyph glyph-name="Uring" unicode="&#x16e;" horiz-adv-x="688" 
d="M593 233q0 -108 -72.5 -181.5t-174.5 -73.5q-103 0 -177.5 73.5t-74.5 181.5v461h89v-462q0 -95 48.5 -146.5t115.5 -51.5q68 0 118 52t50 146v462h78v-461zM393 778q0 37 -50 37t-50 -37t50 -37t50 37zM454 777q0 -33 -32 -58t-79 -25t-79 24.5t-32 60.5q0 33 32 58
t79 25t79 -24.5t32 -60.5z" />
    <glyph glyph-name="uring" unicode="&#x16f;" horiz-adv-x="517" 
d="M435 0h-75v48q-67 -59 -173 -59q-59 0 -82.5 30.5t-23.5 89.5v335h78v-331q0 -37 14.5 -53t63.5 -16q51 0 85.5 28.5t34.5 81.5v290h78v-444zM308 601q0 37 -50 37t-50 -37t50 -37t50 37zM369 600q0 -33 -32 -58t-79 -25t-79 24.5t-32 60.5q0 33 32 58t79 25t79 -24.5
t32 -60.5z" />
    <glyph glyph-name="Uhungarumlaut" unicode="&#x170;" horiz-adv-x="688" 
d="M593 233q0 -108 -72.5 -181.5t-174.5 -73.5q-103 0 -177.5 73.5t-74.5 181.5v461h89v-462q0 -95 48.5 -146.5t115.5 -51.5q68 0 118 52t50 146v462h78v-461zM343 913l-80 -167h-61l63 167h78zM510 913l-80 -167h-61l63 167h78z" />
    <glyph glyph-name="uhungarumlaut" unicode="&#x171;" horiz-adv-x="517" 
d="M435 0h-75v48q-67 -59 -173 -59q-59 0 -82.5 30.5t-23.5 89.5v335h78v-331q0 -37 14.5 -53t63.5 -16q51 0 85.5 28.5t34.5 81.5v290h78v-444zM257 694l-80 -167h-61l63 167h78zM424 694l-80 -167h-61l63 167h78z" />
    <glyph glyph-name="Uogonek" unicode="&#x172;" horiz-adv-x="688" 
d="M593 233q0 -96 -59 -166.5t-148 -85.5q-58 -40 -58 -85q1 -34 53 -38q29 -1 67 14l14 -59q-53 -25 -98 -25q-47 0 -72.5 25t-26.5 60q-3 58 57 106q-95 9 -161.5 81t-66.5 173v461h89v-462q0 -95 48.5 -146.5t115.5 -51.5q68 0 118 52t50 146v462h78v-461z" />
    <glyph glyph-name="uogonek" unicode="&#x173;" horiz-adv-x="517" 
d="M481 -187q-53 -25 -98 -25q-47 0 -72.5 25t-26.5 60q-2 37 22.5 71t64.5 56h-11v48q-67 -59 -173 -59q-59 0 -82.5 30.5t-23.5 89.5v335h78v-331q0 -37 14.5 -53t63.5 -16q51 0 85.5 28.5t34.5 81.5v290h78v-444q-89 -50 -88 -104q1 -34 53 -38q30 -1 67 14z" />
    <glyph glyph-name="Wcircumflex" unicode="&#x174;" horiz-adv-x="944" 
d="M929 694l-203 -694h-87l-115 401q-48 170 -55 220h-1q-6 -51 -70 -274l-100 -347h-81l-203 694h86l81 -282l47 -167q37 -154 39 -171h1q5 56 77 308l90 312h81l98 -341q29 -101 47 -171.5t21 -89.5l4 -20h1q6 57 79 308l91 314h72zM628 736h-59l-97 97l-97 -97h-59
l126 134h60z" />
    <glyph glyph-name="wcircumflex" unicode="&#x175;" horiz-adv-x="683" 
d="M668 444l-137 -444h-88l-73 248q-29 95 -32 140h-1q-4 -47 -45 -182l-62 -206h-79l-137 444h76l52 -173q49 -169 54 -216h1q5 60 49 201l57 188h70l65 -213q41 -137 46 -177h1q5 44 46 178l64 212h73zM497 525h-59l-96 123l-96 -123h-59l125 172h60z" />
    <glyph glyph-name="Ycircumflex" unicode="&#x176;" horiz-adv-x="667" 
d="M663 694l-287 -417v-277h-86v278l-287 416h105l198 -290q8 -11 36 -57l61 95q13 20 17 26l155 226h88zM489 736h-59l-97 97l-97 -97h-59l126 134h60z" />
    <glyph glyph-name="ycircumflex" unicode="&#x177;" horiz-adv-x="461" 
d="M446 444l-218 -535q-28 -69 -54.5 -91.5t-58.5 -22.5q-37 0 -72 8l-6 65q40 -16 78 -16q10 0 16 2t17.5 15.5t23.5 40.5l36 90l-194 444h79l54 -125q8 -18 24.5 -58t39.5 -107t26 -97h1q3 69 133 387h75zM386 525h-59l-96 123l-96 -123h-59l125 172h60z" />
    <glyph glyph-name="Ydieresis" unicode="&#x178;" horiz-adv-x="667" 
d="M663 694l-287 -417v-277h-86v278l-287 416h105l198 -290q8 -11 36 -57l61 95q13 20 17 26l155 226h88zM286 736h-80v80h80v-80zM460 736h-80v80h80v-80z" />
    <glyph glyph-name="Zacute" unicode="&#x179;" horiz-adv-x="611" 
d="M560 0h-504v43l385 590h-136q-6 0 -18 -0.5t-18 -0.5h-200v62h485v-41l-385 -589h32l263 2h96v-66zM497 868l-197 -122h-89l175 122h111z" />
    <glyph glyph-name="zacute" unicode="&#x17a;" horiz-adv-x="435" 
d="M402 0h-374v41l267 345h-78q-6 0 -18 -0.5t-18 -0.5h-139v59h358v-39l-266 -344h85q6 0 18 0.5t18 0.5h147v-62zM358 694l-150 -167h-61l133 167h78z" />
    <glyph glyph-name="Zdotaccent" unicode="&#x17b;" horiz-adv-x="611" 
d="M560 0h-504v43l385 590h-136q-6 0 -18 -0.5t-18 -0.5h-200v62h485v-41l-385 -589h32l263 2h96v-66zM350 736h-89v89h89v-89z" />
    <glyph glyph-name="zdotaccent" unicode="&#x17c;" horiz-adv-x="435" 
d="M402 0h-374v41l267 345h-78q-6 0 -18 -0.5t-18 -0.5h-139v59h358v-39l-266 -344h85q6 0 18 0.5t18 0.5h147v-62zM261 566h-89v89h89v-89z" />
    <glyph glyph-name="Zcaron" unicode="&#x17d;" horiz-adv-x="611" 
d="M560 0h-504v43l385 590h-136q-6 0 -18 -0.5t-18 -0.5h-200v62h485v-41l-385 -589h32l263 2h96v-66zM462 870l-126 -134h-60l-126 134h59l97 -97l97 97h59z" />
    <glyph glyph-name="zcaron" unicode="&#x17e;" horiz-adv-x="435" 
d="M402 0h-374v41l267 345h-78q-6 0 -18 -0.5t-18 -0.5h-139v59h358v-39l-266 -344h85q6 0 18 0.5t18 0.5h147v-62zM372 697l-125 -172h-60l-125 172h59l96 -123l96 123h59z" />
    <glyph glyph-name="longs" unicode="&#x17f;" horiz-adv-x="286" 
d="M327 627q-39 17 -81 17q-19 0 -36 -4t-35.5 -23.5t-18.5 -53.5v-563h-75v534q0 74 47.5 122.5t118.5 48.5q36 0 80 -11v-67z" />
    <glyph glyph-name="Ereversed" unicode="&#x18e;" horiz-adv-x="597" 
d="M554 0h-460v71h126q6 0 18 -0.5t18 -0.5h209v259h-330v61h330v237h-138q-6 0 -18 -0.5t-18 -0.5h-183v65h446v-691z" />
    <glyph glyph-name="florin" unicode="&#x192;" horiz-adv-x="306" 
d="M347 627q-39 17 -81 17q-13 0 -26 -2.5t-29.5 -10t-27 -25t-10.5 -43.5v-119h113v-58h-110v-386h-75v386h-74v58h74v90q0 74 47.5 122.5t118.5 48.5q36 0 80 -11v-67z" />
    <glyph glyph-name="Ohorn" unicode="&#x1a0;" horiz-adv-x="736" 
d="M679 344q0 -150 -92 -259q-91 -107 -220 -107t-220 107q-92 107 -92 259q0 155 92 263q91 109 220 109q84 0 156 -50l31 28h-22l-2 1v82l2 1h81l1 -1v-82l-1 -1l-63 -49q21 -18 37 -38q92 -108 92 -263zM590 361q0 123 -64 207q-29 39 -71 62t-88 23t-88 -23t-71 -62
q-64 -84 -64 -207q0 -134 64 -226q29 -42 70.5 -67t88.5 -25t88.5 25t70.5 67q64 92 64 226z" />
    <glyph glyph-name="ohorn" unicode="&#x1a1;" 
d="M470 445l-68 -53l2 -2q64 -70 64 -171q0 -94 -64 -163q-65 -67 -155 -67t-155 67q-64 69 -64 163q0 101 64 171q65 71 155 71q71 0 128 -46l33 29h-22l-1 1v82l1 1h81l1 -1v-82zM390 231q0 75 -39 121q-39 48 -102 48t-102 -48q-39 -46 -39 -121q0 -80 39 -128
q37 -50 102 -50t102 50q39 48 39 128z" />
    <glyph glyph-name="Uhorn" unicode="&#x1af;" horiz-adv-x="687" 
d="M690 694l-99 -72v-391q0 -105 -72 -179q-71 -74 -174 -74t-177 74t-74 179v463h89v-463q0 -87 44 -142q46 -56 118 -56q74 0 122 56q47 57 47 142v463h77v-32l39 32h-22l-1 1v82l1 1h81l1 -1v-82v-1z" />
    <glyph glyph-name="uhorn" unicode="&#x1b0;" horiz-adv-x="544" 
d="M534 445l-99 -73v-372h-75v48q-64 -59 -176 -59q-54 0 -79 29q-25 30 -25 92v334h78v-334q0 -39 17 -52q19 -14 68 -14q47 0 80.5 30t33.5 72v298h78v-32l39 32h-23l-1 1v82l1 1h82l1 -1v-82z" />
    <glyph glyph-name="Acaron" unicode="&#x1cd;" horiz-adv-x="667" 
d="M638 0h-92l-76 204h-291l-77 -204h-74l261 694h88zM448 260l-91 257q-29 83 -32 105h-1q-6 -33 -59 -181q-25 -72 -32 -91t-33 -90h248zM489 870l-126 -134h-60l-126 134h59l97 -97l97 97h59z" />
    <glyph glyph-name="acaron" unicode="&#x1ce;" horiz-adv-x="481" 
d="M409 0h-75v36q-61 -47 -166 -47q-58 0 -86 40.5t-28 83.5q0 63 78.5 96.5t198.5 35.5v43q0 53 -25 83.5t-62 30.5q-81 0 -151 -50l-6 66q75 43 157 43q70 0 117.5 -48.5t47.5 -123.5v-289zM331 132v62q-205 -10 -205 -79q0 -30 27.5 -47.5t65.5 -17.5q47 0 78 19
q34 19 34 63zM395 697l-125 -172h-60l-125 172h59l96 -123l96 123h59z" />
    <glyph glyph-name="Icaron" unicode="&#x1cf;" horiz-adv-x="278" 
d="M183 0h-89v694h89v-694zM295 870l-126 -134h-60l-126 134h59l97 -97l97 97h59z" />
    <glyph glyph-name="icaron" unicode="&#x1d0;" horiz-adv-x="239" 
d="M156 0h-75v444h75v-444zM274 697l-125 -172h-60l-125 172h59l96 -123l96 123h59z" />
    <glyph glyph-name="Ocaron" unicode="&#x1d1;" horiz-adv-x="736" 
d="M679 345q0 -155 -92.5 -261t-219.5 -106q-125 0 -218 105.5t-93 261.5q0 155 92 263t220 108q126 0 218.5 -108t92.5 -263zM590 360q0 130 -66 211t-157 81q-89 0 -155.5 -80.5t-66.5 -211.5q0 -140 65.5 -228.5t157.5 -88.5q90 0 156 88t66 229zM524 870l-126 -134h-60
l-126 134h59l97 -97l97 97h59z" />
    <glyph glyph-name="ocaron" unicode="&#x1d2;" 
d="M469 220q0 -97 -64.5 -164t-155.5 -67q-89 0 -154 66.5t-65 164.5q0 99 64 170t156 71q90 0 154.5 -70.5t64.5 -170.5zM391 230q0 83 -42 126.5t-100 43.5q-56 0 -98.5 -43t-42.5 -127q0 -85 42 -131t99 -46q59 0 100.5 46.5t41.5 130.5zM405 697l-125 -172h-60l-125 172
h59l96 -123l96 123h59z" />
    <glyph glyph-name="Ucaron" unicode="&#x1d3;" horiz-adv-x="688" 
d="M593 233q0 -108 -72.5 -181.5t-174.5 -73.5q-103 0 -177.5 73.5t-74.5 181.5v461h89v-462q0 -95 48.5 -146.5t115.5 -51.5q68 0 118 52t50 146v462h78v-461zM500 870l-126 -134h-60l-126 134h59l97 -97l97 97h59z" />
    <glyph glyph-name="ucaron" unicode="&#x1d4;" horiz-adv-x="517" 
d="M435 0h-75v48q-67 -59 -173 -59q-59 0 -82.5 30.5t-23.5 89.5v335h78v-331q0 -37 14.5 -53t63.5 -16q51 0 85.5 28.5t34.5 81.5v290h78v-444zM413 697l-125 -172h-60l-125 172h59l96 -123l96 123h59z" />
    <glyph glyph-name="Udieresisacute" unicode="&#x1d7;" horiz-adv-x="688" 
d="M593 233q0 -108 -72.5 -181.5t-174.5 -73.5q-103 0 -177.5 73.5t-74.5 181.5v461h89v-462q0 -95 48.5 -146.5t115.5 -51.5q68 0 118 52t50 146v462h78v-461zM297 736h-80v80h80v-80zM471 736h-80v80h80v-80zM535 990l-197 -122h-89l175 122h111z" />
    <glyph glyph-name="udieresisacute" unicode="&#x1d8;" horiz-adv-x="517" 
d="M435 0h-75v48q-67 -59 -173 -59q-59 0 -82.5 30.5t-23.5 89.5v335h78v-331q0 -37 14.5 -53t63.5 -16q51 0 85.5 28.5t34.5 81.5v290h78v-444zM225 571h-80v80h80v-80zM371 571h-80v80h80v-80zM449 829l-197 -122h-89l175 122h111z" />
    <glyph glyph-name="Udieresiscaron" unicode="&#x1d9;" horiz-adv-x="688" 
d="M593 233q0 -108 -72.5 -181.5t-174.5 -73.5q-103 0 -177.5 73.5t-74.5 181.5v461h89v-462q0 -95 48.5 -146.5t115.5 -51.5q68 0 118 52t50 146v462h78v-461zM297 736h-80v80h80v-80zM471 736h-80v80h80v-80zM500 992l-126 -134h-60l-126 134h59l97 -97l97 97h59z" />
    <glyph glyph-name="udieresiscaron" unicode="&#x1da;" horiz-adv-x="517" 
d="M435 0h-75v48q-67 -59 -173 -59q-59 0 -82.5 30.5t-23.5 89.5v335h78v-331q0 -37 14.5 -53t63.5 -16q51 0 85.5 28.5t34.5 81.5v290h78v-444zM225 571h-80v80h80v-80zM371 571h-80v80h80v-80zM414 831l-126 -134h-60l-126 134h59l97 -97l97 97h59z" />
    <glyph glyph-name="Udieresisgrave" unicode="&#x1db;" horiz-adv-x="688" 
d="M593 233q0 -108 -72.5 -181.5t-174.5 -73.5q-103 0 -177.5 73.5t-74.5 181.5v461h89v-462q0 -95 48.5 -146.5t115.5 -51.5q68 0 118 52t50 146v462h78v-461zM297 736h-80v80h80v-80zM471 736h-80v80h80v-80zM439 868h-89l-197 122h111z" />
    <glyph glyph-name="udieresisgrave" unicode="&#x1dc;" horiz-adv-x="517" 
d="M435 0h-75v48q-67 -59 -173 -59q-59 0 -82.5 30.5t-23.5 89.5v335h78v-331q0 -37 14.5 -53t63.5 -16q51 0 85.5 28.5t34.5 81.5v290h78v-444zM225 571h-80v80h80v-80zM371 571h-80v80h80v-80zM353 707h-89l-197 122h111z" />
    <glyph glyph-name="eturned" unicode="&#x1dd;" horiz-adv-x="444" 
d="M414 224q0 -97 -59 -166t-142 -69q-90 0 -138 73q-40 62 -40 169h309q-2 73 -44.5 121t-102.5 48q-84 0 -152 -56l-6 65q72 52 159 52q90 0 153 -69t63 -168zM339 176h-247q9 -64 43 -95t78 -31q43 0 78.5 35t47.5 91z" />
    <glyph glyph-name="Gcaron" unicode="&#x1e6;" horiz-adv-x="667" 
d="M598 38q-100 -49 -210 -49q-133 0 -228 105q-94 105 -94 253t94 254q95 105 228 105q57 0 104 -11q52 -14 98 -39l-15 -82q-44 37 -88 52q-43 16 -99 16q-96 0 -165 -86q-68 -87 -68 -209q0 -121 68 -208q69 -86 165 -86q69 0 132 21v165h-132v61h210v-262zM489 870
l-126 -134h-60l-126 134h59l97 -97l97 97h59z" />
    <glyph glyph-name="gcaron" unicode="&#x1e7;" 
d="M485 392q-41 3 -59 3q-12 0 -37.5 -2t-36.5 -2l-4 1q33 -45 33 -100q0 -67 -46.5 -115t-113.5 -48q-50 0 -91 29q-11 -14 -11 -36q0 -53 58 -53h88q17 0 29.5 -1t40.5 -4t48.5 -12.5t42 -23.5t33.5 -39.5t12 -58.5q0 -57 -64.5 -96.5t-157.5 -39.5q-92 0 -156.5 39.5
t-64.5 95.5q0 65 64 103q-26 32 -26 76t29 85q-33 43 -33 99q0 68 47 115.5t112 47.5q55 0 95 -32q74 32 158 32zM311 292q0 54 -26.5 80t-63.5 26q-34 0 -61.5 -25t-27.5 -81t27.5 -81t61.5 -25q37 0 63.5 26t26.5 80zM401 -72q0 69 -135 69h-90q-22 0 -38 -7t-23.5 -15.5
t-11.5 -20.5t-4.5 -16.5t-0.5 -8.5q0 -34 44.5 -56t107.5 -22q62 0 106.5 22t44.5 55zM370 697l-125 -172h-60l-125 172h59l96 -123l96 123h59z" />
    <glyph glyph-name="Oogonek" unicode="&#x1ea;" horiz-adv-x="736" 
d="M679 345q0 -140 -76.5 -241.5t-188.5 -121.5q-60 -41 -59 -86q1 -34 53 -38q30 -1 67 14l14 -59q-53 -25 -98 -25q-47 0 -72.5 25t-26.5 60q-4 57 55 106q-119 9 -205 113t-86 253q0 155 92 263t220 108q126 0 218.5 -108t92.5 -263zM590 360q0 130 -66 211t-157 81
q-89 0 -155.5 -80.5t-66.5 -211.5q0 -140 65.5 -228.5t157.5 -88.5q90 0 156 88t66 229z" />
    <glyph glyph-name="oogonek" unicode="&#x1eb;" 
d="M469 220q0 -80 -45.5 -141t-115.5 -82q-84 -48 -83 -101q1 -34 53 -38q30 -1 67 14l14 -59q-53 -25 -98 -25q-47 0 -72.5 25t-26.5 60q-4 66 70 117q-84 7 -143 72t-59 158q0 99 64 170t156 71q90 0 154.5 -70.5t64.5 -170.5zM391 230q0 83 -42 126.5t-100 43.5
q-56 0 -98.5 -43t-42.5 -127q0 -85 42 -131t99 -46q59 0 100.5 46.5t41.5 130.5z" />
    <glyph glyph-name="jcaron" unicode="&#x1f0;" horiz-adv-x="267" 
d="M184 -59q0 -67 -37.5 -106.5t-87.5 -39.5q-62 0 -120 34l21 61q32 -31 74 -31q10 0 20 2t24 8.5t22.5 22.5t8.5 39v513h75v-503zM295 697l-125 -172h-60l-125 172h59l96 -123l96 123h59z" />
    <glyph glyph-name="Gacute" unicode="&#x1f4;" horiz-adv-x="667" 
d="M598 38q-100 -49 -210 -49q-133 0 -228 105q-94 105 -94 253t94 254q95 105 228 105q57 0 104 -11q52 -14 98 -39l-15 -82q-44 37 -88 52q-43 16 -99 16q-96 0 -165 -86q-68 -87 -68 -209q0 -121 68 -208q69 -86 165 -86q69 0 132 21v165h-132v61h210v-262zM524 868
l-197 -122h-89l175 122h111z" />
    <glyph glyph-name="gacute" unicode="&#x1f5;" 
d="M485 392q-41 3 -59 3q-12 0 -37.5 -2t-36.5 -2l-4 1q33 -45 33 -100q0 -67 -46.5 -115t-113.5 -48q-50 0 -91 29q-11 -14 -11 -36q0 -53 58 -53h88q17 0 29.5 -1t40.5 -4t48.5 -12.5t42 -23.5t33.5 -39.5t12 -58.5q0 -57 -64.5 -96.5t-157.5 -39.5q-92 0 -156.5 39.5
t-64.5 95.5q0 65 64 103q-26 32 -26 76t29 85q-33 43 -33 99q0 68 47 115.5t112 47.5q55 0 95 -32q74 32 158 32zM311 292q0 54 -26.5 80t-63.5 26q-34 0 -61.5 -25t-27.5 -81t27.5 -81t61.5 -25q37 0 63.5 26t26.5 80zM401 -72q0 69 -135 69h-90q-22 0 -38 -7t-23.5 -15.5
t-11.5 -20.5t-4.5 -16.5t-0.5 -8.5q0 -34 44.5 -56t107.5 -22q62 0 106.5 22t44.5 55zM356 694l-150 -167h-61l133 167h78z" />
    <glyph glyph-name="Aringacute" unicode="&#x1fa;" horiz-adv-x="667" 
d="M638 0h-92l-76 204h-291l-77 -204h-74l261 694h88zM448 260l-91 257q-29 83 -32 105h-1q-6 -33 -59 -181q-25 -72 -32 -91t-33 -90h248zM383 778q0 37 -50 37t-50 -37t50 -37t50 37zM444 777q0 -33 -32 -58t-79 -25t-79 24.5t-32 60.5q0 33 32 58t79 25t79 -24.5
t32 -60.5zM476 1019l-197 -122h-89l175 122h111z" />
    <glyph glyph-name="aringacute" unicode="&#x1fb;" horiz-adv-x="481" 
d="M409 0h-75v36q-61 -47 -166 -47q-58 0 -86 40.5t-28 83.5q0 63 78.5 96.5t198.5 35.5v43q0 53 -25 83.5t-62 30.5q-81 0 -151 -50l-6 66q75 43 157 43q70 0 117.5 -48.5t47.5 -123.5v-289zM331 132v62q-205 -10 -205 -79q0 -30 27.5 -47.5t65.5 -17.5q47 0 78 19
q34 19 34 63zM290 601q0 37 -50 37t-50 -37t50 -37t50 37zM351 600q0 -33 -32 -58t-79 -25t-79 24.5t-32 60.5q0 33 32 58t79 25t79 -24.5t32 -60.5zM383 842l-197 -122h-89l175 122h111z" />
    <glyph glyph-name="AEacute" unicode="&#x1fc;" horiz-adv-x="861" 
d="M818 0h-399v222h-225l-91 -222h-75l284 694h492v-65h-153q-6 0 -18 0.5t-18 0.5h-108v-239h270v-61h-270v-260h170q6 0 18 0.5t18 0.5h105v-71zM419 278v352h-58l-144 -352h202zM622 868l-197 -122h-89l175 122h111z" />
    <glyph glyph-name="aeacute" unicode="&#x1fd;" horiz-adv-x="722" 
d="M693 219h-293q4 -77 46 -123t98 -46q77 0 138 56l6 -65q-64 -52 -145 -52q-96 0 -163 77q-16 -26 -48.5 -43t-70 -23.5t-59.5 -8.5t-41 -2q-34 0 -58 14.5t-35.5 36.5t-16 40t-4.5 34q0 119 275 133v41q0 54 -25.5 84t-61.5 30q-81 0 -152 -50l-6 66q75 43 157 43
q43 0 81 -20.5t60 -56.5q63 77 152 77q39 0 69.5 -14.5t47.5 -41t28 -51.5t15 -57.5t5 -47t1 -30.5zM634 274q-5 39 -18 66t-29.5 39t-30.5 16.5t-28 4.5q-41 0 -75.5 -34.5t-47.5 -91.5h229zM327 127q0 36 -4 64q-22 0 -50 -2.5t-66 -9.5t-63 -23.5t-25 -40.5
q0 -28 26 -46.5t66 -18.5q13 0 25.5 1.5t36.5 7.5t39 23.5t15 44.5zM502 694l-150 -167h-61l133 167h78z" />
    <glyph glyph-name="Oslashacute" unicode="&#x1fe;" horiz-adv-x="778" 
d="M721 345q0 -154 -98 -260.5t-235 -106.5q-78 0 -153 41l-48 -84l-55 32l51 90q-127 112 -127 288q0 154 98 262.5t235 108.5q74 0 153 -41l48 84l55 -32l-52 -90q51 -42 89.5 -118.5t38.5 -173.5zM509 619q-60 36 -121 36q-100 0 -173.5 -84t-73.5 -226q0 -140 77 -228z
M636 345q0 144 -78 231l-290 -502q58 -35 121 -35q100 0 173.5 82t73.5 224zM580 868l-197 -122h-89l175 122h111z" />
    <glyph glyph-name="oslashacute" unicode="&#x1ff;" 
d="M467 220q0 -97 -64.5 -164t-153.5 -67q-44 0 -86 19l-67 -120l-53 30l69 123q-80 77 -80 179q0 99 64 170t154 71q44 0 88 -20l65 116l53 -30l-68 -121q79 -72 79 -186zM307 387q-26 13 -57 13q-60 0 -101.5 -47.5t-41.5 -132.5q0 -74 37 -121zM392 220q0 78 -37 127
l-161 -286q23 -11 55 -11q59 0 101 44t42 126zM391 694l-150 -167h-61l133 167h78z" />
    <glyph glyph-name="Adblgrave" unicode="&#x200;" horiz-adv-x="667" 
d="M638 0h-92l-76 204h-291l-77 -204h-74l261 694h88zM448 260l-91 257q-29 83 -32 105h-1q-6 -33 -59 -181q-25 -72 -32 -91t-33 -90h248zM448 746h-61l-80 167h78zM281 746h-61l-80 167h78z" />
    <glyph glyph-name="adblgrave" unicode="&#x201;" horiz-adv-x="481" 
d="M409 0h-75v36q-61 -47 -166 -47q-58 0 -86 40.5t-28 83.5q0 63 78.5 96.5t198.5 35.5v43q0 53 -25 83.5t-62 30.5q-81 0 -151 -50l-6 66q75 43 157 43q70 0 117.5 -48.5t47.5 -123.5v-289zM331 132v62q-205 -10 -205 -79q0 -30 27.5 -47.5t65.5 -17.5q47 0 78 19
q34 19 34 63zM382 527h-61l-80 167h78zM215 527h-61l-80 167h78z" />
    <glyph glyph-name="Edblgrave" unicode="&#x204;" horiz-adv-x="597" 
d="M554 0h-460v691h446v-65h-183q-6 0 -18 0.5t-18 0.5h-138v-237h330v-61h-330v-259h209q6 0 18 0.5t18 0.5h126v-71zM441 746h-61l-80 167h78zM274 746h-61l-80 167h78z" />
    <glyph glyph-name="edblgrave" unicode="&#x205;" horiz-adv-x="444" 
d="M414 219h-309q2 -73 44.5 -121t102.5 -48q84 0 152 56l6 -65q-72 -52 -159 -52q-90 0 -153 69t-63 168q0 97 59 166t142 69q90 0 138 -73q40 -62 40 -169zM357 274q-9 64 -43 95t-78 31q-43 0 -78.5 -35t-47.5 -91h247zM364 527h-61l-80 167h78zM197 527h-61l-80 167h78z
" />
    <glyph glyph-name="Idblgrave" unicode="&#x208;" horiz-adv-x="278" 
d="M183 0h-89v694h89v-694zM281 746h-61l-80 167h78zM114 746h-61l-80 167h78z" />
    <glyph glyph-name="idblgrave" unicode="&#x209;" horiz-adv-x="239" 
d="M156 0h-75v444h75v-444zM261 527h-61l-80 167h78zM94 527h-61l-80 167h78z" />
    <glyph glyph-name="Odblgrave" unicode="&#x20c;" horiz-adv-x="736" 
d="M679 345q0 -155 -92.5 -261t-219.5 -106q-125 0 -218 105.5t-93 261.5q0 155 92 263t220 108q126 0 218.5 -108t92.5 -263zM590 360q0 130 -66 211t-157 81q-89 0 -155.5 -80.5t-66.5 -211.5q0 -140 65.5 -228.5t157.5 -88.5q90 0 156 88t66 229zM510 746h-61l-80 167h78
zM343 746h-61l-80 167h78z" />
    <glyph glyph-name="odblgrave" unicode="&#x20d;" 
d="M469 220q0 -97 -64.5 -164t-155.5 -67q-89 0 -154 66.5t-65 164.5q0 99 64 170t156 71q90 0 154.5 -70.5t64.5 -170.5zM391 230q0 83 -42 126.5t-100 43.5q-56 0 -98.5 -43t-42.5 -127q0 -85 42 -131t99 -46q59 0 100.5 46.5t41.5 130.5zM392 527h-61l-80 167h78z
M225 527h-61l-80 167h78z" />
    <glyph glyph-name="Rdblgrave" unicode="&#x210;" horiz-adv-x="646" 
d="M617 0h-89l-188 317h-158v-317h-86v694h241q106 0 179 -55.5t73 -130.5q0 -61 -46.5 -110t-123.5 -72zM508 508q0 55 -49 92.5t-133 37.5h-144v-260h144q85 0 133.5 37t48.5 93zM437 746h-61l-80 167h78zM270 746h-61l-80 167h78z" />
    <glyph glyph-name="rdblgrave" unicode="&#x211;" horiz-adv-x="342" 
d="M327 388q-74 -2 -122 -50.5t-48 -123.5v-214h-75v450h70v-91q64 95 175 96v-67zM313 527h-61l-80 167h78zM146 527h-61l-80 167h78z" />
    <glyph glyph-name="Udblgrave" unicode="&#x214;" horiz-adv-x="688" 
d="M593 233q0 -108 -72.5 -181.5t-174.5 -73.5q-103 0 -177.5 73.5t-74.5 181.5v461h89v-462q0 -95 48.5 -146.5t115.5 -51.5q68 0 118 52t50 146v462h78v-461zM486 746h-61l-80 167h78zM319 746h-61l-80 167h78z" />
    <glyph glyph-name="udblgrave" unicode="&#x215;" horiz-adv-x="517" 
d="M435 0h-75v48q-67 -59 -173 -59q-59 0 -82.5 30.5t-23.5 89.5v335h78v-331q0 -37 14.5 -53t63.5 -16q51 0 85.5 28.5t34.5 81.5v290h78v-444zM400 527h-61l-80 167h78zM233 527h-61l-80 167h78z" />
    <glyph glyph-name="uni0218" unicode="&#x218;" horiz-adv-x="556" 
d="M499 189q0 -85 -64 -148t-160 -63q-121 0 -231 69l15 81q96 -81 215 -81q65 0 105.5 40t40.5 92q0 57 -42 93q-21 18 -39.5 25.5t-83.5 23.5q-53 13 -84.5 26.5t-60.5 44.5q-54 57 -54 127q0 78 63 137.5t163 59.5t183 -50l-15 -80q-76 64 -169 64q-66 0 -106 -36
t-40 -83q0 -49 35 -79q21 -18 39 -25.5t65 -18.5q76 -19 107.5 -33t64.5 -49q53 -58 53 -137zM315 -153l-37 -113h-37l22 112h-22v75h74v-74z" />
    <glyph glyph-name="uni0219" unicode="&#x219;" horiz-adv-x="383" 
d="M360 128q0 -70 -48 -107q-43 -32 -116 -32q-80 0 -168 44l12 68q73 -49 155 -49q94 0 94 69q0 15 -7 27t-15.5 19t-23.5 13t-24 8t-24 5q-34 7 -47 10t-29.5 9.5t-31.5 17.5q-54 41 -54 100q0 37 15.5 63.5t35 39t47 19.5t40.5 8t28 1q75 0 144 -32l-12 -65
q-64 38 -142 38q-85 0 -85 -62q0 -14 6 -25t13.5 -17.5t23 -12t26.5 -8.5t32 -7q43 -8 66 -17t50 -33l3 -4q4 -4 8 -9t9 -13.5t9 -18t7 -22t3 -25.5zM229 -153l-37 -113h-37l22 112h-22v75h74v-74z" />
    <glyph glyph-name="uni021A" unicode="&#x21a;" horiz-adv-x="681" 
d="M644 623h-134q-6 0 -18 0.5t-18 0.5h-89v-624h-89v624h-90q-6 0 -18 -0.5t-18 -0.5h-134v65h608v-65zM377 -153l-37 -113h-37l22 112h-22v75h74v-74z" />
    <glyph glyph-name="uni021B" unicode="&#x21b;" horiz-adv-x="361" 
d="M332 27q-73 -38 -146 -38q-83 0 -83 130v267h-84v58h87v127h69v-127h141v-58h-141v-250q0 -83 51 -83q49 0 90 33zM218 -153l-37 -113h-37l22 112h-22v75h74v-74z" />
    <glyph glyph-name="uni0237" unicode="&#x237;" horiz-adv-x="267" 
d="M184 -59q0 -67 -37.5 -106.5t-87.5 -39.5q-62 0 -120 34l21 61q32 -31 74 -31q10 0 20 2t24 8.5t22.5 22.5t8.5 39v513h75v-503z" />
    <glyph glyph-name="ereversed" unicode="&#x258;" horiz-adv-x="444" 
d="M414 226q0 -99 -63 -168t-153 -69q-87 0 -159 52l6 65q68 -56 152 -56q60 0 102.5 48t44.5 121h-309q0 107 40 169q48 73 138 73q83 0 142 -69t59 -166zM339 274q-12 56 -47.5 91t-78.5 35q-44 0 -78 -31t-43 -95h247z" />
    <glyph glyph-name="schwa" unicode="&#x259;" horiz-adv-x="444" 
d="M414 224q0 -97 -59 -166t-142 -69q-90 0 -138 73q-40 62 -40 169h309q-2 73 -44.5 121t-102.5 48q-84 0 -152 -56l-6 65q72 52 159 52q90 0 153 -69t63 -168zM339 176h-247q9 -64 43 -95t78 -31q43 0 78.5 35t47.5 91z" />
    <glyph glyph-name="ringhalfright" unicode="&#x2be;" horiz-adv-x="396" 
d="M340 464q0 -70 -45 -123.5t-119 -53.5q-59 0 -114 31q-3 2 -3 5v2l9 46q0 5 6 5q2 0 3 -1q46 -30 98 -30q49 0 73 36t24 83q0 50 -26 83t-68 33q-60 0 -108 -38q-1 -1 -4 -1q-6 0 -6 5l-4 49q0 3 2 5q56 38 121 38q69 0 115 -51.5t46 -122.5z" />
    <glyph glyph-name="ringhalfleft" unicode="&#x2bf;" horiz-adv-x="396" 
d="M340 330q0 -3 -2 -5q-56 -38 -121 -38q-69 0 -115 51.5t-46 122.5q0 70 45 123.5t119 53.5q59 0 114 -31q3 -1 3 -5v-2l-9 -46q0 -5 -6 -5q-2 0 -3 1q-46 30 -98 30q-49 0 -73 -36t-24 -83q0 -50 26 -83t68 -33q60 0 108 38q1 1 4 1q6 0 6 -5z" />
    <glyph glyph-name="circumflex" unicode="&#x2c6;" 
d="M405 525h-59l-96 123l-96 -123h-59l125 172h60z" />
    <glyph glyph-name="caron" unicode="&#x2c7;" 
d="M405 697l-125 -172h-60l-125 172h59l96 -123l96 123h59z" />
    <glyph glyph-name="breve" unicode="&#x2d8;" 
d="M419 700q-1 -77 -51 -127.5t-118 -50.5q-67 0 -117 50t-51 128h61q1 -51 34 -81t74 -30q40 0 73 29.5t34 81.5h61z" />
    <glyph glyph-name="dotaccent" unicode="&#x2d9;" horiz-adv-x="278" 
d="M183 566h-89v89h89v-89z" />
    <glyph glyph-name="ring" unicode="&#x2da;" horiz-adv-x="667" 
d="M383 601q0 37 -50 37t-50 -37t50 -37t50 37zM444 600q0 -33 -32 -58t-79 -25t-79 24.5t-32 60.5q0 33 32 58t79 25t79 -24.5t32 -60.5z" />
    <glyph glyph-name="ogonek" unicode="&#x2db;" 
d="M349 -187q-53 -25 -98 -25q-47 0 -72.5 25t-26.5 60q-2 37 22.5 71t64.5 56h64q-89 -50 -88 -104q1 -34 53 -38q30 -1 67 14z" />
    <glyph glyph-name="tilde" unicode="&#x2dc;" 
d="M417 670q-1 -55 -30.5 -87t-67.5 -32q-27 0 -64 25q-47 33 -71 33q-37 0 -39 -58h-61q1 55 30.5 87t67.5 32q27 0 64 -25q47 -33 71 -33q37 0 39 58h61z" />
    <glyph glyph-name="hungarumlaut" unicode="&#x2dd;" 
d="M249 694l-80 -167h-61l63 167h78zM416 694l-80 -167h-61l63 167h78z" />
    <glyph glyph-name="uni0300" unicode="&#x300;" horiz-adv-x="0" 
d="M-170 527h-61l-150 167h78z" />
    <glyph glyph-name="uni0301" unicode="&#x301;" horiz-adv-x="0" 
d="M-99 694l-150 -167h-61l133 167h78z" />
    <glyph glyph-name="uni0302" unicode="&#x302;" horiz-adv-x="0" 
d="M-85 525h-59l-96 123l-96 -123h-59l125 172h60z" />
    <glyph glyph-name="uni0303" unicode="&#x303;" horiz-adv-x="0" 
d="M-73 670q-1 -55 -30.5 -87t-67.5 -32q-27 0 -64 25q-47 33 -71 33q-37 0 -39 -58h-61q1 55 30.5 87t67.5 32q27 0 64 -25q47 -33 71 -33q37 0 39 58h61z" />
    <glyph glyph-name="uni0304" unicode="&#x304;" horiz-adv-x="0" 
d="M-59 579h-361v64h361v-64z" />
    <glyph glyph-name="uni0306" unicode="&#x306;" horiz-adv-x="0" 
d="M-71 700q-1 -77 -51 -127.5t-118 -50.5q-67 0 -117 50t-51 128h61q1 -51 34 -81t74 -30q40 0 73 29.5t34 81.5h61z" />
    <glyph glyph-name="uni0307" unicode="&#x307;" horiz-adv-x="0" 
d="M-196 566h-89v89h89v-89z" />
    <glyph glyph-name="uni0308" unicode="&#x308;" horiz-adv-x="0" 
d="M-273 571h-80v80h80v-80zM-127 571h-80v80h80v-80z" />
    <glyph glyph-name="uni0309" unicode="&#x309;" horiz-adv-x="0" 
d="M-143 640q0 -33 -27 -50q-4 -3 -13 -9q-28 -17 -39 -29t-11 -29v-19l-1 -1h-26l-1 1v19q0 67 54 96q14 9 14 21q0 21 -12 30q-14 9 -42 9q-50 0 -74 -44h-1h-1l-14 40q34 43 90 43q50 0 77 -20t27 -58z" />
    <glyph glyph-name="uni030A" unicode="&#x30a;" horiz-adv-x="0" 
d="M-191 601q0 37 -50 37t-50 -37t50 -37t50 37zM-130 600q0 -33 -32 -58t-79 -25t-79 24.5t-32 60.5q0 33 32 58t79 25t79 -24.5t32 -60.5z" />
    <glyph glyph-name="uni030B" unicode="&#x30b;" horiz-adv-x="0" 
d="M-241 694l-80 -167h-61l63 167h78zM-74 694l-80 -167h-61l63 167h78z" />
    <glyph glyph-name="uni030C" unicode="&#x30c;" horiz-adv-x="0" 
d="M-85 697l-125 -172h-60l-125 172h59l96 -123l96 123h59z" />
    <glyph glyph-name="uni030F" unicode="&#x30f;" horiz-adv-x="0" 
d="M-98 527h-61l-80 167h78zM-265 527h-61l-80 167h78z" />
    <glyph glyph-name="uni0311" unicode="&#x311;" horiz-adv-x="0" 
d="M-71 522h-61q-1 51 -34 81t-74 30q-40 0 -73 -29.5t-34 -81.5h-61q1 77 51 127.5t118 50.5q67 0 117 -50t51 -128z" />
    <glyph glyph-name="uni0323" unicode="&#x323;" horiz-adv-x="0" 
d="M-196 -200h-89v89h89v-89z" />
    <glyph glyph-name="uni0326" unicode="&#x326;" horiz-adv-x="0" 
d="M-203 -153l-37 -113h-37l22 112h-22v75h74v-74z" />
    <glyph glyph-name="uni032E" unicode="&#x32e;" horiz-adv-x="0" 
d="M-71 -66q-1 -77 -51 -127.5t-118 -50.5q-67 0 -117 50t-51 128h61q1 -51 34 -81t74 -30q40 0 73 29.5t34 81.5h61z" />
    <glyph glyph-name="uni032F" unicode="&#x32f;" horiz-adv-x="0" 
d="M-71 -244h-61q-1 51 -34 81t-74 30q-40 0 -73 -29.5t-34 -81.5h-61q1 77 51 127.5t118 50.5q67 0 117 -50t51 -128z" />
    <glyph glyph-name="uni0330" unicode="&#x330;" horiz-adv-x="0" 
d="M-73 -95q-1 -55 -30.5 -87t-67.5 -32q-27 0 -64 25q-47 33 -71 33q-37 0 -39 -58h-61q1 55 30.5 87t67.5 32q27 0 64 -25q47 -33 71 -33q37 0 39 58h61z" />
    <glyph glyph-name="uni0331" unicode="&#x331;" horiz-adv-x="0" 
d="M-59 -187h-361v64h361v-64z" />
    <glyph glyph-name="uni0332" unicode="&#x332;" horiz-adv-x="0" 
d="M-59 -187h-361v64h361v-64z" />
    <glyph glyph-name="Alpha" unicode="&#x391;" horiz-adv-x="667" 
d="M638 0h-92l-76 204h-291l-77 -204h-74l261 694h88zM448 260l-91 257q-29 83 -32 105h-1q-6 -33 -59 -181q-25 -72 -32 -91t-33 -90h248z" />
    <glyph glyph-name="Beta" unicode="&#x392;" horiz-adv-x="667" 
d="M610 188q0 -75 -71.5 -131.5t-177.5 -56.5h-264v694h237q105 0 177 -52t72 -122q0 -55 -47 -97t-119 -60q81 -13 137 -62t56 -113zM505 519q0 50 -58 84.5t-141 34.5h-126v-247h116q97 0 153 39t56 89zM529 189q0 59 -61.5 100t-142.5 41h-145v-274h153q81 0 138.5 38.5
t57.5 94.5z" />
    <glyph glyph-name="Gamma" unicode="&#x393;" horiz-adv-x="542" 
d="M499 626h-162q-6 0 -18 0.5t-18 0.5h-118v-627h-89v691h405v-65z" />
    <glyph glyph-name="Delta" unicode="&#x394;" horiz-adv-x="833" 
d="M790 0h-748l329 694h90zM652 83l-182 391q-56 120 -65 151q-12 -40 -104 -237l-143 -305h494z" />
    <glyph glyph-name="Epsilon" unicode="&#x395;" horiz-adv-x="597" 
d="M554 0h-460v691h446v-65h-183q-6 0 -18 0.5t-18 0.5h-138v-237h330v-61h-330v-259h209q6 0 18 0.5t18 0.5h126v-71z" />
    <glyph glyph-name="Zeta" unicode="&#x396;" horiz-adv-x="611" 
d="M560 0h-504v43l385 590h-136q-6 0 -18 -0.5t-18 -0.5h-200v62h485v-41l-385 -589h32l263 2h96v-66z" />
    <glyph glyph-name="Eta" unicode="&#x397;" horiz-adv-x="708" 
d="M613 0h-89v330h-341v-330h-89v694h89v-303h341v303h89v-694z" />
    <glyph glyph-name="Theta" unicode="&#x398;" horiz-adv-x="778" 
d="M721 345q0 -154 -98 -260.5t-235 -106.5q-135 0 -233.5 106t-98.5 261q0 154 98 262.5t235 108.5q136 0 234 -108t98 -263zM638 345q0 134 -73.5 222t-176.5 88q-101 0 -175 -87.5t-74 -222.5q0 -134 73.5 -219.5t176.5 -85.5q100 0 174.5 85t74.5 220zM581 306h-385v83
h385v-83z" />
    <glyph glyph-name="Iota" unicode="&#x399;" horiz-adv-x="278" 
d="M183 0h-89v694h89v-694z" />
    <glyph glyph-name="Kappa" unicode="&#x39a;" horiz-adv-x="694" 
d="M651 0h-92l-245 364l-133 -137v-227h-85v694h85v-371l363 371h93l-268 -274z" />
    <glyph glyph-name="Lambda" unicode="&#x39b;" horiz-adv-x="611" 
d="M582 0h-94l-101 304l-51 160q-35 119 -41 157h-1q-6 -61 -94 -325l-98 -296h-74l233 694h88z" />
    <glyph glyph-name="Mu" unicode="&#x39c;" horiz-adv-x="875" 
d="M774 0h-78v620l-1 1q-1 -6 -42 -124l-48 -127l-133 -348h-73l-148 389q-64 168 -72 209h-1v-620h-78v694h113l34 -87l157 -414q25 -69 32 -100h1q12 52 93 262l130 339h114v-694z" />
    <glyph glyph-name="Nu" unicode="&#x39d;" horiz-adv-x="708" 
d="M611 0h-124l-245 486l-67 137h-1v-623h-78v694h124l245 -486l67 -137h1v623h78v-694z" />
    <glyph glyph-name="Xi" unicode="&#x39e;" horiz-adv-x="667" 
d="M619 613h-125l-161 1l-161 -1h-125v75h572v-75zM624 0h-582v75h128l163 -1l163 1h128v-75zM555 321h-444v74h444v-74z" />
    <glyph glyph-name="Omicron" unicode="&#x39f;" horiz-adv-x="736" 
d="M679 345q0 -155 -92.5 -261t-219.5 -106q-125 0 -218 105.5t-93 261.5q0 155 92 263t220 108q126 0 218.5 -108t92.5 -263zM590 360q0 130 -66 211t-157 81q-89 0 -155.5 -80.5t-66.5 -211.5q0 -140 65.5 -228.5t157.5 -88.5q90 0 156 88t66 229z" />
    <glyph glyph-name="Pi" unicode="&#x3a0;" horiz-adv-x="708" 
d="M613 0h-89v630h-341v-630h-89v691h519v-691z" />
    <glyph glyph-name="Rho" unicode="&#x3a1;" horiz-adv-x="639" 
d="M582 492q0 -84 -68 -143.5t-162 -59.5h-167v-289h-89v694h249q101 0 169 -60t68 -142zM501 492q0 65 -48.5 105.5t-129.5 40.5h-141v-291h141q83 0 130.5 41.5t47.5 103.5z" />
    <glyph glyph-name="Sigma" unicode="&#x3a3;" horiz-adv-x="722" 
d="M665 0h-609l231 335l-231 295v64h609v-65h-258q-6 0 -18 0.5t-18 0.5h-202l222 -283l-192 -278h190q6 0 18 0.5t18 0.5h240v-70z" />
    <glyph glyph-name="Tau" unicode="&#x3a4;" horiz-adv-x="681" 
d="M644 623h-134q-6 0 -18 0.5t-18 0.5h-89v-624h-89v624h-90q-6 0 -18 -0.5t-18 -0.5h-134v65h608v-65z" />
    <glyph glyph-name="Upsilon" unicode="&#x3a5;" horiz-adv-x="778" 
d="M721 555h-78q-2 42 -24 68t-58 26q-59 0 -93.5 -58t-34.5 -211v-380h-89v380q0 149 -33.5 209t-94.5 60q-35 0 -57.5 -26.5t-24.5 -67.5h-78q1 72 48.5 116.5t109.5 44.5q140 0 174 -222h1q30 222 174 222q62 0 109.5 -44.5t48.5 -116.5z" />
    <glyph glyph-name="Phi" unicode="&#x3a6;" horiz-adv-x="722" 
d="M665 347q0 -88 -73 -158t-193 -83v-106h-83v107q-109 11 -184.5 80t-75.5 160t75 160t185 80v107h83v-106q120 -13 193 -83t73 -158zM316 168v358q-78 -11 -126 -60.5t-48 -118.5t47.5 -118.5t126.5 -60.5zM579 347q0 67 -47.5 117.5t-132.5 62.5v-360q84 11 132 61.5
t48 118.5z" />
    <glyph glyph-name="Chi" unicode="&#x3a7;" horiz-adv-x="667" 
d="M652 0h-104l-222 306l-216 -306h-96l269 366l-255 328h104l194 -261l188 261h96l-241 -328z" />
    <glyph glyph-name="Psi" unicode="&#x3a8;" horiz-adv-x="778" 
d="M721 552q-69 -5 -69 -126q0 -289 -225 -319v-107h-83v107q-64 9 -109 40.5t-67.5 76.5t-32.5 88.5t-10 91.5q0 31 -2 53t-8.5 45t-21 36t-37.5 14v61h73q47 0 63 -39.5t16 -151.5q0 -216 136 -252v524h83v-524q34 8 59.5 26t40 43.5t24 49t13 56t4.5 50.5t1 45
q0 59 6 95.5t18 52.5t24 20.5t31 4.5h73v-61z" />
    <glyph glyph-name="Omega" unicode="&#x3a9;" horiz-adv-x="722" 
d="M677 0h-245q1 55 17.5 103.5t53.5 124.5q24 52 37 81t24.5 72t11.5 80q0 84 -61.5 139t-154.5 55q-91 0 -153 -55t-62 -139q0 -39 13.5 -85t26.5 -76t40 -84q62 -128 64 -216h-245v71h85q6 0 18 -0.5t18 -0.5h53q-13 54 -69 149q-33 55 -49 85.5t-30 74t-14 83.5
q0 105 88.5 179.5t216.5 74.5q127 0 215.5 -74.5t88.5 -179.5q0 -39 -14 -83t-28.5 -71.5t-41.5 -72.5q-64 -108 -78 -165h53q6 0 18 0.5t18 0.5h85v-71z" />
    <glyph glyph-name="baht" unicode="&#xe3f;" horiz-adv-x="667" 
d="M610 188q0 -75 -71.5 -131.5t-177.5 -56.5h-4v-64h-64v64h-196v694h196v64h64v-65q97 -6 161.5 -56.5t64.5 -116.5q0 -55 -47 -97t-119 -60q81 -13 137 -62t56 -113zM505 519q0 41 -41.5 73t-106.5 42v-238q70 12 109 47.5t39 75.5zM293 391v247h-113v-247h113zM529 189
q0 53 -50 92t-122 47v-271q73 6 122.5 43.5t49.5 88.5zM293 56v274h-113v-274h113z" />
    <glyph glyph-name="Ddotbelow" unicode="&#x1e0c;" horiz-adv-x="722" 
d="M665 341q0 -142 -89.5 -241.5t-216.5 -99.5h-263v694h262q128 0 217.5 -103.5t89.5 -249.5zM579 341q0 131 -69 214t-175 83h-153v-582h153q106 0 175 79.5t69 205.5zM303 -200h-89v89h89v-89z" />
    <glyph glyph-name="ddotbelow" unicode="&#x1e0d;" horiz-adv-x="517" 
d="M434 0h-78v52q-65 -63 -148 -63q-72 0 -122 67.5t-50 165.5q0 97 51.5 165t125.5 68q80 0 146 -55v294h75v-694zM356 139v200q-38 55 -97 55q-55 0 -100 -42t-45 -131q0 -86 40.5 -128.5t94.5 -42.5q42 0 74 28q33 30 33 61zM302 -200h-89v89h89v-89z" />
    <glyph glyph-name="Dlinebelow" unicode="&#x1e0e;" horiz-adv-x="722" 
d="M665 341q0 -142 -89.5 -241.5t-216.5 -99.5h-263v694h262q128 0 217.5 -103.5t89.5 -249.5zM579 341q0 131 -69 214t-175 83h-153v-582h153q106 0 175 79.5t69 205.5zM440 -187h-361v64h361v-64z" />
    <glyph glyph-name="dlinebelow" unicode="&#x1e0f;" horiz-adv-x="517" 
d="M434 0h-78v52q-65 -63 -148 -63q-72 0 -122 67.5t-50 165.5q0 97 51.5 165t125.5 68q80 0 146 -55v294h75v-694zM356 139v200q-38 55 -97 55q-55 0 -100 -42t-45 -131q0 -86 40.5 -128.5t94.5 -42.5q42 0 74 28q33 30 33 61zM439 -187h-361v64h361v-64z" />
    <glyph glyph-name="Hdotbelow" unicode="&#x1e24;" horiz-adv-x="708" 
d="M613 0h-89v330h-341v-330h-89v694h89v-303h341v303h89v-694zM398 -200h-89v89h89v-89z" />
    <glyph glyph-name="hdotbelow" unicode="&#x1e25;" horiz-adv-x="517" 
d="M435 0h-78v291q0 14 -0.5 23.5t-6 26t-15 27t-29 18.5t-46.5 8q-52 0 -76.5 -45t-24.5 -104v-245h-78v694h75v-311q56 72 142 72q137 0 137 -157v-298zM302 -200h-89v89h89v-89z" />
    <glyph glyph-name="Hdieresis" unicode="&#x1e26;" horiz-adv-x="708" 
d="M613 0h-89v330h-341v-330h-89v694h89v-303h341v303h89v-694zM307 736h-80v80h80v-80zM481 736h-80v80h80v-80z" />
    <glyph glyph-name="hdieresis" unicode="&#x1e27;" horiz-adv-x="517" 
d="M435 0h-78v291q0 14 -0.5 23.5t-6 26t-15 27t-29 18.5t-46.5 8q-52 0 -76.5 -45t-24.5 -104v-245h-78v694h75v-311q56 72 142 72q137 0 137 -157v-298zM211 736h-80v80h80v-80zM385 736h-80v80h80v-80z" />
    <glyph glyph-name="Hbrevebelow" unicode="&#x1e2a;" horiz-adv-x="708" 
d="M613 0h-89v330h-341v-330h-89v694h89v-303h341v303h89v-694zM523 -66q-1 -77 -51 -127.5t-118 -50.5q-67 0 -117 50t-51 128h61q1 -51 34 -81t74 -30q40 0 73 29.5t34 81.5h61z" />
    <glyph glyph-name="hbrevebelow" unicode="&#x1e2b;" horiz-adv-x="517" 
d="M435 0h-78v291q0 14 -0.5 23.5t-6 26t-15 27t-29 18.5t-46.5 8q-52 0 -76.5 -45t-24.5 -104v-245h-78v694h75v-311q56 72 142 72q137 0 137 -157v-298zM427 -66q-1 -77 -51 -127.5t-118 -50.5q-67 0 -117 50t-51 128h61q1 -51 34 -81t74 -30q40 0 73 29.5t34 81.5h61z
" />
    <glyph glyph-name="Idieresisacute" unicode="&#x1e2e;" horiz-adv-x="278" 
d="M183 0h-89v694h89v-694zM92 736h-80v80h80v-80zM266 736h-80v80h80v-80zM330 990l-197 -122h-89l175 122h111z" />
    <glyph glyph-name="idieresisacute" unicode="&#x1e2f;" horiz-adv-x="239" 
d="M156 0h-75v444h75v-444zM86 571h-80v80h80v-80zM232 571h-80v80h80v-80zM310 829l-197 -122h-89l175 122h111z" />
    <glyph glyph-name="Ldotbelow" unicode="&#x1e36;" horiz-adv-x="542" 
d="M499 0h-405v694h89v-630h49l267 2v-66zM315 -200h-89v89h89v-89z" />
    <glyph glyph-name="ldotbelow" unicode="&#x1e37;" horiz-adv-x="239" 
d="M156 0h-75v694h75v-694zM164 -200h-89v89h89v-89z" />
    <glyph glyph-name="Ldotbelowmacron" unicode="&#x1e38;" horiz-adv-x="542" 
d="M499 0h-405v694h89v-630h49l267 2v-66zM315 -200h-89v89h89v-89zM320 756h-361v64h361v-64z" />
    <glyph glyph-name="ldotbelowmacron" unicode="&#x1e39;" horiz-adv-x="239" 
d="M156 0h-75v694h75v-694zM164 -200h-89v89h89v-89zM312 756h-361v64h361v-64z" />
    <glyph glyph-name="Mdotbelow" unicode="&#x1e42;" horiz-adv-x="875" 
d="M774 0h-78v620l-1 1q-1 -6 -42 -124l-48 -127l-133 -348h-73l-148 389q-64 168 -72 209h-1v-620h-78v694h113l34 -87l157 -414q25 -69 32 -100h1q12 52 93 262l130 339h114v-694zM482 -200h-89v89h89v-89z" />
    <glyph glyph-name="mdotbelow" unicode="&#x1e43;" horiz-adv-x="794" 
d="M713 0h-78v291q0 19 -2.5 33t-11 32t-30 28t-54.5 10q-51 0 -76 -45t-25 -104v-245h-78v291q0 19 -2.5 33t-11 32t-30 28t-54.5 10q-51 0 -76 -45t-25 -104v-245h-78v450h72v-72q58 77 146 77q100 0 128 -82q56 82 149 82q137 0 137 -157v-298zM441 -200h-89v89h89v-89z
" />
    <glyph glyph-name="Ndotaccent" unicode="&#x1e44;" horiz-adv-x="708" 
d="M611 0h-124l-245 486l-67 137h-1v-623h-78v694h124l245 -486l67 -137h1v623h78v-694zM398 736h-89v89h89v-89z" />
    <glyph glyph-name="ndotaccent" unicode="&#x1e45;" horiz-adv-x="517" 
d="M435 0h-78v291q0 14 -0.5 23.5t-6 26t-15 27t-29 18.5t-46.5 8q-52 0 -76.5 -45t-24.5 -104v-245h-78v450h72v-71q57 76 145 76q137 0 137 -157v-298zM302 566h-89v89h89v-89z" />
    <glyph glyph-name="Ndotbelow" unicode="&#x1e46;" horiz-adv-x="708" 
d="M611 0h-124l-245 486l-67 137h-1v-623h-78v694h124l245 -486l67 -137h1v623h78v-694zM398 -200h-89v89h89v-89z" />
    <glyph glyph-name="ndotbelow" unicode="&#x1e47;" horiz-adv-x="517" 
d="M435 0h-78v291q0 14 -0.5 23.5t-6 26t-15 27t-29 18.5t-46.5 8q-52 0 -76.5 -45t-24.5 -104v-245h-78v450h72v-71q57 76 145 76q137 0 137 -157v-298zM302 -200h-89v89h89v-89z" />
    <glyph glyph-name="Rdotaccent" unicode="&#x1e58;" horiz-adv-x="646" 
d="M617 0h-89l-188 317h-158v-317h-86v694h241q106 0 179 -55.5t73 -130.5q0 -61 -46.5 -110t-123.5 -72zM508 508q0 55 -49 92.5t-133 37.5h-144v-260h144q85 0 133.5 37t48.5 93zM367 736h-89v89h89v-89z" />
    <glyph glyph-name="rdotaccent" unicode="&#x1e59;" horiz-adv-x="342" 
d="M327 388q-74 -2 -122 -50.5t-48 -123.5v-214h-75v450h70v-91q64 95 175 96v-67zM215 566h-89v89h89v-89z" />
    <glyph glyph-name="Rdotbelow" unicode="&#x1e5a;" horiz-adv-x="646" 
d="M617 0h-89l-188 317h-158v-317h-86v694h241q106 0 179 -55.5t73 -130.5q0 -61 -46.5 -110t-123.5 -72zM508 508q0 55 -49 92.5t-133 37.5h-144v-260h144q85 0 133.5 37t48.5 93zM367 -200h-89v89h89v-89z" />
    <glyph glyph-name="rdotbelow" unicode="&#x1e5b;" horiz-adv-x="342" 
d="M327 388q-74 -2 -122 -50.5t-48 -123.5v-214h-75v450h70v-91q64 95 175 96v-67zM164 -200h-89v89h89v-89z" />
    <glyph glyph-name="Rdotbelowmacron" unicode="&#x1e5c;" horiz-adv-x="646" 
d="M617 0h-89l-188 317h-158v-317h-86v694h241q106 0 179 -55.5t73 -130.5q0 -61 -46.5 -110t-123.5 -72zM508 508q0 55 -49 92.5t-133 37.5h-144v-260h144q85 0 133.5 37t48.5 93zM367 -200h-89v89h89v-89zM504 756h-361v64h361v-64z" />
    <glyph glyph-name="rdotbelowmacron" unicode="&#x1e5d;" horiz-adv-x="342" 
d="M327 388q-74 -2 -122 -50.5t-48 -123.5v-214h-75v450h70v-91q64 95 175 96v-67zM164 -200h-89v89h89v-89zM352 579h-361v64h361v-64z" />
    <glyph glyph-name="Sdotbelow" unicode="&#x1e62;" horiz-adv-x="556" 
d="M499 189q0 -85 -64 -148t-160 -63q-121 0 -231 69l15 81q96 -81 215 -81q65 0 105.5 40t40.5 92q0 57 -42 93q-21 18 -39.5 25.5t-83.5 23.5q-53 13 -84.5 26.5t-60.5 44.5q-54 57 -54 127q0 78 63 137.5t163 59.5t183 -50l-15 -80q-76 64 -169 64q-66 0 -106 -36
t-40 -83q0 -49 35 -79q21 -18 39 -25.5t65 -18.5q76 -19 107.5 -33t64.5 -49q53 -58 53 -137zM322 -200h-89v89h89v-89z" />
    <glyph glyph-name="sdotbelow" unicode="&#x1e63;" horiz-adv-x="383" 
d="M360 128q0 -70 -48 -107q-43 -32 -116 -32q-80 0 -168 44l12 68q73 -49 155 -49q94 0 94 69q0 15 -7 27t-15.5 19t-23.5 13t-24 8t-24 5q-34 7 -47 10t-29.5 9.5t-31.5 17.5q-54 41 -54 100q0 37 15.5 63.5t35 39t47 19.5t40.5 8t28 1q75 0 144 -32l-12 -65
q-64 38 -142 38q-85 0 -85 -62q0 -14 6 -25t13.5 -17.5t23 -12t26.5 -8.5t32 -7q43 -8 66 -17t50 -33l3 -4q4 -4 8 -9t9 -13.5t9 -18t7 -22t3 -25.5zM236 -200h-89v89h89v-89z" />
    <glyph glyph-name="Tdotbelow" unicode="&#x1e6c;" horiz-adv-x="681" 
d="M644 623h-134q-6 0 -18 0.5t-18 0.5h-89v-624h-89v624h-90q-6 0 -18 -0.5t-18 -0.5h-134v65h608v-65zM384 -200h-89v89h89v-89z" />
    <glyph glyph-name="tdotbelow" unicode="&#x1e6d;" horiz-adv-x="361" 
d="M332 27q-73 -38 -146 -38q-83 0 -83 130v267h-84v58h87v127h69v-127h141v-58h-141v-250q0 -83 51 -83q49 0 90 33zM225 -200h-89v89h89v-89z" />
    <glyph glyph-name="Tlinebelow" unicode="&#x1e6e;" horiz-adv-x="681" 
d="M644 623h-134q-6 0 -18 0.5t-18 0.5h-89v-624h-89v624h-90q-6 0 -18 -0.5t-18 -0.5h-134v65h608v-65zM521 -187h-361v64h361v-64z" />
    <glyph glyph-name="tlinebelow" unicode="&#x1e6f;" horiz-adv-x="361" 
d="M332 27q-73 -38 -146 -38q-83 0 -83 130v267h-84v58h87v127h69v-127h141v-58h-141v-250q0 -83 51 -83q49 0 90 33zM362 -187h-361v64h361v-64z" />
    <glyph glyph-name="Wgrave" unicode="&#x1e80;" horiz-adv-x="944" 
d="M929 694l-203 -694h-87l-115 401q-48 170 -55 220h-1q-6 -51 -70 -274l-100 -347h-81l-203 694h86l81 -282l47 -167q37 -154 39 -171h1q5 56 77 308l90 312h81l98 -341q29 -101 47 -171.5t21 -89.5l4 -20h1q6 57 79 308l91 314h72zM567 746h-89l-197 122h111z" />
    <glyph glyph-name="wgrave" unicode="&#x1e81;" horiz-adv-x="683" 
d="M668 444l-137 -444h-88l-73 248q-29 95 -32 140h-1q-4 -47 -45 -182l-62 -206h-79l-137 444h76l52 -173q49 -169 54 -216h1q5 60 49 201l57 188h70l65 -213q41 -137 46 -177h1q5 44 46 178l64 212h73zM412 527h-61l-150 167h78z" />
    <glyph glyph-name="Wacute" unicode="&#x1e82;" horiz-adv-x="944" 
d="M929 694l-203 -694h-87l-115 401q-48 170 -55 220h-1q-6 -51 -70 -274l-100 -347h-81l-203 694h86l81 -282l47 -167q37 -154 39 -171h1q5 56 77 308l90 312h81l98 -341q29 -101 47 -171.5t21 -89.5l4 -20h1q6 57 79 308l91 314h72zM663 868l-197 -122h-89l175 122h111z
" />
    <glyph glyph-name="wacute" unicode="&#x1e83;" horiz-adv-x="683" 
d="M668 444l-137 -444h-88l-73 248q-29 95 -32 140h-1q-4 -47 -45 -182l-62 -206h-79l-137 444h76l52 -173q49 -169 54 -216h1q5 60 49 201l57 188h70l65 -213q41 -137 46 -177h1q5 44 46 178l64 212h73zM483 694l-150 -167h-61l133 167h78z" />
    <glyph glyph-name="Wdieresis" unicode="&#x1e84;" horiz-adv-x="944" 
d="M929 694l-203 -694h-87l-115 401q-48 170 -55 220h-1q-6 -51 -70 -274l-100 -347h-81l-203 694h86l81 -282l47 -167q37 -154 39 -171h1q5 56 77 308l90 312h81l98 -341q29 -101 47 -171.5t21 -89.5l4 -20h1q6 57 79 308l91 314h72zM425 736h-80v80h80v-80zM599 736h-80
v80h80v-80z" />
    <glyph glyph-name="wdieresis" unicode="&#x1e85;" horiz-adv-x="683" 
d="M668 444l-137 -444h-88l-73 248q-29 95 -32 140h-1q-4 -47 -45 -182l-62 -206h-79l-137 444h76l52 -173q49 -169 54 -216h1q5 60 49 201l57 188h70l65 -213q41 -137 46 -177h1q5 44 46 178l64 212h73zM309 571h-80v80h80v-80zM455 571h-80v80h80v-80z" />
    <glyph glyph-name="Zdotbelow" unicode="&#x1e92;" horiz-adv-x="611" 
d="M560 0h-504v43l385 590h-136q-6 0 -18 -0.5t-18 -0.5h-200v62h485v-41l-385 -589h32l263 2h96v-66zM350 -200h-89v89h89v-89z" />
    <glyph glyph-name="zdotbelow" unicode="&#x1e93;" horiz-adv-x="435" 
d="M402 0h-374v41l267 345h-78q-6 0 -18 -0.5t-18 -0.5h-139v59h358v-39l-266 -344h85q6 0 18 0.5t18 0.5h147v-62zM261 -200h-89v89h89v-89z" />
    <glyph glyph-name="tdieresis" unicode="&#x1e97;" horiz-adv-x="361" 
d="M332 27q-73 -38 -146 -38q-83 0 -83 130v267h-84v58h87v127h69v-127h141v-58h-141v-250q0 -83 51 -83q49 0 90 33zM94 613h-80v80h80v-80zM268 613h-80v80h80v-80z" />
    <glyph glyph-name="Adotbelow" unicode="&#x1ea0;" horiz-adv-x="667" 
d="M638 0h-92l-76 204h-291l-77 -204h-74l261 694h88zM448 260l-91 257q-29 83 -32 105h-1q-6 -33 -59 -181q-25 -72 -32 -91t-33 -90h248zM377 -200h-89v89h89v-89z" />
    <glyph glyph-name="adotbelow" unicode="&#x1ea1;" horiz-adv-x="481" 
d="M409 0h-75v36q-61 -47 -166 -47q-58 0 -86 40.5t-28 83.5q0 63 78.5 96.5t198.5 35.5v43q0 53 -25 83.5t-62 30.5q-81 0 -151 -50l-6 66q75 43 157 43q70 0 117.5 -48.5t47.5 -123.5v-289zM331 132v62q-205 -10 -205 -79q0 -30 27.5 -47.5t65.5 -17.5q47 0 78 19
q34 19 34 63zM284 -200h-89v89h89v-89z" />
    <glyph glyph-name="Ahookabove" unicode="&#x1ea2;" horiz-adv-x="667" 
d="M638 0h-92l-76 204h-291l-77 -204h-74l261 694h88zM448 260l-91 257q-29 83 -32 105h-1q-6 -33 -59 -181q-25 -72 -32 -91t-33 -90h248zM430 873q0 -33 -27 -50q-4 -3 -13 -9q-28 -17 -39 -29t-11 -29v-19l-1 -1h-26l-1 1v19q0 67 54 96q14 9 14 21q0 21 -12 30
q-14 9 -42 9q-50 0 -74 -44h-1h-1l-14 40q34 43 90 43q50 0 77 -20q27 -19 27 -58z" />
    <glyph glyph-name="ahookabove" unicode="&#x1ea3;" horiz-adv-x="481" 
d="M409 0h-75v36q-61 -47 -166 -47q-58 0 -86 40.5t-28 83.5q0 63 78.5 96.5t198.5 35.5v43q0 53 -25 83.5t-62 30.5q-81 0 -151 -50l-6 66q75 43 157 43q70 0 117.5 -48.5t47.5 -123.5v-289zM331 132v62q-205 -10 -205 -79q0 -30 27.5 -47.5t65.5 -17.5q47 0 78 19
q34 19 34 63zM337 640q0 -33 -27 -50q-4 -3 -13 -9q-28 -17 -39 -29t-11 -29v-19l-1 -1h-26l-1 1v19q0 67 54 96q14 9 14 21q0 21 -12 30q-14 9 -42 9q-50 0 -74 -44h-1h-1l-14 40q34 43 90 43q50 0 77 -20q27 -19 27 -58z" />
    <glyph glyph-name="Acircumflexacute" unicode="&#x1ea4;" horiz-adv-x="667" 
d="M638 0h-92l-76 204h-291l-77 -204h-74l261 694h88zM448 260l-91 257q-29 83 -32 105h-1q-6 -33 -59 -181q-25 -72 -32 -91t-33 -90h248zM489 736h-59l-97 97l-97 -97h-59l126 134h60zM476 1027l-197 -122h-89l175 122h111z" />
    <glyph glyph-name="acircumflexacute" unicode="&#x1ea5;" horiz-adv-x="481" 
d="M409 0h-75v36q-61 -47 -166 -47q-58 0 -86 40.5t-28 83.5q0 63 78.5 96.5t198.5 35.5v43q0 53 -25 83.5t-62 30.5q-81 0 -151 -50l-6 66q75 43 157 43q70 0 117.5 -48.5t47.5 -123.5v-289zM331 132v62q-205 -10 -205 -79q0 -30 27.5 -47.5t65.5 -17.5q47 0 78 19
q34 19 34 63zM396 525h-59l-97 97l-97 -97h-59l126 134h60zM383 816l-197 -122h-89l175 122h111z" />
    <glyph glyph-name="Acircumflexgrave" unicode="&#x1ea6;" horiz-adv-x="667" 
d="M638 0h-92l-76 204h-291l-77 -204h-74l261 694h88zM448 260l-91 257q-29 83 -32 105h-1q-6 -33 -59 -181q-25 -72 -32 -91t-33 -90h248zM489 736h-59l-97 97l-97 -97h-59l126 134h60zM476 905l-175 122h-111l197 -122h89z" />
    <glyph glyph-name="acircumflexgrave" unicode="&#x1ea7;" horiz-adv-x="481" 
d="M409 0h-75v36q-61 -47 -166 -47q-58 0 -86 40.5t-28 83.5q0 63 78.5 96.5t198.5 35.5v43q0 53 -25 83.5t-62 30.5q-81 0 -151 -50l-6 66q75 43 157 43q70 0 117.5 -48.5t47.5 -123.5v-289zM331 132v62q-205 -10 -205 -79q0 -30 27.5 -47.5t65.5 -17.5q47 0 78 19
q34 19 34 63zM396 525h-59l-97 97l-97 -97h-59l126 134h60zM383 694l-175 122h-111l197 -122h89z" />
    <glyph glyph-name="Acircumflexhookabove" unicode="&#x1ea8;" horiz-adv-x="667" 
d="M638 0h-92l-76 204h-291l-77 -204h-74l261 694h88zM448 260l-91 257q-29 83 -32 105h-1q-6 -33 -59 -181q-25 -72 -32 -91t-33 -90h248zM489 736h-59l-97 97l-97 -97h-59l126 134h60zM527 1022q0 -33 -27 -50q-4 -3 -13 -9q-28 -17 -39 -29t-11 -29v-19l-1 -1h-26l-1 1
v19q0 67 54 96q14 9 14 21q0 21 -12 30q-14 9 -42 9q-50 0 -74 -44h-1h-1l-14 40q34 43 90 43q50 0 77 -20t27 -58z" />
    <glyph glyph-name="acircumflexhookabove" unicode="&#x1ea9;" horiz-adv-x="481" 
d="M409 0h-75v36q-61 -47 -166 -47q-58 0 -86 40.5t-28 83.5q0 63 78.5 96.5t198.5 35.5v43q0 53 -25 83.5t-62 30.5q-81 0 -151 -50l-6 66q75 43 157 43q70 0 117.5 -48.5t47.5 -123.5v-289zM331 132v62q-205 -10 -205 -79q0 -30 27.5 -47.5t65.5 -17.5q47 0 78 19
q34 19 34 63zM396 525h-59l-97 97l-97 -97h-59l126 134h60zM434 811q0 -33 -27 -50q-4 -3 -13 -9q-28 -17 -39 -29t-11 -29v-19l-1 -1h-26l-1 1v19q0 67 54 96q14 9 14 21q0 21 -12 30q-14 9 -42 9q-50 0 -74 -44h-1h-1l-14 40q34 43 90 43q50 0 77 -20q27 -19 27 -58z" />
    <glyph glyph-name="Acircumflextilde" unicode="&#x1eaa;" horiz-adv-x="667" 
d="M638 0h-92l-76 204h-291l-77 -204h-74l261 694h88zM448 260l-91 257q-29 83 -32 105h-1q-6 -33 -59 -181q-25 -72 -32 -91t-33 -90h248zM489 736h-59l-97 97l-97 -97h-59l126 134h60zM500 1044q-1 -55 -30.5 -87t-67.5 -32q-27 0 -64 25q-47 33 -71 33q-37 0 -39 -58h-61
q1 55 30.5 87t67.5 32q27 0 64 -25q47 -33 71 -33q37 0 39 58h61z" />
    <glyph glyph-name="acircumflextilde" unicode="&#x1eab;" horiz-adv-x="481" 
d="M409 0h-75v36q-61 -47 -166 -47q-58 0 -86 40.5t-28 83.5q0 63 78.5 96.5t198.5 35.5v43q0 53 -25 83.5t-62 30.5q-81 0 -151 -50l-6 66q75 43 157 43q70 0 117.5 -48.5t47.5 -123.5v-289zM331 132v62q-205 -10 -205 -79q0 -30 27.5 -47.5t65.5 -17.5q47 0 78 19
q34 19 34 63zM396 525h-59l-97 97l-97 -97h-59l126 134h60zM407 833q-1 -55 -30.5 -87t-67.5 -32q-27 0 -64 25q-47 33 -71 33q-37 0 -39 -58h-61q1 55 30.5 87t67.5 32q27 0 64 -25q47 -33 71 -33q37 0 39 58h61z" />
    <glyph glyph-name="Acircumflexdotbelow" unicode="&#x1eac;" horiz-adv-x="667" 
d="M638 0h-92l-76 204h-291l-77 -204h-74l261 694h88zM448 260l-91 257q-29 83 -32 105h-1q-6 -33 -59 -181q-25 -72 -32 -91t-33 -90h248zM489 736h-59l-97 97l-97 -97h-59l126 134h60zM377 -200h-89v89h89v-89z" />
    <glyph glyph-name="acircumflexdotbelow" unicode="&#x1ead;" horiz-adv-x="481" 
d="M409 0h-75v36q-61 -47 -166 -47q-58 0 -86 40.5t-28 83.5q0 63 78.5 96.5t198.5 35.5v43q0 53 -25 83.5t-62 30.5q-81 0 -151 -50l-6 66q75 43 157 43q70 0 117.5 -48.5t47.5 -123.5v-289zM331 132v62q-205 -10 -205 -79q0 -30 27.5 -47.5t65.5 -17.5q47 0 78 19
q34 19 34 63zM395 525h-59l-96 123l-96 -123h-59l125 172h60zM284 -200h-89v89h89v-89z" />
    <glyph glyph-name="Abreveacute" unicode="&#x1eae;" horiz-adv-x="667" 
d="M638 0h-92l-76 204h-291l-77 -204h-74l261 694h88zM448 260l-91 257q-29 83 -32 105h-1q-6 -33 -59 -181q-25 -72 -32 -91t-33 -90h248zM502 924q-1 -77 -51 -127.5t-118 -50.5q-67 0 -117 50t-51 128h61q1 -51 34 -81t74 -30q40 0 73 29.5t34 81.5h61zM477 1081
l-197 -122h-89l175 122h111z" />
    <glyph glyph-name="abreveacute" unicode="&#x1eaf;" horiz-adv-x="481" 
d="M409 0h-75v36q-61 -47 -166 -47q-58 0 -86 40.5t-28 83.5q0 63 78.5 96.5t198.5 35.5v43q0 53 -25 83.5t-62 30.5q-81 0 -151 -50l-6 66q75 43 157 43q70 0 117.5 -48.5t47.5 -123.5v-289zM331 132v62q-205 -10 -205 -79q0 -30 27.5 -47.5t65.5 -17.5q47 0 78 19
q34 19 34 63zM409 700q-1 -77 -51 -127.5t-118 -50.5q-67 0 -117 50t-51 128h61q1 -51 34 -81t74 -30q40 0 73 29.5t34 81.5h61zM384 857l-197 -122h-89l175 122h111z" />
    <glyph glyph-name="Abrevegrave" unicode="&#x1eb0;" horiz-adv-x="667" 
d="M638 0h-92l-76 204h-291l-77 -204h-74l261 694h88zM448 260l-91 257q-29 83 -32 105h-1q-6 -33 -59 -181q-25 -72 -32 -91t-33 -90h248zM502 924q-1 -77 -51 -127.5t-118 -50.5q-67 0 -117 50t-51 128h61q1 -51 34 -81t74 -30q40 0 73 29.5t34 81.5h61zM477 959l-175 122
h-111l197 -122h89z" />
    <glyph glyph-name="abrevegrave" unicode="&#x1eb1;" horiz-adv-x="481" 
d="M409 0h-75v36q-61 -47 -166 -47q-58 0 -86 40.5t-28 83.5q0 63 78.5 96.5t198.5 35.5v43q0 53 -25 83.5t-62 30.5q-81 0 -151 -50l-6 66q75 43 157 43q70 0 117.5 -48.5t47.5 -123.5v-289zM331 132v62q-205 -10 -205 -79q0 -30 27.5 -47.5t65.5 -17.5q47 0 78 19
q34 19 34 63zM409 700q-1 -77 -51 -127.5t-118 -50.5q-67 0 -117 50t-51 128h61q1 -51 34 -81t74 -30q40 0 73 29.5t34 81.5h61zM384 735l-175 122h-111l197 -122h89z" />
    <glyph glyph-name="Abrevehookabove" unicode="&#x1eb2;" horiz-adv-x="667" 
d="M638 0h-92l-76 204h-291l-77 -204h-74l261 694h88zM448 260l-91 257q-29 83 -32 105h-1q-6 -33 -59 -181q-25 -72 -32 -91t-33 -90h248zM502 924q-1 -77 -51 -127.5t-118 -50.5q-67 0 -117 50t-51 128h61q1 -51 34 -81t74 -30q40 0 73 29.5t34 81.5h61zM431 1076
q0 -33 -27 -50q-4 -3 -13 -9q-28 -17 -39 -29t-11 -29v-19l-1 -1h-26l-1 1v19q0 67 54 96q14 9 14 21q0 21 -12 30q-14 9 -42 9q-50 0 -74 -44h-1h-1l-14 40q34 43 90 43q50 0 77 -20t27 -58z" />
    <glyph glyph-name="abrevehookabove" unicode="&#x1eb3;" horiz-adv-x="481" 
d="M409 0h-75v36q-61 -47 -166 -47q-58 0 -86 40.5t-28 83.5q0 63 78.5 96.5t198.5 35.5v43q0 53 -25 83.5t-62 30.5q-81 0 -151 -50l-6 66q75 43 157 43q70 0 117.5 -48.5t47.5 -123.5v-289zM331 132v62q-205 -10 -205 -79q0 -30 27.5 -47.5t65.5 -17.5q47 0 78 19
q34 19 34 63zM409 700q-1 -77 -51 -127.5t-118 -50.5q-67 0 -117 50t-51 128h61q1 -51 34 -81t74 -30q40 0 73 29.5t34 81.5h61zM338 852q0 -33 -27 -50q-4 -3 -13 -9q-28 -17 -39 -29t-11 -29v-19l-1 -1h-26l-1 1v19q0 67 54 96q14 9 14 21q0 21 -12 30q-14 9 -42 9
q-50 0 -74 -44h-1h-1l-14 40q34 43 90 43q50 0 77 -20t27 -58z" />
    <glyph glyph-name="Abrevetilde" unicode="&#x1eb4;" horiz-adv-x="667" 
d="M638 0h-92l-76 204h-291l-77 -204h-74l261 694h88zM448 260l-91 257q-29 83 -32 105h-1q-6 -33 -59 -181q-25 -72 -32 -91t-33 -90h248zM502 924q-1 -77 -51 -127.5t-118 -50.5q-67 0 -117 50t-51 128h61q1 -51 34 -81t74 -30q40 0 73 29.5t34 81.5h61zM500 1098
q-1 -55 -30.5 -87t-67.5 -32q-27 0 -64 25q-47 33 -71 33q-37 0 -39 -58h-61q1 55 30.5 87t67.5 32q27 0 64 -25q47 -33 71 -33q37 0 39 58h61z" />
    <glyph glyph-name="abrevetilde" unicode="&#x1eb5;" horiz-adv-x="481" 
d="M409 0h-75v36q-61 -47 -166 -47q-58 0 -86 40.5t-28 83.5q0 63 78.5 96.5t198.5 35.5v43q0 53 -25 83.5t-62 30.5q-81 0 -151 -50l-6 66q75 43 157 43q70 0 117.5 -48.5t47.5 -123.5v-289zM331 132v62q-205 -10 -205 -79q0 -30 27.5 -47.5t65.5 -17.5q47 0 78 19
q34 19 34 63zM409 700q-1 -77 -51 -127.5t-118 -50.5q-67 0 -117 50t-51 128h61q1 -51 34 -81t74 -30q40 0 73 29.5t34 81.5h61zM407 874q-1 -55 -30.5 -87t-67.5 -32q-27 0 -64 25q-47 33 -71 33q-37 0 -39 -58h-61q1 55 30.5 87t67.5 32q27 0 64 -25q47 -33 71 -33
q37 0 39 58h61z" />
    <glyph glyph-name="Abrevedotbelow" unicode="&#x1eb6;" horiz-adv-x="667" 
d="M638 0h-92l-76 204h-291l-77 -204h-74l261 694h88zM448 260l-91 257q-29 83 -32 105h-1q-6 -33 -59 -181q-25 -72 -32 -91t-33 -90h248zM502 924q-1 -77 -51 -127.5t-118 -50.5q-67 0 -117 50t-51 128h61q1 -51 34 -81t74 -30q40 0 73 29.5t34 81.5h61zM377 -200h-89v89
h89v-89z" />
    <glyph glyph-name="abrevedotbelow" unicode="&#x1eb7;" horiz-adv-x="481" 
d="M409 0h-75v36q-61 -47 -166 -47q-58 0 -86 40.5t-28 83.5q0 63 78.5 96.5t198.5 35.5v43q0 53 -25 83.5t-62 30.5q-81 0 -151 -50l-6 66q75 43 157 43q70 0 117.5 -48.5t47.5 -123.5v-289zM331 132v62q-205 -10 -205 -79q0 -30 27.5 -47.5t65.5 -17.5q47 0 78 19
q34 19 34 63zM409 700q-1 -77 -51 -127.5t-118 -50.5q-67 0 -117 50t-51 128h61q1 -51 34 -81t74 -30q40 0 73 29.5t34 81.5h61zM284 -200h-89v89h89v-89z" />
    <glyph glyph-name="Edotbelow" unicode="&#x1eb8;" horiz-adv-x="597" 
d="M554 0h-460v691h446v-65h-183q-6 0 -18 0.5t-18 0.5h-138v-237h330v-61h-330v-259h209q6 0 18 0.5t18 0.5h126v-71zM343 -200h-89v89h89v-89z" />
    <glyph glyph-name="edotbelow" unicode="&#x1eb9;" horiz-adv-x="444" 
d="M414 219h-309q2 -73 44.5 -121t102.5 -48q84 0 152 56l6 -65q-72 -52 -159 -52q-90 0 -153 69t-63 168q0 97 59 166t142 69q90 0 138 -73q40 -62 40 -169zM357 274q-9 64 -43 95t-78 31q-43 0 -78.5 -35t-47.5 -91h247zM266 -200h-89v89h89v-89z" />
    <glyph glyph-name="Ehookabove" unicode="&#x1eba;" horiz-adv-x="597" 
d="M554 0h-460v691h446v-65h-183q-6 0 -18 0.5t-18 0.5h-138v-237h330v-61h-330v-259h209q6 0 18 0.5t18 0.5h126v-71zM396 873q0 -33 -27 -50q-4 -3 -13 -9q-28 -17 -39 -29t-11 -29v-19l-1 -1h-26l-1 1v19q0 67 54 96q14 9 14 21q0 21 -12 30q-14 9 -42 9q-50 0 -74 -44
h-1h-1l-14 40q34 43 90 43q50 0 77 -20q27 -19 27 -58z" />
    <glyph glyph-name="ehookabove" unicode="&#x1ebb;" horiz-adv-x="444" 
d="M414 219h-309q2 -73 44.5 -121t102.5 -48q84 0 152 56l6 -65q-72 -52 -159 -52q-90 0 -153 69t-63 168q0 97 59 166t142 69q90 0 138 -73q40 -62 40 -169zM357 274q-9 64 -43 95t-78 31q-43 0 -78.5 -35t-47.5 -91h247zM319 640q0 -33 -27 -50q-4 -3 -13 -9
q-28 -17 -39 -29t-11 -29v-19l-1 -1h-26l-1 1v19q0 67 54 96q14 9 14 21q0 21 -12 30q-14 9 -42 9q-50 0 -74 -44h-1h-1l-14 40q34 43 90 43q50 0 77 -20q27 -19 27 -58z" />
    <glyph glyph-name="Etilde" unicode="&#x1ebc;" horiz-adv-x="597" 
d="M554 0h-460v691h446v-65h-183q-6 0 -18 0.5t-18 0.5h-138v-237h330v-61h-330v-259h209q6 0 18 0.5t18 0.5h126v-71zM466 855q-1 -55 -30.5 -87t-67.5 -32q-27 0 -64 25q-47 33 -71 33q-37 0 -39 -58h-61q1 55 30.5 87t67.5 32q27 0 64 -25q47 -33 71 -33q37 0 39 58h61z
" />
    <glyph glyph-name="etilde" unicode="&#x1ebd;" horiz-adv-x="444" 
d="M414 219h-309q2 -73 44.5 -121t102.5 -48q84 0 152 56l6 -65q-72 -52 -159 -52q-90 0 -153 69t-63 168q0 97 59 166t142 69q90 0 138 -73q40 -62 40 -169zM357 274q-9 64 -43 95t-78 31q-43 0 -78.5 -35t-47.5 -91h247zM389 670q-1 -55 -30.5 -87t-67.5 -32q-27 0 -64 25
q-47 33 -71 33q-37 0 -39 -58h-61q1 55 30.5 87t67.5 32q27 0 64 -25q47 -33 71 -33q37 0 39 58h61z" />
    <glyph glyph-name="Ecircumflexacute" unicode="&#x1ebe;" horiz-adv-x="597" 
d="M554 0h-460v691h446v-65h-183q-6 0 -18 0.5t-18 0.5h-138v-237h330v-61h-330v-259h209q6 0 18 0.5t18 0.5h126v-71zM455 736h-59l-97 97l-97 -97h-59l126 134h60zM442 1027l-197 -122h-89l175 122h111z" />
    <glyph glyph-name="ecircumflexacute" unicode="&#x1ebf;" horiz-adv-x="444" 
d="M414 219h-309q2 -73 44.5 -121t102.5 -48q84 0 152 56l6 -65q-72 -52 -159 -52q-90 0 -153 69t-63 168q0 97 59 166t142 69q90 0 138 -73q40 -62 40 -169zM357 274q-9 64 -43 95t-78 31q-43 0 -78.5 -35t-47.5 -91h247zM378 525h-59l-97 97l-97 -97h-59l126 134h60z
M365 816l-197 -122h-89l175 122h111z" />
    <glyph glyph-name="Ecircumflexgrave" unicode="&#x1ec0;" horiz-adv-x="597" 
d="M554 0h-460v691h446v-65h-183q-6 0 -18 0.5t-18 0.5h-138v-237h330v-61h-330v-259h209q6 0 18 0.5t18 0.5h126v-71zM455 736h-59l-97 97l-97 -97h-59l126 134h60zM442 905l-175 122h-111l197 -122h89z" />
    <glyph glyph-name="ecircumflexgrave" unicode="&#x1ec1;" horiz-adv-x="444" 
d="M414 219h-309q2 -73 44.5 -121t102.5 -48q84 0 152 56l6 -65q-72 -52 -159 -52q-90 0 -153 69t-63 168q0 97 59 166t142 69q90 0 138 -73q40 -62 40 -169zM357 274q-9 64 -43 95t-78 31q-43 0 -78.5 -35t-47.5 -91h247zM378 525h-59l-97 97l-97 -97h-59l126 134h60z
M365 694l-175 122h-111l197 -122h89z" />
    <glyph glyph-name="Ecircumflexhookabove" unicode="&#x1ec2;" horiz-adv-x="597" 
d="M554 0h-460v691h446v-65h-183q-6 0 -18 0.5t-18 0.5h-138v-237h330v-61h-330v-259h209q6 0 18 0.5t18 0.5h126v-71zM455 736h-59l-97 97l-97 -97h-59l126 134h60zM493 1022q0 -33 -27 -50q-4 -3 -13 -9q-28 -17 -39 -29t-11 -29v-19l-1 -1h-26l-1 1v19q0 67 54 96
q14 9 14 21q0 21 -12 30q-14 9 -42 9q-50 0 -74 -44h-1h-1l-14 40q34 43 90 43q50 0 77 -20t27 -58z" />
    <glyph glyph-name="ecircumflexhookabove" unicode="&#x1ec3;" horiz-adv-x="444" 
d="M414 219h-309q2 -73 44.5 -121t102.5 -48q84 0 152 56l6 -65q-72 -52 -159 -52q-90 0 -153 69t-63 168q0 97 59 166t142 69q90 0 138 -73q40 -62 40 -169zM357 274q-9 64 -43 95t-78 31q-43 0 -78.5 -35t-47.5 -91h247zM378 525h-59l-97 97l-97 -97h-59l126 134h60z
M416 811q0 -33 -27 -50q-4 -3 -13 -9q-28 -17 -39 -29t-11 -29v-19l-1 -1h-26l-1 1v19q0 67 54 96q14 9 14 21q0 21 -12 30q-14 9 -42 9q-50 0 -74 -44h-1h-1l-14 40q34 43 90 43q50 0 77 -20q27 -19 27 -58z" />
    <glyph glyph-name="Ecircumflextilde" unicode="&#x1ec4;" horiz-adv-x="597" 
d="M554 0h-460v691h446v-65h-183q-6 0 -18 0.5t-18 0.5h-138v-237h330v-61h-330v-259h209q6 0 18 0.5t18 0.5h126v-71zM455 736h-59l-97 97l-97 -97h-59l126 134h60zM466 1044q-1 -55 -30.5 -87t-67.5 -32q-27 0 -64 25q-47 33 -71 33q-37 0 -39 -58h-61q1 55 30.5 87
t67.5 32q27 0 64 -25q47 -33 71 -33q37 0 39 58h61z" />
    <glyph glyph-name="ecircumflextilde" unicode="&#x1ec5;" horiz-adv-x="444" 
d="M414 219h-309q2 -73 44.5 -121t102.5 -48q84 0 152 56l6 -65q-72 -52 -159 -52q-90 0 -153 69t-63 168q0 97 59 166t142 69q90 0 138 -73q40 -62 40 -169zM357 274q-9 64 -43 95t-78 31q-43 0 -78.5 -35t-47.5 -91h247zM378 525h-59l-97 97l-97 -97h-59l126 134h60z
M389 833q-1 -55 -30.5 -87t-67.5 -32q-27 0 -64 25q-47 33 -71 33q-37 0 -39 -58h-61q1 55 30.5 87t67.5 32q27 0 64 -25q47 -33 71 -33q37 0 39 58h61z" />
    <glyph glyph-name="Ecircumflexdotbelow" unicode="&#x1ec6;" horiz-adv-x="597" 
d="M554 0h-460v691h446v-65h-183q-6 0 -18 0.5t-18 0.5h-138v-237h330v-61h-330v-259h209q6 0 18 0.5t18 0.5h126v-71zM455 736h-59l-97 97l-97 -97h-59l126 134h60zM343 -200h-89v89h89v-89z" />
    <glyph glyph-name="ecircumflexdotbelow" unicode="&#x1ec7;" horiz-adv-x="444" 
d="M414 219h-309q2 -73 44.5 -121t102.5 -48q84 0 152 56l6 -65q-72 -52 -159 -52q-90 0 -153 69t-63 168q0 97 59 166t142 69q90 0 138 -73q40 -62 40 -169zM357 274q-9 64 -43 95t-78 31q-43 0 -78.5 -35t-47.5 -91h247zM377 525h-59l-96 123l-96 -123h-59l125 172h60z
M266 -200h-89v89h89v-89z" />
    <glyph glyph-name="Ihookabove" unicode="&#x1ec8;" horiz-adv-x="278" 
d="M183 0h-89v694h89v-694zM236 873q0 -33 -27 -50q-4 -3 -13 -9q-28 -17 -39 -29t-11 -29v-19l-1 -1h-26l-1 1v19q0 67 54 96q14 9 14 21q0 21 -12 30q-14 9 -42 9q-50 0 -74 -44h-1h-1l-14 40q34 43 90 43q50 0 77 -20q27 -19 27 -58z" />
    <glyph glyph-name="ihookabove" unicode="&#x1ec9;" horiz-adv-x="239" 
d="M156 0h-75v444h75v-444zM216 640q0 -33 -27 -50q-4 -3 -13 -9q-28 -17 -39 -29t-11 -29v-19l-1 -1h-26l-1 1v19q0 67 54 96q14 9 14 21q0 21 -12 30q-14 9 -42 9q-50 0 -74 -44h-1h-1l-14 40q34 43 90 43q50 0 77 -20q27 -19 27 -58z" />
    <glyph glyph-name="Idotbelow" unicode="&#x1eca;" horiz-adv-x="278" 
d="M183 0h-89v694h89v-694zM183 -200h-89v89h89v-89z" />
    <glyph glyph-name="idotbelow" unicode="&#x1ecb;" horiz-adv-x="239" 
d="M156 0h-75v444h75v-444zM164 566h-89v89h89v-89zM164 -200h-89v89h89v-89z" />
    <glyph glyph-name="Odotbelow" unicode="&#x1ecc;" horiz-adv-x="736" 
d="M679 345q0 -155 -92.5 -261t-219.5 -106q-125 0 -218 105.5t-93 261.5q0 155 92 263t220 108q126 0 218.5 -108t92.5 -263zM590 360q0 130 -66 211t-157 81q-89 0 -155.5 -80.5t-66.5 -211.5q0 -140 65.5 -228.5t157.5 -88.5q90 0 156 88t66 229zM412 -200h-89v89h89v-89
z" />
    <glyph glyph-name="odotbelow" unicode="&#x1ecd;" 
d="M469 220q0 -97 -64.5 -164t-155.5 -67q-89 0 -154 66.5t-65 164.5q0 99 64 170t156 71q90 0 154.5 -70.5t64.5 -170.5zM391 230q0 83 -42 126.5t-100 43.5q-56 0 -98.5 -43t-42.5 -127q0 -85 42 -131t99 -46q59 0 100.5 46.5t41.5 130.5zM294 -200h-89v89h89v-89z" />
    <glyph glyph-name="Ohookabove" unicode="&#x1ece;" horiz-adv-x="736" 
d="M679 345q0 -155 -92.5 -261t-219.5 -106q-125 0 -218 105.5t-93 261.5q0 155 92 263t220 108q126 0 218.5 -108t92.5 -263zM590 360q0 130 -66 211t-157 81q-89 0 -155.5 -80.5t-66.5 -211.5q0 -140 65.5 -228.5t157.5 -88.5q90 0 156 88t66 229zM465 873q0 -33 -27 -50
q-4 -3 -13 -9q-28 -17 -39 -29t-11 -29v-19l-1 -1h-26l-1 1v19q0 67 54 96q14 9 14 21q0 21 -12 30q-14 9 -42 9q-50 0 -74 -44h-1h-1l-14 40q34 43 90 43q50 0 77 -20q27 -19 27 -58z" />
    <glyph glyph-name="ohookabove" unicode="&#x1ecf;" 
d="M469 220q0 -97 -64.5 -164t-155.5 -67q-89 0 -154 66.5t-65 164.5q0 99 64 170t156 71q90 0 154.5 -70.5t64.5 -170.5zM391 230q0 83 -42 126.5t-100 43.5q-56 0 -98.5 -43t-42.5 -127q0 -85 42 -131t99 -46q59 0 100.5 46.5t41.5 130.5zM347 640q0 -33 -27 -50
q-4 -3 -13 -9q-28 -17 -39 -29t-11 -29v-19l-1 -1h-26l-1 1v19q0 67 54 96q14 9 14 21q0 21 -12 30q-14 9 -42 9q-50 0 -74 -44h-1h-1l-14 40q34 43 90 43q50 0 77 -20q27 -19 27 -58z" />
    <glyph glyph-name="Ocircumflexacute" unicode="&#x1ed0;" horiz-adv-x="736" 
d="M679 345q0 -155 -92.5 -261t-219.5 -106q-125 0 -218 105.5t-93 261.5q0 155 92 263t220 108q126 0 218.5 -108t92.5 -263zM590 360q0 130 -66 211t-157 81q-89 0 -155.5 -80.5t-66.5 -211.5q0 -140 65.5 -228.5t157.5 -88.5q90 0 156 88t66 229zM524 736h-59l-97 97
l-97 -97h-59l126 134h60zM511 1027l-197 -122h-89l175 122h111z" />
    <glyph glyph-name="ocircumflexacute" unicode="&#x1ed1;" 
d="M469 220q0 -97 -64.5 -164t-155.5 -67q-89 0 -154 66.5t-65 164.5q0 99 64 170t156 71q90 0 154.5 -70.5t64.5 -170.5zM391 230q0 83 -42 126.5t-100 43.5q-56 0 -98.5 -43t-42.5 -127q0 -85 42 -131t99 -46q59 0 100.5 46.5t41.5 130.5zM406 525h-59l-97 97l-97 -97h-59
l126 134h60zM393 816l-197 -122h-89l175 122h111z" />
    <glyph glyph-name="Ocircumflexgrave" unicode="&#x1ed2;" horiz-adv-x="736" 
d="M679 345q0 -155 -92.5 -261t-219.5 -106q-125 0 -218 105.5t-93 261.5q0 155 92 263t220 108q126 0 218.5 -108t92.5 -263zM590 360q0 130 -66 211t-157 81q-89 0 -155.5 -80.5t-66.5 -211.5q0 -140 65.5 -228.5t157.5 -88.5q90 0 156 88t66 229zM524 736h-59l-97 97
l-97 -97h-59l126 134h60zM511 905l-175 122h-111l197 -122h89z" />
    <glyph glyph-name="ocircumflexgrave" unicode="&#x1ed3;" 
d="M469 220q0 -97 -64.5 -164t-155.5 -67q-89 0 -154 66.5t-65 164.5q0 99 64 170t156 71q90 0 154.5 -70.5t64.5 -170.5zM391 230q0 83 -42 126.5t-100 43.5q-56 0 -98.5 -43t-42.5 -127q0 -85 42 -131t99 -46q59 0 100.5 46.5t41.5 130.5zM406 525h-59l-97 97l-97 -97h-59
l126 134h60zM393 694l-175 122h-111l197 -122h89z" />
    <glyph glyph-name="Ocircumflexhookabove" unicode="&#x1ed4;" horiz-adv-x="736" 
d="M679 345q0 -155 -92.5 -261t-219.5 -106q-125 0 -218 105.5t-93 261.5q0 155 92 263t220 108q126 0 218.5 -108t92.5 -263zM590 360q0 130 -66 211t-157 81q-89 0 -155.5 -80.5t-66.5 -211.5q0 -140 65.5 -228.5t157.5 -88.5q90 0 156 88t66 229zM524 736h-59l-97 97
l-97 -97h-59l126 134h60zM562 1022q0 -33 -27 -50q-4 -3 -13 -9q-28 -17 -39 -29t-11 -29v-19l-1 -1h-26l-1 1v19q0 67 54 96q14 9 14 21q0 21 -12 30q-14 9 -42 9q-50 0 -74 -44h-1h-1l-14 40q34 43 90 43q50 0 77 -20t27 -58z" />
    <glyph glyph-name="ocircumflexhookabove" unicode="&#x1ed5;" 
d="M469 220q0 -97 -64.5 -164t-155.5 -67q-89 0 -154 66.5t-65 164.5q0 99 64 170t156 71q90 0 154.5 -70.5t64.5 -170.5zM391 230q0 83 -42 126.5t-100 43.5q-56 0 -98.5 -43t-42.5 -127q0 -85 42 -131t99 -46q59 0 100.5 46.5t41.5 130.5zM406 525h-59l-97 97l-97 -97h-59
l126 134h60zM444 811q0 -33 -27 -50q-4 -3 -13 -9q-28 -17 -39 -29t-11 -29v-19l-1 -1h-26l-1 1v19q0 67 54 96q14 9 14 21q0 21 -12 30q-14 9 -42 9q-50 0 -74 -44h-1h-1l-14 40q34 43 90 43q50 0 77 -20q27 -19 27 -58z" />
    <glyph glyph-name="Ocircumflextilde" unicode="&#x1ed6;" horiz-adv-x="736" 
d="M679 345q0 -155 -92.5 -261t-219.5 -106q-125 0 -218 105.5t-93 261.5q0 155 92 263t220 108q126 0 218.5 -108t92.5 -263zM590 360q0 130 -66 211t-157 81q-89 0 -155.5 -80.5t-66.5 -211.5q0 -140 65.5 -228.5t157.5 -88.5q90 0 156 88t66 229zM524 736h-59l-97 97
l-97 -97h-59l126 134h60zM535 1044q-1 -55 -30.5 -87t-67.5 -32q-27 0 -64 25q-47 33 -71 33q-37 0 -39 -58h-61q1 55 30.5 87t67.5 32q27 0 64 -25q47 -33 71 -33q37 0 39 58h61z" />
    <glyph glyph-name="ocircumflextilde" unicode="&#x1ed7;" 
d="M469 220q0 -97 -64.5 -164t-155.5 -67q-89 0 -154 66.5t-65 164.5q0 99 64 170t156 71q90 0 154.5 -70.5t64.5 -170.5zM391 230q0 83 -42 126.5t-100 43.5q-56 0 -98.5 -43t-42.5 -127q0 -85 42 -131t99 -46q59 0 100.5 46.5t41.5 130.5zM406 525h-59l-97 97l-97 -97h-59
l126 134h60zM417 833q-1 -55 -30.5 -87t-67.5 -32q-27 0 -64 25q-47 33 -71 33q-37 0 -39 -58h-61q1 55 30.5 87t67.5 32q27 0 64 -25q47 -33 71 -33q37 0 39 58h61z" />
    <glyph glyph-name="Ocircumflexdotbelow" unicode="&#x1ed8;" horiz-adv-x="736" 
d="M679 345q0 -155 -92.5 -261t-219.5 -106q-125 0 -218 105.5t-93 261.5q0 155 92 263t220 108q126 0 218.5 -108t92.5 -263zM590 360q0 130 -66 211t-157 81q-89 0 -155.5 -80.5t-66.5 -211.5q0 -140 65.5 -228.5t157.5 -88.5q90 0 156 88t66 229zM524 736h-59l-97 97
l-97 -97h-59l126 134h60zM412 -200h-89v89h89v-89z" />
    <glyph glyph-name="ocircumflexdotbelow" unicode="&#x1ed9;" 
d="M469 220q0 -97 -64.5 -164t-155.5 -67q-89 0 -154 66.5t-65 164.5q0 99 64 170t156 71q90 0 154.5 -70.5t64.5 -170.5zM391 230q0 83 -42 126.5t-100 43.5q-56 0 -98.5 -43t-42.5 -127q0 -85 42 -131t99 -46q59 0 100.5 46.5t41.5 130.5zM405 525h-59l-96 123l-96 -123
h-59l125 172h60zM294 -200h-89v89h89v-89z" />
    <glyph glyph-name="Ohornacute" unicode="&#x1eda;" horiz-adv-x="736" 
d="M679 344q0 -150 -92 -259q-91 -107 -220 -107t-220 107q-92 107 -92 259q0 155 92 263q91 109 220 109q84 0 156 -50l31 28h-22l-2 1v82l2 1h81l1 -1v-82l-1 -1l-63 -49q21 -18 37 -38q92 -108 92 -263zM590 361q0 123 -64 207q-29 39 -71 62t-88 23t-88 -23t-71 -62
q-64 -84 -64 -207q0 -134 64 -226q29 -42 70.5 -67t88.5 -25t88.5 25t70.5 67q64 92 64 226zM531 868l-197 -122h-89l175 122h111z" />
    <glyph glyph-name="ohornacute" unicode="&#x1edb;" 
d="M470 445l-68 -53l2 -2q64 -70 64 -171q0 -94 -64 -163q-65 -67 -155 -67t-155 67q-64 69 -64 163q0 101 64 171q65 71 155 71q71 0 128 -46l33 29h-22l-1 1v82l1 1h81l1 -1v-82zM390 231q0 75 -39 121q-39 48 -102 48t-102 -48q-39 -46 -39 -121q0 -80 39 -128
q37 -50 102 -50t102 50q39 48 39 128zM363 694l-150 -167h-61l133 167h78z" />
    <glyph glyph-name="Ohorngrave" unicode="&#x1edc;" horiz-adv-x="736" 
d="M679 344q0 -150 -92 -259q-91 -107 -220 -107t-220 107q-92 107 -92 259q0 155 92 263q91 109 220 109q84 0 156 -50l31 28h-22l-2 1v82l2 1h81l1 -1v-82l-1 -1l-63 -49q21 -18 37 -38q92 -108 92 -263zM590 361q0 123 -64 207q-29 39 -71 62t-88 23t-88 -23t-71 -62
q-64 -84 -64 -207q0 -134 64 -226q29 -42 70.5 -67t88.5 -25t88.5 25t70.5 67q64 92 64 226zM463 746h-89l-197 122h111z" />
    <glyph glyph-name="ohorngrave" unicode="&#x1edd;" 
d="M470 445l-68 -53l2 -2q64 -70 64 -171q0 -94 -64 -163q-65 -67 -155 -67t-155 67q-64 69 -64 163q0 101 64 171q65 71 155 71q71 0 128 -46l33 29h-22l-1 1v82l1 1h81l1 -1v-82zM390 231q0 75 -39 121q-39 48 -102 48t-102 -48q-39 -46 -39 -121q0 -80 39 -128
q37 -50 102 -50t102 50q39 48 39 128zM320 527h-61l-150 167h78z" />
    <glyph glyph-name="Ohornhookabove" unicode="&#x1ede;" horiz-adv-x="736" 
d="M679 344q0 -150 -92 -259q-91 -107 -220 -107t-220 107q-92 107 -92 259q0 155 92 263q91 109 220 109q84 0 156 -50l31 28h-22l-2 1v82l2 1h81l1 -1v-82l-1 -1l-63 -49q21 -18 37 -38q92 -108 92 -263zM590 361q0 123 -64 207q-29 39 -71 62t-88 23t-88 -23t-71 -62
q-64 -84 -64 -207q0 -134 64 -226q29 -42 70.5 -67t88.5 -25t88.5 25t70.5 67q64 92 64 226zM465 873q0 -33 -27 -50q-4 -3 -13 -9q-28 -17 -39 -29t-11 -29v-19l-1 -1h-26l-1 1v19q0 67 54 96q14 9 14 21q0 21 -12 30q-14 9 -42 9q-50 0 -74 -44h-1h-1l-14 40q34 43 90 43
q50 0 77 -20q27 -19 27 -58z" />
    <glyph glyph-name="ohornhookabove" unicode="&#x1edf;" 
d="M470 445l-68 -53l2 -2q64 -70 64 -171q0 -94 -64 -163q-65 -67 -155 -67t-155 67q-64 69 -64 163q0 101 64 171q65 71 155 71q71 0 128 -46l33 29h-22l-1 1v82l1 1h81l1 -1v-82zM390 231q0 75 -39 121q-39 48 -102 48t-102 -48q-39 -46 -39 -121q0 -80 39 -128
q37 -50 102 -50t102 50q39 48 39 128zM347 640q0 -33 -27 -50q-4 -3 -13 -9q-28 -17 -39 -29t-11 -29v-19l-1 -1h-26l-1 1v19q0 67 54 96q14 9 14 21q0 21 -12 30q-14 9 -42 9q-50 0 -74 -44h-1h-1l-14 40q34 43 90 43q50 0 77 -20q27 -19 27 -58z" />
    <glyph glyph-name="Ohorntilde" unicode="&#x1ee0;" horiz-adv-x="736" 
d="M679 344q0 -150 -92 -259q-91 -107 -220 -107t-220 107q-92 107 -92 259q0 155 92 263q91 109 220 109q84 0 156 -50l31 28h-22l-2 1v82l2 1h81l1 -1v-82l-1 -1l-63 -49q21 -18 37 -38q92 -108 92 -263zM590 361q0 123 -64 207q-29 39 -71 62t-88 23t-88 -23t-71 -62
q-64 -84 -64 -207q0 -134 64 -226q29 -42 70.5 -67t88.5 -25t88.5 25t70.5 67q64 92 64 226zM535 855q-1 -55 -30.5 -87t-67.5 -32q-27 0 -64 25q-47 33 -71 33q-37 0 -39 -58h-61q1 55 30.5 87t67.5 32q27 0 64 -25q47 -33 71 -33q37 0 39 58h61z" />
    <glyph glyph-name="ohorntilde" unicode="&#x1ee1;" 
d="M470 445l-68 -53l2 -2q64 -70 64 -171q0 -94 -64 -163q-65 -67 -155 -67t-155 67q-64 69 -64 163q0 101 64 171q65 71 155 71q71 0 128 -46l33 29h-22l-1 1v82l1 1h81l1 -1v-82zM390 231q0 75 -39 121q-39 48 -102 48t-102 -48q-39 -46 -39 -121q0 -80 39 -128
q37 -50 102 -50t102 50q39 48 39 128zM417 670q-1 -55 -30.5 -87t-67.5 -32q-27 0 -64 25q-47 33 -71 33q-37 0 -39 -58h-61q1 55 30.5 87t67.5 32q27 0 64 -25q47 -33 71 -33q37 0 39 58h61z" />
    <glyph glyph-name="Ohorndotbelow" unicode="&#x1ee2;" horiz-adv-x="736" 
d="M679 344q0 -150 -92 -259q-91 -107 -220 -107t-220 107q-92 107 -92 259q0 155 92 263q91 109 220 109q84 0 156 -50l31 28h-22l-2 1v82l2 1h81l1 -1v-82l-1 -1l-63 -49q21 -18 37 -38q92 -108 92 -263zM590 361q0 123 -64 207q-29 39 -71 62t-88 23t-88 -23t-71 -62
q-64 -84 -64 -207q0 -134 64 -226q29 -42 70.5 -67t88.5 -25t88.5 25t70.5 67q64 92 64 226zM412 -200h-89v89h89v-89z" />
    <glyph glyph-name="ohorndotbelow" unicode="&#x1ee3;" 
d="M470 445l-68 -53l2 -2q64 -70 64 -171q0 -94 -64 -163q-65 -67 -155 -67t-155 67q-64 69 -64 163q0 101 64 171q65 71 155 71q71 0 128 -46l33 29h-22l-1 1v82l1 1h81l1 -1v-82zM390 231q0 75 -39 121q-39 48 -102 48t-102 -48q-39 -46 -39 -121q0 -80 39 -128
q37 -50 102 -50t102 50q39 48 39 128zM294 -200h-89v89h89v-89z" />
    <glyph glyph-name="Udotbelow" unicode="&#x1ee4;" horiz-adv-x="688" 
d="M593 233q0 -108 -72.5 -181.5t-174.5 -73.5q-103 0 -177.5 73.5t-74.5 181.5v461h89v-462q0 -95 48.5 -146.5t115.5 -51.5q68 0 118 52t50 146v462h78v-461zM388 -200h-89v89h89v-89z" />
    <glyph glyph-name="udotbelow" unicode="&#x1ee5;" horiz-adv-x="517" 
d="M435 0h-75v48q-67 -59 -173 -59q-59 0 -82.5 30.5t-23.5 89.5v335h78v-331q0 -37 14.5 -53t63.5 -16q51 0 85.5 28.5t34.5 81.5v290h78v-444zM302 -200h-89v89h89v-89z" />
    <glyph glyph-name="Uhookabove" unicode="&#x1ee6;" horiz-adv-x="688" 
d="M593 233q0 -108 -72.5 -181.5t-174.5 -73.5q-103 0 -177.5 73.5t-74.5 181.5v461h89v-462q0 -95 48.5 -146.5t115.5 -51.5q68 0 118 52t50 146v462h78v-461zM441 873q0 -33 -27 -50q-4 -3 -13 -9q-28 -17 -39 -29t-11 -29v-19l-1 -1h-26l-1 1v19q0 67 54 96q14 9 14 21
q0 21 -12 30q-14 9 -42 9q-50 0 -74 -44h-1h-1l-14 40q34 43 90 43q50 0 77 -20q27 -19 27 -58z" />
    <glyph glyph-name="uhookabove" unicode="&#x1ee7;" horiz-adv-x="517" 
d="M435 0h-75v48q-67 -59 -173 -59q-59 0 -82.5 30.5t-23.5 89.5v335h78v-331q0 -37 14.5 -53t63.5 -16q51 0 85.5 28.5t34.5 81.5v290h78v-444zM355 640q0 -33 -27 -50q-4 -3 -13 -9q-28 -17 -39 -29t-11 -29v-19l-1 -1h-26l-1 1v19q0 67 54 96q14 9 14 21q0 21 -12 30
q-14 9 -42 9q-50 0 -74 -44h-1h-1l-14 40q34 43 90 43q50 0 77 -20q27 -19 27 -58z" />
    <glyph glyph-name="Uhornacute" unicode="&#x1ee8;" horiz-adv-x="687" 
d="M690 694l-99 -72v-391q0 -105 -72 -179q-71 -74 -174 -74t-177 74t-74 179v463h89v-463q0 -87 44 -142q46 -56 118 -56q74 0 122 56q47 57 47 142v463h77v-32l39 32h-22l-1 1v82l1 1h81l1 -1v-82v-1zM507 868l-197 -122h-89l175 122h111z" />
    <glyph glyph-name="uhornacute" unicode="&#x1ee9;" horiz-adv-x="544" 
d="M534 445l-99 -73v-372h-75v48q-64 -59 -176 -59q-54 0 -79 29q-25 30 -25 92v334h78v-334q0 -39 17 -52q19 -14 68 -14q47 0 80.5 30t33.5 72v298h78v-32l39 32h-23l-1 1v82l1 1h82l1 -1v-82zM371 694l-150 -167h-61l133 167h78z" />
    <glyph glyph-name="Uhorngrave" unicode="&#x1eea;" horiz-adv-x="687" 
d="M690 694l-99 -72v-391q0 -105 -72 -179q-71 -74 -174 -74t-177 74t-74 179v463h89v-463q0 -87 44 -142q46 -56 118 -56q74 0 122 56q47 57 47 142v463h77v-32l39 32h-22l-1 1v82l1 1h81l1 -1v-82v-1zM439 746h-89l-197 122h111z" />
    <glyph glyph-name="uhorngrave" unicode="&#x1eeb;" horiz-adv-x="544" 
d="M534 445l-99 -73v-372h-75v48q-64 -59 -176 -59q-54 0 -79 29q-25 30 -25 92v334h78v-334q0 -39 17 -52q19 -14 68 -14q47 0 80.5 30t33.5 72v298h78v-32l39 32h-23l-1 1v82l1 1h82l1 -1v-82zM328 527h-61l-150 167h78z" />
    <glyph glyph-name="Uhornhookabove" unicode="&#x1eec;" horiz-adv-x="687" 
d="M690 694l-99 -72v-391q0 -105 -72 -179q-71 -74 -174 -74t-177 74t-74 179v463h89v-463q0 -87 44 -142q46 -56 118 -56q74 0 122 56q47 57 47 142v463h77v-32l39 32h-22l-1 1v82l1 1h81l1 -1v-82v-1zM441 873q0 -33 -27 -50q-4 -3 -13 -9q-28 -17 -39 -29t-11 -29v-19
l-1 -1h-26l-1 1v19q0 67 54 96q14 9 14 21q0 21 -12 30q-14 9 -42 9q-50 0 -74 -44h-1h-1l-14 40q34 43 90 43q50 0 77 -20q27 -19 27 -58z" />
    <glyph glyph-name="uhornhookabove" unicode="&#x1eed;" horiz-adv-x="544" 
d="M534 445l-99 -73v-372h-75v48q-64 -59 -176 -59q-54 0 -79 29q-25 30 -25 92v334h78v-334q0 -39 17 -52q19 -14 68 -14q47 0 80.5 30t33.5 72v298h78v-32l39 32h-23l-1 1v82l1 1h82l1 -1v-82zM355 640q0 -33 -27 -50q-4 -3 -13 -9q-28 -17 -39 -29t-11 -29v-19l-1 -1h-26
l-1 1v19q0 67 54 96q14 9 14 21q0 21 -12 30q-14 9 -42 9q-50 0 -74 -44h-1h-1l-14 40q34 43 90 43q50 0 77 -20q27 -19 27 -58z" />
    <glyph glyph-name="Uhorntilde" unicode="&#x1eee;" horiz-adv-x="687" 
d="M690 694l-99 -72v-391q0 -105 -72 -179q-71 -74 -174 -74t-177 74t-74 179v463h89v-463q0 -87 44 -142q46 -56 118 -56q74 0 122 56q47 57 47 142v463h77v-32l39 32h-22l-1 1v82l1 1h81l1 -1v-82v-1zM511 855q-1 -55 -30.5 -87t-67.5 -32q-27 0 -64 25q-47 33 -71 33
q-37 0 -39 -58h-61q1 55 30.5 87t67.5 32q27 0 64 -25q47 -33 71 -33q37 0 39 58h61z" />
    <glyph glyph-name="uhorntilde" unicode="&#x1eef;" horiz-adv-x="544" 
d="M534 445l-99 -73v-372h-75v48q-64 -59 -176 -59q-54 0 -79 29q-25 30 -25 92v334h78v-334q0 -39 17 -52q19 -14 68 -14q47 0 80.5 30t33.5 72v298h78v-32l39 32h-23l-1 1v82l1 1h82l1 -1v-82zM425 670q-1 -55 -30.5 -87t-67.5 -32q-27 0 -64 25q-47 33 -71 33
q-37 0 -39 -58h-61q1 55 30.5 87t67.5 32q27 0 64 -25q47 -33 71 -33q37 0 39 58h61z" />
    <glyph glyph-name="Uhorndotbelow" unicode="&#x1ef0;" horiz-adv-x="687" 
d="M690 694l-99 -72v-391q0 -105 -72 -179q-71 -74 -174 -74t-177 74t-74 179v463h89v-463q0 -87 44 -142q46 -56 118 -56q74 0 122 56q47 57 47 142v463h77v-32l39 32h-22l-1 1v82l1 1h81l1 -1v-82v-1zM388 -200h-89v89h89v-89z" />
    <glyph glyph-name="uhorndotbelow" unicode="&#x1ef1;" horiz-adv-x="544" 
d="M534 445l-99 -73v-372h-75v48q-64 -59 -176 -59q-54 0 -79 29q-25 30 -25 92v334h78v-334q0 -39 17 -52q19 -14 68 -14q47 0 80.5 30t33.5 72v298h78v-32l39 32h-23l-1 1v82l1 1h82l1 -1v-82zM316 -200h-89v89h89v-89z" />
    <glyph glyph-name="Ygrave" unicode="&#x1ef2;" horiz-adv-x="667" 
d="M663 694l-287 -417v-277h-86v278l-287 416h105l198 -290q8 -11 36 -57l61 95q13 20 17 26l155 226h88zM428 746h-89l-197 122h111z" />
    <glyph glyph-name="ygrave" unicode="&#x1ef3;" horiz-adv-x="461" 
d="M446 444l-218 -535q-28 -69 -54.5 -91.5t-58.5 -22.5q-37 0 -72 8l-6 65q40 -16 78 -16q10 0 16 2t17.5 15.5t23.5 40.5l36 90l-194 444h79l54 -125q8 -18 24.5 -58t39.5 -107t26 -97h1q3 69 133 387h75zM301 527h-61l-150 167h78z" />
    <glyph glyph-name="Ydotbelow" unicode="&#x1ef4;" horiz-adv-x="667" 
d="M663 694l-287 -417v-277h-86v278l-287 416h105l198 -290q8 -11 36 -57l61 95q13 20 17 26l155 226h88zM377 -200h-89v89h89v-89z" />
    <glyph glyph-name="ydotbelow" unicode="&#x1ef5;" horiz-adv-x="461" 
d="M446 444l-218 -535q-28 -69 -54.5 -91.5t-58.5 -22.5q-37 0 -72 8l-6 65q40 -16 78 -16q10 0 16 2t17.5 15.5t23.5 40.5l36 90l-194 444h79l54 -125q8 -18 24.5 -58t39.5 -107t26 -97h1q3 69 133 387h75zM390 -200h-89v89h89v-89z" />
    <glyph glyph-name="Yhookabove" unicode="&#x1ef6;" horiz-adv-x="667" 
d="M663 694l-287 -417v-277h-86v278l-287 416h105l198 -290q8 -11 36 -57l61 95q13 20 17 26l155 226h88zM430 873q0 -33 -27 -50q-4 -3 -13 -9q-28 -17 -39 -29t-11 -29v-19l-1 -1h-26l-1 1v19q0 67 54 96q14 9 14 21q0 21 -12 30q-14 9 -42 9q-50 0 -74 -44h-1h-1l-14 40
q34 43 90 43q50 0 77 -20q27 -19 27 -58z" />
    <glyph glyph-name="yhookabove" unicode="&#x1ef7;" horiz-adv-x="461" 
d="M446 444l-218 -535q-28 -69 -54.5 -91.5t-58.5 -22.5q-37 0 -72 8l-6 65q40 -16 78 -16q10 0 16 2t17.5 15.5t23.5 40.5l36 90l-194 444h79l54 -125q8 -18 24.5 -58t39.5 -107t26 -97h1q3 69 133 387h75zM328 640q0 -33 -27 -50q-4 -3 -13 -9q-28 -17 -39 -29t-11 -29
v-19l-1 -1h-26l-1 1v19q0 67 54 96q14 9 14 21q0 21 -12 30q-14 9 -42 9q-50 0 -74 -44h-1h-1l-14 40q34 43 90 43q50 0 77 -20q27 -19 27 -58z" />
    <glyph glyph-name="Ytilde" unicode="&#x1ef8;" horiz-adv-x="667" 
d="M663 694l-287 -417v-277h-86v278l-287 416h105l198 -290q8 -11 36 -57l61 95q13 20 17 26l155 226h88zM500 855q-1 -55 -30.5 -87t-67.5 -32q-27 0 -64 25q-47 33 -71 33q-37 0 -39 -58h-61q1 55 30.5 87t67.5 32q27 0 64 -25q47 -33 71 -33q37 0 39 58h61z" />
    <glyph glyph-name="ytilde" unicode="&#x1ef9;" horiz-adv-x="461" 
d="M446 444l-218 -535q-28 -69 -54.5 -91.5t-58.5 -22.5q-37 0 -72 8l-6 65q40 -16 78 -16q10 0 16 2t17.5 15.5t23.5 40.5l36 90l-194 444h79l54 -125q8 -18 24.5 -58t39.5 -107t26 -97h1q3 69 133 387h75zM398 670q-1 -55 -30.5 -87t-67.5 -32q-27 0 -64 25q-47 33 -71 33
q-37 0 -39 -58h-61q1 55 30.5 87t67.5 32q27 0 64 -25q47 -33 71 -33q37 0 39 58h61z" />
    <glyph glyph-name="uni2010" unicode="&#x2010;" horiz-adv-x="333" 
d="M299 193h-265v58h265v-58z" />
    <glyph glyph-name="uni2011" unicode="&#x2011;" horiz-adv-x="333" 
d="M299 193h-265v58h265v-58z" />
    <glyph glyph-name="endash" unicode="&#x2013;" 
d="M499 244h-499v61h499v-61z" />
    <glyph glyph-name="emdash" unicode="&#x2014;" horiz-adv-x="1000" 
d="M999 244h-999v61h999v-61z" />
    <glyph glyph-name="dblverticalbar" unicode="&#x2016;" horiz-adv-x="398" 
d="M159 -217q0 -33 -20 -33t-20 33v934q0 33 20 33t20 -33v-934zM279 -217q0 -33 -20 -33t-20 33v934q0 33 20 33t20 -33v-934z" />
    <glyph glyph-name="quoteleft" unicode="&#x2018;" horiz-adv-x="278" 
d="M180 486h-83v82l42 126h41l-25 -125h25v-83z" />
    <glyph glyph-name="quoteright" unicode="&#x2019;" horiz-adv-x="278" 
d="M180 612l-42 -126h-41l25 125h-25v83h83v-82z" />
    <glyph glyph-name="quotesinglbase" unicode="&#x201a;" horiz-adv-x="278" 
d="M180 2l-42 -126h-41l25 125h-25v83h83v-82z" />
    <glyph glyph-name="quotedblleft" unicode="&#x201c;" horiz-adv-x="472" 
d="M180 486h-83v82l42 126h41l-25 -125h25v-83zM374 486h-83v82l42 126h41l-25 -125h25v-83z" />
    <glyph glyph-name="quotedblright" unicode="&#x201d;" horiz-adv-x="472" 
d="M181 612l-42 -126h-41l25 125h-25v83h83v-82zM375 612l-42 -126h-41l25 125h-25v83h83v-82z" />
    <glyph glyph-name="quotedblbase" unicode="&#x201e;" horiz-adv-x="472" 
d="M181 2l-42 -126h-41l25 125h-25v83h83v-82zM375 2l-42 -126h-41l25 125h-25v83h83v-82z" />
    <glyph glyph-name="dagger" unicode="&#x2020;" horiz-adv-x="444" 
d="M387 430q0 -5 -1.5 -11t-10.5 -14t-25 -8q-25 0 -69 14q-32 8 -50 10q3 -38 10 -71q14 -71 14 -132q0 -120 -9 -262q-4 -93 -11 -154q-1 -8 -2 -10.5t-3.5 -5t-8.5 -2.5q-12 0 -13 20q-20 211 -20 414q0 61 14 133q7 37 10 70q-26 -3 -48 -10q-49 -14 -71 -14
q-37 0 -37 34q0 5 1.5 11t10.5 14t25 8q25 0 69 -14q32 -8 50 -10q-2 45 -11 107q-13 78 -13 117q0 41 34 41q33 0 33 -41q0 -30 -11 -111q-10 -62 -13 -113q26 3 48 10q49 14 71 14q37 0 37 -34z" />
    <glyph glyph-name="daggerdbl" unicode="&#x2021;" horiz-adv-x="444" 
d="M387 477q0 -5 -1.5 -11t-10.5 -14t-25 -8q-25 0 -69 14q-32 8 -50 10q1 -24 13 -95q11 -55 11 -84q0 -39 -34 -39q-33 0 -33 39q0 29 13 101q10 46 11 78q-26 -3 -48 -10q-49 -14 -71 -14q-37 0 -37 34q0 5 1.5 11t10.5 14t25 8q25 0 69 -14q32 -8 50 -10q-1 24 -13 95
q-11 55 -11 84q0 39 33 39q34 0 34 -39q0 -30 -13 -101q-10 -46 -11 -78q26 3 48 10q49 14 71 14q37 0 37 -34zM387 22q0 -13 -8.5 -23t-25.5 -10q-23 0 -56 9q-44 12 -66 14q3 -47 10 -72q14 -79 14 -106q0 -39 -34 -39q-33 0 -33 39q0 28 11 84q11 66 13 94
q-23 -3 -63 -13q-28 -10 -59 -10q-17 0 -25.5 10t-8.5 23q0 12 8.5 22.5t25.5 10.5q24 0 56 -9q44 -12 66 -14q-3 47 -10 72q-14 79 -14 106q0 39 34 39q33 0 33 -39q0 -28 -11 -84q-11 -66 -13 -94q23 2 55 12q43 11 68 11q15 0 24 -10t9 -23z" />
    <glyph glyph-name="bullet" unicode="&#x2022;" horiz-adv-x="778" 
d="M532 121h-286v286h286v-286z" />
    <glyph glyph-name="ellipsis" unicode="&#x2026;" horiz-adv-x="626" 
d="M181 0h-83v83h83v-83zM355 0h-83v83h83v-83zM529 0h-83v83h83v-83z" />
    <glyph glyph-name="perthousand" unicode="&#x2030;" horiz-adv-x="1154" 
d="M1091 145q0 -85 -41 -143t-96 -58t-97.5 57.5t-42.5 144.5q0 86 42 143.5t98 57.5q55 0 96 -57.5t41 -144.5zM744 145q0 -85 -41 -143t-96 -58t-97.5 57.5t-42.5 144.5q0 86 42 143.5t98 57.5q55 0 96 -57.5t41 -144.5zM340 548q0 -85 -41 -143t-96 -58t-97.5 57.5
t-42.5 144.5q0 86 42 143.5t98 57.5q55 0 96 -57.5t41 -144.5zM627 730q0 -6 -8 -18l-434 -752q-9 -16 -21 -16q-8 0 -14 6t-6 14l7 18l435 752q11 16 21 16q8 0 14 -6t6 -14zM1022 146q0 56 -19.5 98t-48.5 42q-6 0 -12.5 -1.5t-16.5 -10t-17.5 -22.5t-13 -41.5t-5.5 -65.5
q0 -39 6 -67t13.5 -41.5t18 -21.5t16 -9t11.5 -1q29 0 48.5 41.5t19.5 99.5zM271 549q0 56 -19.5 98t-48.5 42q-6 0 -12.5 -1.5t-16.5 -10t-17.5 -22.5t-13 -41.5t-5.5 -65.5q0 -39 6 -67t13.5 -41.5t18 -21.5t16 -9t11.5 -1q29 0 48.5 41.5t19.5 99.5zM675 146
q0 56 -19.5 98t-48.5 42q-6 0 -12.5 -1.5t-16.5 -10t-17.5 -22.5t-13 -41.5t-5.5 -65.5q0 -39 6 -67t13.5 -41.5t18 -21.5t16 -9t11.5 -1q29 0 48.5 41.5t19.5 99.5z" />
    <glyph glyph-name="permyriad" unicode="&#x2031;" horiz-adv-x="1471" 
d="M1431 145q0 -85 -41 -143t-96 -58t-97.5 57.5t-42.5 144.5q0 86 42 143.5t98 57.5q55 0 96 -57.5t41 -144.5zM1084 145q0 -85 -41 -143t-96 -58t-97.5 57.5t-42.5 144.5q0 86 42 143.5t98 57.5q55 0 96 -57.5t41 -144.5zM333 548q0 -85 -41 -143t-96 -58t-97.5 57.5
t-42.5 144.5q0 86 42 143.5t98 57.5q55 0 96 -57.5t41 -144.5zM737 145q0 -85 -41 -143t-96 -58t-97.5 57.5t-42.5 144.5q0 86 42 143.5t98 57.5q55 0 96 -57.5t41 -144.5zM620 730q0 -6 -8 -18l-434 -752q-9 -16 -21 -16q-8 0 -14 6t-6 14l7 18l435 752q11 16 21 16
q8 0 14 -6t6 -14zM1362 146q0 56 -19.5 98t-48.5 42q-6 0 -12.5 -1.5t-16.5 -10t-17.5 -22.5t-13 -41.5t-5.5 -65.5q0 -39 6 -67t13.5 -41.5t18 -21.5t16 -9t11.5 -1q29 0 48.5 41.5t19.5 99.5zM1015 146q0 56 -19.5 98t-48.5 42q-6 0 -12.5 -1.5t-16.5 -10t-17.5 -22.5
t-13 -41.5t-5.5 -65.5q0 -39 6 -67t13.5 -41.5t18 -21.5t16 -9t11.5 -1q29 0 48.5 41.5t19.5 99.5zM264 549q0 56 -19.5 98t-48.5 42q-6 0 -12.5 -1.5t-16.5 -10t-17.5 -22.5t-13 -41.5t-5.5 -65.5q0 -39 6 -67t13.5 -41.5t18 -21.5t16 -9t11.5 -1q29 0 48.5 41.5t19.5 99.5
zM668 146q0 56 -19.5 98t-48.5 42q-6 0 -12.5 -1.5t-16.5 -10t-17.5 -22.5t-13 -41.5t-5.5 -65.5q0 -39 6 -67t13.5 -41.5t18 -21.5t16 -9t11.5 -1q29 0 48.5 41.5t19.5 99.5z" />
    <glyph glyph-name="guilsinglleft" unicode="&#x2039;" horiz-adv-x="333" 
d="M277 0h-61l-105 219l105 220h61l-88 -220z" />
    <glyph glyph-name="guilsinglright" unicode="&#x203a;" horiz-adv-x="333" 
d="M222 219l-105 -219h-61l88 219l-88 220h61z" />
    <glyph glyph-name="referencemark" unicode="&#x203b;" horiz-adv-x="778" 
d="M624 15q-14 -14 -37 9l-198 198l-198 -198q-23 -23 -38 -9q-5 5 -6 10t2.5 10.5t5.5 8t8 8.5l198 198l-198 198q-24 24 -10 38q15 14 38 -9l198 -198l197 197q23 23 38 9q14 -13 -10 -37l-197 -198l198 -198q23 -23 9 -37zM217 250q0 -14 -10 -24.5t-25 -10.5
q-14 0 -24.5 10.5t-10.5 24.5q0 15 10.5 25t24.5 10q15 0 25 -10t10 -25zM424 457q0 -14 -10.5 -24.5t-24.5 -10.5t-24.5 10.5t-10.5 24.5t10.5 24.5t24.5 10.5t24.5 -10.5t10.5 -24.5zM424 44q0 -15 -10.5 -25t-24.5 -10t-24.5 10t-10.5 25q0 14 10.5 24.5t24.5 10.5
t24.5 -10.5t10.5 -24.5zM630 250q0 -14 -10 -24.5t-25 -10.5q-14 0 -24.5 10.5t-10.5 24.5q0 15 10.5 25t24.5 10q15 0 25 -10t10 -25z" />
    <glyph glyph-name="interrobang" unicode="&#x203d;" horiz-adv-x="472" 
d="M278 0h-83v83h83v-83zM402 550q0 -71 -49 -120q-83 -84 -83 -198v-57h-67v32q0 41 6 80l-5 355q-76 -8 -138 -53l-23 63q75 44 160 52v22h66v-23q69 -9 101 -51t32 -102zM324 552q0 76 -56 89l-3 -204q21 28 29 36q30 32 30 79z" />
    <glyph glyph-name="uni203F" unicode="&#x203f;" horiz-adv-x="597" 
d="M517 -70q-1 -33 -23.5 -58.5t-57 -39t-70.5 -20t-70 -6.5q-32 0 -67 6.5t-69 20t-56.5 39t-23.5 58.5h78q3 -33 47.5 -46.5t96.5 -13.5q47 0 90.5 13.5t46.5 46.5h78z" />
    <glyph glyph-name="uni2040" unicode="&#x2040;" horiz-adv-x="597" 
d="M517 568h-78q-3 33 -47.5 46.5t-96.5 13.5q-47 0 -90.5 -13.5t-46.5 -46.5h-78q1 33 23.5 58.5t57 39t70.5 20t70 6.5q32 0 67 -6.5t69 -20t56.5 -39t23.5 -58.5z" />
    <glyph glyph-name="fraction" unicode="&#x2044;" horiz-adv-x="558" 
d="M502 674l-400 -654h-46l400 654h46z" />
    <glyph glyph-name="quillbracketleft" unicode="&#x2045;" horiz-adv-x="361" 
d="M308 -309q-94 0 -165 48.5t-71 143.5v212q0 63 46.5 109t107.5 46v2q-23 0 -55 13q-100 39 -100 146q0 5 0.5 16t0.5 17v168q0 48 13 70q43 69 223 69v-61q-7 0 -22.5 0.5t-23.5 0.5q-112 0 -112 -69v-179q0 -5 -0.5 -16t-0.5 -16q0 -65 47.5 -97t110.5 -32v-62
q-66 0 -111.5 -33t-45.5 -98v-217q0 -55 31.5 -87.5t81.5 -32.5h45v-61z" />
    <glyph glyph-name="quillbracketright" unicode="&#x2046;" horiz-adv-x="361" 
d="M289 -110q0 -48 -13 -70q-43 -69 -222 -69v61q8 0 22 -0.5t22 -0.5q113 0 113 69v212q0 64 -46.5 96t-111.5 32v62q73 0 115.5 35t42.5 93v212q0 23 -10.5 38t-30 21t-35 8t-37.5 2q-8 0 -22 -0.5t-22 -0.5v61q179 0 222 -69q13 -22 13 -70v-202q0 -64 -45.5 -111
t-109.5 -47v-2q23 0 55 -13q48 -16 74 -55.5t26 -90.5v-201z" />
    <glyph glyph-name="discount" unicode="&#x2052;" 
d="M444 730q0 -7 -20 -44l-66 -134l-57 -117l-134 -272l-70 -143q-10 -18 -20 -19h-1q-20 0 -20 21q0 7 4.5 17.5t12 23.5t9.5 18l311 633l10 19q6 15 16 17l6 1q8 0 13.5 -6.5t5.5 -14.5zM199 644q-4 -17 -28 -17h-70q-26 0 -26 25v69q0 24 16 29q4 1 13 1h69q26 0 26 -25
v-82zM424 18q-4 -17 -28 -17h-70q-26 0 -26 25v69q0 24 16 29q4 1 13 1h69q26 0 26 -25v-82z" />
    <glyph glyph-name="uni2054" unicode="&#x2054;" horiz-adv-x="597" 
d="M517 -194h-78q-3 33 -47.5 46.5t-96.5 13.5q-47 0 -90.5 -13.5t-46.5 -46.5h-78q1 33 23.5 58.5t57 39t70.5 20t70 6.5q32 0 67 -6.5t69 -20t56.5 -39t23.5 -58.5z" />
    <glyph glyph-name="colonmonetary" unicode="&#x20a1;" horiz-adv-x="639" 
d="M588 34q-54 -33 -93 -44.5t-100 -11.5h-12v-74h-64v83q-113 29 -182.5 130.5t-69.5 229.5t70 230t182 130v83h64v-74h11q91 0 183 -35l-15 -81q-81 52 -169 52h-10v-610h13q55 0 94.5 12t91.5 49zM319 56v582q-73 -30 -118 -110.5t-45 -180.5q0 -97 43.5 -178.5
t119.5 -112.5z" />
    <glyph glyph-name="lira" unicode="&#x20a4;" horiz-adv-x="667" 
d="M600 148q0 -69 -39 -119.5t-100 -50.5q-44 0 -106 16q-55 14 -87 20t-73 3t-59 -25l-61 50q101 120 113 208h-121v64h120q0 4 -2 12l-6 19l-13 35h-99v64h77q-18 97 41 173.5t154 76.5q81 0 137.5 -59.5t56.5 -143.5h-78q0 52 -33.5 88.5t-82.5 36.5q-60 0 -95.5 -50
t-21.5 -113l2 -9h176v-64h-151l3 -8q7 -20 8 -26q4 -15 6 -32h134v-64h-133l-1 -4q-8 -72 -55 -149q51 0 163 -27q49 -14 87 -14q29 0 45 27.5t16 64.5h78z" />
    <glyph glyph-name="naira" unicode="&#x20a6;" horiz-adv-x="708" 
d="M654 250h-43v-250h-124l-126 250h-187v-250h-78v250h-43v64h43v66h-43v64h43v250h124l126 -250h187v250h78v-250h43v-64h-43v-66h43v-64zM263 444l-21 42l-67 137h-1v-179h89zM329 314l-34 66h-121v-66h155zM533 314v66h-155l33 -66h122zM533 71v179h-89l21 -42l67 -137
h1z" />
    <glyph glyph-name="won" unicode="&#x20a9;" horiz-adv-x="944" 
d="M929 250h-130l-73 -250h-87l-72 250h-197l-72 -250h-81l-73 250h-130v64h111l-19 66h-92v64h73l-73 250h86l72 -250h191l72 250h81l72 -250h197l72 250h72l-73 -250h73v-64h-92l-19 -66h111v-64zM549 314l-19 66h-122l-10 -33l-9 -33h160zM344 380h-154l19 -66h117z
M308 250h-81l1 -5q37 -154 39 -171h1q4 43 40 176zM766 380h-160l8 -27l11 -39h122zM729 250h-86q17 -63 28 -107.5t13 -57.5l2 -13h1q4 38 42 178zM512 444q-38 137 -43 177h-1q-5 -46 -42 -177h86z" />
    <glyph glyph-name="dong" unicode="&#x20ab;" horiz-adv-x="517" 
d="M486 545h-74v-510h-74v49q-62 -60 -140 -60q-68 0 -116 64.5t-48 157.5q0 92 49 156.5t119 64.5q77 0 139 -52v130h-144v61h144v88h71v-88h74v-61zM486 -64h-452v64h452v-64zM338 167v190q-36 52 -92 52q-52 0 -95 -39.5t-43 -124.5q0 -81 39 -122t90 -41q39 0 70 27
q31 28 31 58z" />
    <glyph glyph-name="Euro" unicode="&#x20ac;" horiz-adv-x="599" 
d="M549 34q-40 -34 -70 -45t-82 -11q-113 0 -194 108q-53 71 -72 169h-80l10 56h63q-1 12 -1 36t1 36h-73l10 56h70q19 98 72 169q81 108 194 108q76 0 141 -34l-15 -83q-52 53 -126 53q-78 0 -132 -89q-34 -55 -46 -124h276l-10 -56h-273q-1 -12 -1 -36t1 -36h261l-10 -56
h-244q13 -67 46 -124q56 -89 132 -89q52 0 81 12.5t65 49.5z" />
    <glyph glyph-name="peso" unicode="&#x20b1;" horiz-adv-x="639" 
d="M582 492q0 -84 -68 -143.5t-162 -59.5h-167v-83h134v-64h-134v-142h-89v142h-76v64h76v488h249q101 0 169 -60t68 -142zM501 492q0 65 -48.5 105.5t-129.5 40.5h-141v-291h141q83 0 130.5 41.5t47.5 103.5z" />
    <glyph glyph-name="centigrade" unicode="&#x2103;" horiz-adv-x="861" 
d="M810 42q0 -7 -8 -12l-15 -9q-77 -42 -175 -42q-96 0 -172 55.5t-114 138.5t-38 174q0 146 93 258t235 112q93 0 183 -35l-14 -82q-8 3 -22 13q-80 40 -148 40q-57 0 -104 -28t-75 -73.5t-43.5 -98t-15.5 -104.5q0 -73 26 -141t82 -116.5t129 -48.5q75 0 119 20
q20 9 71 42q0 -9 3 -30.5t3 -32.5zM222 585q0 -43 -28 -75t-72 -37h-9q-50 0 -81 32.5t-31 78.5q0 44 28 75t71 36h9q49 0 81 -32.5t32 -77.5zM182 584v7q-5 29 -25 46.5t-47 17.5q-28 0 -49 -21.5t-21 -49.5v-7q5 -28 25 -46t46 -18q29 0 50 21t21 50z" />
    <glyph glyph-name="numero" unicode="&#x2116;" horiz-adv-x="819" 
d="M741 400q0 -49 -27.5 -92.5t-75.5 -43.5t-75.5 43.5t-27.5 92.5q0 56 27 100.5t76 44.5q48 0 75.5 -46.5t27.5 -98.5zM739 160h-202v59h202v-59zM459 0h-125l-123 443q-30 110 -38 182v-625h-78v695h126l147 -549l12 -75v624h79v-695zM675 401q0 25 -1.5 39.5t-10 29
t-25.5 14.5t-26 -14.5t-10.5 -29.5t-1.5 -39q0 -71 38 -71q19 0 28 21.5t9 49.5z" />
    <glyph glyph-name="published" unicode="&#x2117;" horiz-adv-x="694" 
d="M694 347q0 -144 -101.5 -245.5t-245.5 -101.5t-245.5 101.5t-101.5 245.5t101.5 245.5t245.5 101.5t245.5 -101.5t101.5 -245.5zM656 347q0 128 -90.5 218.5t-218.5 90.5t-218.5 -90.5t-90.5 -218.5t90.5 -218.5t218.5 -90.5t218.5 90.5t90.5 218.5zM518 439
q0 -53 -43 -90.5t-102 -37.5h-105v-182h-56v437h157q64 0 106.5 -37.5t42.5 -89.5zM467 439q0 40 -30.5 65.5t-81.5 25.5h-89v-183h89q53 0 82.5 26.5t29.5 65.5z" />
    <glyph glyph-name="recipe" unicode="&#x211e;" horiz-adv-x="646" 
d="M617 0h-89l-45 76l-74 -68l-44 48l84 76l-109 185h-158v-317h-86v694h241q106 0 179 -55.5t73 -130.5q0 -61 -46.5 -110t-123.5 -72l87 -142l68 62l43 -47l-78 -71zM508 508q0 55 -49 92.5t-133 37.5h-144v-260h144q85 0 133.5 37t48.5 93z" />
    <glyph glyph-name="servicemark" unicode="&#x2120;" horiz-adv-x="858" 
d="M299 378q0 -51 -38 -88.5t-96 -37.5q-73 0 -139 41l9 49q58 -49 129 -49q39 0 63.5 24t24.5 55q0 35 -25 56q-13 11 -24 15.5t-50 13.5q-62 16 -87 43q-32 33 -32 76q0 47 37.5 82.5t97.5 35.5q61 0 110 -30l-9 -48q-45 39 -101 39q-40 0 -64 -21.5t-24 -50.5
q0 -26 21 -47q17 -16 62 -26q45 -11 64 -20t40 -30q31 -33 31 -82zM764 265h-47v372h-1q-2 -9 -25 -74l-29 -76l-79 -209h-44l-89 233q-39 99 -43 126h-1v-372h-47v416h68l21 -52l94 -248q14 -42 19 -60h1q6 30 55 157l78 203h69v-416z" />
    <glyph glyph-name="trademark" unicode="&#x2122;" horiz-adv-x="933" 
d="M386 655h-80q-3 0 -10.5 0.5t-11.5 0.5h-53v-374h-53v374h-54q-4 0 -11.5 -0.5t-10.5 -0.5h-80v39h364v-39zM851 282h-47v372h-1q-2 -8 -25 -74l-29 -76l-79 -209h-44l-89 233q-39 100 -43 126h-1v-372h-47v416h68l21 -52l94 -249q14 -40 19 -60h1q6 30 55 158l78 203h69
v-416z" />
    <glyph glyph-name="ohm" unicode="&#x2126;" horiz-adv-x="722" 
d="M677 0h-245q1 55 17.5 103.5t53.5 124.5q24 52 37 81t24.5 72t11.5 80q0 84 -61.5 139t-154.5 55q-91 0 -153 -55t-62 -139q0 -39 13.5 -85t26.5 -76t40 -84q62 -128 64 -216h-245v71h85q6 0 18 -0.5t18 -0.5h53q-13 54 -69 149q-33 55 -49 85.5t-30 74t-14 83.5
q0 105 88.5 179.5t216.5 74.5q127 0 215.5 -74.5t88.5 -179.5q0 -39 -14 -83t-28.5 -71.5t-41.5 -72.5q-64 -108 -78 -165h53q6 0 18 0.5t18 0.5h85v-71z" />
    <glyph glyph-name="uni2127" unicode="&#x2127;" horiz-adv-x="722" 
d="M678 623h-85q-6 0 -18 0.5t-18 0.5h-53q13 -54 69 -149q33 -55 49 -85.5t30 -74t14 -83.5q0 -105 -88.5 -179.5t-216.5 -74.5q-127 0 -215.5 74.5t-88.5 179.5q0 39 14 83t28.5 71.5t41.5 72.5q64 108 78 165h-53q-6 0 -18 -0.5t-18 -0.5h-85v71h245q-1 -55 -17.5 -103.5
t-53.5 -124.5q-24 -52 -37 -81t-24.5 -72t-11.5 -80q0 -84 61.5 -139t154.5 -55q91 0 153 55t62 139q0 39 -13.5 85t-26.5 76t-40 84q-62 128 -64 216h245v-71z" />
    <glyph glyph-name="estimated" unicode="&#x212e;" horiz-adv-x="669" 
d="M640 362h-527q0 -70 17 -121q26 -78 85 -131.5t136 -58.5h13q101 0 200 32q11 3 32.5 12t32.5 12q0 -8 3 -28t3 -30q0 -3 -1 -5t-4 -3.5t-4.5 -2.5t-5.5 -2.5t-5 -1.5q-127 -44 -246 -44q-143 0 -240.5 103.5t-100.5 244.5v7q0 91 37 173.5t113.5 138t175.5 55.5
q106 0 180 -62q106 -90 106 -288zM561 417q-5 102 -64.5 168t-148.5 66q-88 0 -154 -73.5t-75 -160.5h442z" />
    <glyph glyph-name="uni2190" unicode="&#x2190;" horiz-adv-x="1000" 
d="M944 251q0 -20 -27 -20h-758q117 -101 138 -240h-40q-18 89 -70 157t-131 102v2q80 34 131 102t70 157h40q-21 -139 -138 -240h758q27 0 27 -20z" />
    <glyph glyph-name="uni2191" unicode="&#x2191;" 
d="M472 424q-128 29 -202 138v-736q0 -13 -10 -18t-20 0t-10 18v736q-74 -109 -202 -138v40q85 20 145.5 82.5t76.5 147.5q16 -85 76.5 -147.5t145.5 -82.5v-40z" />
    <glyph glyph-name="uni2192" unicode="&#x2192;" horiz-adv-x="1000" 
d="M943 250q-80 -34 -131 -102t-70 -157h-40q21 139 138 240h-758q-27 0 -27 20t27 20h758q-117 101 -138 240h40q18 -89 70 -157t131 -102v-2z" />
    <glyph glyph-name="uni2193" unicode="&#x2193;" 
d="M472 36q-85 -20 -145.5 -82.5t-76.5 -147.5q-16 85 -76.5 147.5t-145.5 82.5v40q128 -29 202 -138v736q0 13 10 18t20 0t10 -18v-736q74 109 202 138v-40z" />
    <glyph glyph-name="minus" unicode="&#x2212;" horiz-adv-x="778" 
d="M721 250q0 -20 -34 -20h-597q-34 0 -34 20t33 20h599q33 0 33 -20z" />
    <glyph glyph-name="fraction.alt" unicode="&#x2215;" horiz-adv-x="0" 
d="M223 674l-400 -654h-46l400 654h46z" />
    <glyph glyph-name="asterisk.math" unicode="&#x2217;" 
d="M435 160q0 -14 -10 -25.5t-25 -11.5q-12 0 -41 22q-11 7 -39 27.5t-44 30.5q0 -23 4 -68t4 -68q0 -18 -9.5 -28t-24.5 -10q-16 0 -25.5 11t-9.5 28q0 22 4 67t4 68q-16 -10 -44 -30.5t-39 -27.5q-29 -22 -41 -22q-15 0 -25 11.5t-10 25.5q0 9 5.5 17t10.5 11t17.5 9
t14.5 7q70 40 87 46v2q-17 6 -87 46q-2 1 -14.5 7t-17.5 9t-10.5 11t-5.5 17q0 14 10 25.5t25 11.5q12 0 41 -22q11 -7 39 -27.5t44 -30.5q0 22 -4 67.5t-4 68.5q0 18 9.5 28t24.5 10q16 0 25.5 -11t9.5 -28q0 -23 -4 -68t-4 -67q16 10 44 30.5t39 27.5q29 22 41 22
q15 0 25 -11.5t10 -25.5q0 -9 -5.5 -17t-10.5 -11t-17.5 -9t-14.5 -7q-70 -40 -87 -46v-2q17 -6 87 -46q2 -1 14.5 -7t17.5 -9t10.5 -11t5.5 -17z" />
    <glyph glyph-name="radical" unicode="&#x221a;" horiz-adv-x="472" 
d="M522 743q0 -18 -18 -20h-98q-2 -16 -10 -45.5t-10 -36.5l-173 -685l-9 -34q-3 -26 -28 -26h-14l-48 243l-48 -86l-32 30l-10 13l132 233l48 -246q1 8 5 22.5t5 19.5q22 91 72 284t74 294q1 5 3.5 17t4.5 17.5t6 12.5t11.5 10t18.5 3h90q28 0 28 -20z" />
    <glyph glyph-name="infinity" unicode="&#x221e;" horiz-adv-x="1000" 
d="M458 213l-45 60q-24 31 -38 47.5t-37.5 39t-48.5 33t-52 10.5q-57 0 -88 -54t-31 -127q0 -78 30 -134.5t87 -56.5q124 0 223 182zM882 222q0 78 -30 134.5t-87 56.5q-124 0 -223 -182l45 -60q24 -31 38 -47.5t37.5 -39t48.5 -33t52 -10.5q57 0 88 54t31 127zM944 222
q0 -99 -61 -171t-151 -72q-42 0 -82 23t-66.5 51t-59.5 72l-22 29q-103 -178 -233 -178q-91 0 -152 73t-61 173q0 99 61 171t151 72q42 0 82 -23t66.5 -51t59.5 -72l22 -29q103 178 233 178q91 0 152 -73t61 -173z" />
    <glyph glyph-name="anglearc" unicode="&#x2222;" horiz-adv-x="778" 
d="M721 20q0 -11 -8.5 -17t-18.5 -2l-136 50q-30 -71 -75 -126q-6 -8 -16 -8q-8 0 -14 6t-6 14q0 6 4 12q43 53 69 116l-451 166q-13 5 -13 19t13 19l451 166q-26 63 -69 116q-4 6 -4 12q0 8 6 14t14 6q10 0 16 -8q45 -55 75 -126l136 50q10 4 18.5 -2t8.5 -17
q0 -14 -13 -19l-137 -50q26 -80 26 -161t-26 -161l137 -50q13 -5 13 -19zM557 250q0 75 -23 147l-400 -147l400 -147q23 72 23 147z" />
    <glyph glyph-name="diameter" unicode="&#x2300;" horiz-adv-x="778" 
d="M721 563q0 -9 -6 -14l-93 -93q78 -88 78 -206q0 -129 -91 -220t-220 -91q-118 0 -205 77l-94 -93q-4 -6 -14 -6q-8 0 -14 6t-6 14q0 9 6 14l93 94q-77 88 -77 205q0 129 91 220t220 91q117 0 205 -77l93 93q5 6 14 6q8 0 14 -6t6 -14zM660 250q0 101 -66 177l-382 -382
q76 -66 177 -66q113 0 192 79.5t79 191.5zM566 456q-78 65 -177 65q-113 0 -192 -79.5t-79 -191.5q0 -100 66 -177z" />
    <glyph glyph-name="angleleft" unicode="&#x2329;" horiz-adv-x="389" 
d="M333 -229q0 -8 -6 -14t-14 -6q-4 0 -7.5 1.5t-6.5 5.5t-5.5 7t-4.5 9t-3 9.5t-3 10t-3 8.5l-161 422q-9 24 -9 27q0 6 5 18t5 13l24 63l138 360q14 43 26 45l6 1q18 0 18 -21q0 -6 -1 -8q-7 -20 -15.5 -42.5t-19 -50t-16.5 -42.5l-116 -304l-8 -20q0 -1 -1 -3.5
t-1.5 -4.5t-0.5 -4q0 -4 8 -25l20 -52l138 -361l4 -11q10 -30 10 -31z" />
    <glyph glyph-name="angleright" unicode="&#x232a;" horiz-adv-x="389" 
d="M278 251q0 -6 -5 -18t-5 -13l-24 -63l-138 -362l-8 -21q-9 -22 -21 -23h-2q-8 0 -14 6t-6 14q0 4 5 17l164 431l8 20q0 1 1 3.5t1.5 4.5t0.5 4q0 3 -9 27l-158 416q-12 27 -13 35v2q0 15 15 19l6 1q7 0 13 -7t9 -14.5t6 -16.5t4 -11l160 -422q10 -22 10 -29z" />
    <glyph glyph-name="blanksymbol" unicode="&#x2422;" horiz-adv-x="517" 
d="M480 223q0 -99 -55 -166.5t-131 -67.5q-72 0 -134 57v-46h-78v470l-39 -35l-43 47l82 75v137h75v-69l51 47l44 -47l-95 -86v-143q72 59 161 59q69 0 115.5 -68.5t46.5 -163.5zM402 223q0 87 -41 129t-94 42q-68 0 -107 -59v-221q35 -64 97 -64q55 0 100 42.5t45 130.5z
" />
    <glyph glyph-name="uni2423" unicode="&#x2423;" 
d="M458 -97q0 -9 -6.5 -15t-14.5 -6h-374q-8 0 -14.5 6t-6.5 15v316q0 13 10.5 18.5t21 0t10.5 -18.5v-295h332v295q0 13 10.5 18.5t21 0t10.5 -18.5v-316z" />
    <glyph glyph-name="openbullet" unicode="&#x25e6;" horiz-adv-x="778" 
d="M532 121h-286v286h286v-286zM492 264q0 43 -30 73t-73 30t-73 -30t-30 -73t30 -73t73 -30t73 30t30 73z" />
    <glyph glyph-name="uni266A" unicode="&#x266a;" horiz-adv-x="611" 
d="M556 136q0 -25 -20 -25h-2q-11 1 -15.5 12t-4.5 28l-1 17q-3 29 -10 58.5t-19.5 63t-21 54t-27 60t-24.5 53.5q-2 6 -10.5 26t-13.5 30v-308l-1 -81q0 -2 0.5 -7t0.5 -8q-4 -65 -53 -102t-113 -37q-65 0 -115 39t-50 100q0 59 49.5 90t116.5 31q78 0 125 -39v501
q0 31 21 31q15 0 19 -20v-18q0 -8 2 -26q12 -82 76.5 -223.5t79.5 -210.5q8 -38 11 -89z" />
    <glyph glyph-name="married" unicode="&#x26ad;" 
d="M589 250q0 -87 -61.5 -154t-148.5 -67q-86 0 -129 43h-1q-20 -21 -55.5 -32t-69.5 -11q-90 0 -151.5 65.5t-61.5 156.5t62.5 156.5t152.5 65.5q70 0 124 -43q20 21 55.5 32t69.5 11q89 0 151.5 -66.5t62.5 -156.5zM201 121q-40 68 -40 130q0 60 40 130q-49 22 -84 22
q-60 -1 -99 -45t-39 -106q0 -63 39 -108t108 -45q25 0 75 22zM520 252q0 62 -39 106t-99 45q-35 0 -84 -22q40 -70 40 -130q0 -62 -40 -130q50 -22 75 -22q68 0 107.5 45t39.5 108zM262 234v14q0 11 -12 73h-1q-12 -48 -12 -70q0 -41 13 -70q0 2 5.5 22t6.5 31z" />
    <glyph glyph-name="divorced" unicode="&#x26ae;" 
d="M164 251q0 -85 -51.5 -154t-133.5 -69q-81 0 -130.5 70t-49.5 153q0 84 46.5 148.5t122.5 73.5q2 0 7 0.5t7 0.5q81 0 131.5 -69.5t50.5 -153.5zM700 251q0 -85 -51 -154t-132 -69q-80 0 -131 70t-51 153q0 82 45.5 147t126.5 75q2 0 6 0.5t6 0.5q81 0 131 -70t50 -153z
M289 -113h-78v728h78v-728zM88 248v25q-5 55 -33.5 92.5t-75.5 37.5q-42 0 -68 -28t-34 -60.5t-8 -68.5v-11q7 -57 34 -96t78 -39q39 0 64.5 26t34 57t8.5 65zM630 250q0 59 -28 106t-82 47q-49 0 -77 -39t-32 -91v-25q0 -58 27 -103t81 -45q50 0 77.5 39.5t32.5 94.5
q1 5 1 16z" />
    <glyph glyph-name="dblbracketleft" unicode="&#x27e6;" horiz-adv-x="403" 
d="M380 -249h-262v1000h262v-40h-98v-920h98v-40zM242 -209v920h-84v-920h84z" />
    <glyph glyph-name="dblbracketright" unicode="&#x27e7;" horiz-adv-x="403" 
d="M284 -249h-261v40h97v920h-97v40h261v-1000zM244 -209v920h-84v-920h84z" />
    <glyph glyph-name="acute.cap" unicode="&#xea00;" 
d="M441 618l-197 -122h-89l175 122h111z" />
    <glyph glyph-name="uni0301.cap" unicode="&#xea01;" horiz-adv-x="0" 
d="M-99 944l-150 -167h-61l133 167h78z" />
    <glyph glyph-name="breve.cap" unicode="&#xea02;" 
d="M419 674q-1 -77 -51 -127.5t-118 -50.5q-67 0 -117 50t-51 128h61q1 -51 34 -81t74 -30q40 0 73 29.5t34 81.5h61z" />
    <glyph glyph-name="space_uni0306_uni0301.cap" unicode="&#xea03;" 
d="M419 674q-1 -77 -51 -127.5t-118 -50.5q-67 0 -117 50t-51 128h61q1 -51 34 -81t74 -30q40 0 73 29.5t34 81.5h61zM394 831l-197 -122h-89l175 122h111z" />
    <glyph glyph-name="space_uni0306_uni0301" unicode="&#xea04;" 
d="M419 700q-1 -77 -51 -127.5t-118 -50.5q-67 0 -117 50t-51 128h61q1 -51 34 -81t74 -30q40 0 73 29.5t34 81.5h61zM394 857l-197 -122h-89l175 122h111z" />
    <glyph glyph-name="space_uni032E" unicode="&#xea05;" 
d="M419 -66q-1 -77 -51 -127.5t-118 -50.5q-67 0 -117 50t-51 128h61q1 -51 34 -81t74 -30q40 0 73 29.5t34 81.5h61z" />
    <glyph glyph-name="space_uni032F" unicode="&#xea06;" 
d="M419 -244h-61q-1 51 -34 81t-74 30q-40 0 -73 -29.5t-34 -81.5h-61q1 77 51 127.5t118 50.5q67 0 117 -50t51 -128z" />
    <glyph glyph-name="uni0306.cap" unicode="&#xea07;" horiz-adv-x="0" 
d="M-71 950q-1 -77 -51 -127.5t-118 -50.5q-67 0 -117 50t-51 128h61q1 -51 34 -81t74 -30q40 0 73 29.5t34 81.5h61z" />
    <glyph glyph-name="space_uni0306_uni0300.cap" unicode="&#xea08;" 
d="M419 674q-1 -77 -51 -127.5t-118 -50.5q-67 0 -117 50t-51 128h61q1 -51 34 -81t74 -30q40 0 73 29.5t34 81.5h61zM394 709l-175 122h-111l197 -122h89z" />
    <glyph glyph-name="space_uni0306_uni0300" unicode="&#xea09;" 
d="M419 700q-1 -77 -51 -127.5t-118 -50.5q-67 0 -117 50t-51 128h61q1 -51 34 -81t74 -30q40 0 73 29.5t34 81.5h61zM394 735l-175 122h-111l197 -122h89z" />
    <glyph glyph-name="space_uni0306_uni0309.cap" unicode="&#xea0a;" 
d="M419 674q-1 -77 -51 -127.5t-118 -50.5q-67 0 -117 50t-51 128h61q1 -51 34 -81t74 -30q40 0 73 29.5t34 81.5h61zM348 826q0 -33 -27 -50q-4 -3 -13 -9q-28 -17 -39 -29t-11 -29v-19l-1 -1h-26l-1 1v19q0 67 54 96q14 9 14 21q0 21 -12 30q-14 9 -42 9q-50 0 -74 -44h-1
h-1l-14 40q34 43 90 43q50 0 77 -20t27 -58z" />
    <glyph glyph-name="space_uni0306_uni0309" unicode="&#xea0b;" 
d="M419 700q-1 -77 -51 -127.5t-118 -50.5q-67 0 -117 50t-51 128h61q1 -51 34 -81t74 -30q40 0 73 29.5t34 81.5h61zM348 852q0 -33 -27 -50q-4 -3 -13 -9q-28 -17 -39 -29t-11 -29v-19l-1 -1h-26l-1 1v19q0 67 54 96q14 9 14 21q0 21 -12 30q-14 9 -42 9q-50 0 -74 -44h-1
h-1l-14 40q34 43 90 43q50 0 77 -20t27 -58z" />
    <glyph glyph-name="space_uni0311.cap" unicode="&#xea0c;" 
d="M419 496h-61q-1 51 -34 81t-74 30q-40 0 -73 -29.5t-34 -81.5h-61q1 77 51 127.5t118 50.5q67 0 117 -50t51 -128z" />
    <glyph glyph-name="space_uni0311" unicode="&#xea0d;" 
d="M419 522h-61q-1 51 -34 81t-74 30q-40 0 -73 -29.5t-34 -81.5h-61q1 77 51 127.5t118 50.5q67 0 117 -50t51 -128z" />
    <glyph glyph-name="uni0311.cap" unicode="&#xea0e;" horiz-adv-x="0" 
d="M-71 772h-61q-1 51 -34 81t-74 30q-40 0 -73 -29.5t-34 -81.5h-61q1 77 51 127.5t118 50.5q67 0 117 -50t51 -128z" />
    <glyph glyph-name="space_uni0306_uni0303.cap" unicode="&#xea0f;" 
d="M419 674q-1 -77 -51 -127.5t-118 -50.5q-67 0 -117 50t-51 128h61q1 -51 34 -81t74 -30q40 0 73 29.5t34 81.5h61zM417 848q-1 -55 -30.5 -87t-67.5 -32q-27 0 -64 25q-47 33 -71 33q-37 0 -39 -58h-61q1 55 30.5 87t67.5 32q27 0 64 -25q47 -33 71 -33q37 0 39 58h61z
" />
    <glyph glyph-name="space_uni0306_uni0303" unicode="&#xea10;" 
d="M419 700q-1 -77 -51 -127.5t-118 -50.5q-67 0 -117 50t-51 128h61q1 -51 34 -81t74 -30q40 0 73 29.5t34 81.5h61zM417 874q-1 -55 -30.5 -87t-67.5 -32q-27 0 -64 25q-47 33 -71 33q-37 0 -39 -58h-61q1 55 30.5 87t67.5 32q27 0 64 -25q47 -33 71 -33q37 0 39 58h61z
" />
    <glyph glyph-name="caron.cap" unicode="&#xea11;" 
d="M406 620l-126 -134h-60l-126 134h59l97 -97l97 97h59z" />
    <glyph glyph-name="uni030C.cap" unicode="&#xea14;" horiz-adv-x="0" 
d="M-85 947l-125 -172h-60l-125 172h59l96 -123l96 123h59z" />
    <glyph glyph-name="circumflex.cap" unicode="&#xea15;" 
d="M406 486h-59l-97 97l-97 -97h-59l126 134h60z" />
    <glyph glyph-name="space_uni0302_uni0301.cap" unicode="&#xea16;" 
d="M406 486h-59l-97 97l-97 -97h-59l126 134h60zM393 777l-197 -122h-89l175 122h111z" />
    <glyph glyph-name="space_uni0302_uni0301" unicode="&#xea17;" 
d="M406 525h-59l-97 97l-97 -97h-59l126 134h60zM393 816l-197 -122h-89l175 122h111z" />
    <glyph glyph-name="uni0302.cap" unicode="&#xea18;" horiz-adv-x="0" 
d="M-85 775h-59l-96 123l-96 -123h-59l125 172h60z" />
    <glyph glyph-name="space_uni0302_uni0300.cap" unicode="&#xea19;" 
d="M406 486h-59l-97 97l-97 -97h-59l126 134h60zM393 655l-175 122h-111l197 -122h89z" />
    <glyph glyph-name="space_uni0302_uni0300" unicode="&#xea1a;" 
d="M406 525h-59l-97 97l-97 -97h-59l126 134h60zM393 694l-175 122h-111l197 -122h89z" />
    <glyph glyph-name="space_uni0302_uni0309.cap" unicode="&#xea1b;" 
d="M406 486h-59l-97 97l-97 -97h-59l126 134h60zM444 772q0 -33 -27 -50q-4 -3 -13 -9q-28 -17 -39 -29t-11 -29v-19l-1 -1h-26l-1 1v19q0 67 54 96q14 9 14 21q0 21 -12 30q-14 9 -42 9q-50 0 -74 -44h-1h-1l-14 40q34 43 90 43q50 0 77 -20q27 -19 27 -58z" />
    <glyph glyph-name="space_uni0302_uni0309" unicode="&#xea1c;" 
d="M406 525h-59l-97 97l-97 -97h-59l126 134h60zM444 811q0 -33 -27 -50q-4 -3 -13 -9q-28 -17 -39 -29t-11 -29v-19l-1 -1h-26l-1 1v19q0 67 54 96q14 9 14 21q0 21 -12 30q-14 9 -42 9q-50 0 -74 -44h-1h-1l-14 40q34 43 90 43q50 0 77 -20q27 -19 27 -58z" />
    <glyph glyph-name="space_uni0302_uni0303.cap" unicode="&#xea1d;" 
d="M406 486h-59l-97 97l-97 -97h-59l126 134h60zM417 794q-1 -55 -30.5 -87t-67.5 -32q-27 0 -64 25q-47 33 -71 33q-37 0 -39 -58h-61q1 55 30.5 87t67.5 32q27 0 64 -25q47 -33 71 -33q37 0 39 58h61z" />
    <glyph glyph-name="space_uni0302_uni0303" unicode="&#xea1e;" 
d="M406 525h-59l-97 97l-97 -97h-59l126 134h60zM417 833q-1 -55 -30.5 -87t-67.5 -32q-27 0 -64 25q-47 33 -71 33q-37 0 -39 -58h-61q1 55 30.5 87t67.5 32q27 0 64 -25q47 -33 71 -33q37 0 39 58h61z" />
    <glyph glyph-name="space_uni0326" unicode="&#xea1f;" 
d="M287 -153l-37 -113h-37l22 112h-22v75h74v-74z" />
    <glyph glyph-name="space_uni030F.cap" unicode="&#xea25;" 
d="M392 496h-61l-80 167h78zM225 496h-61l-80 167h78z" />
    <glyph glyph-name="space_uni030F" unicode="&#xea26;" 
d="M392 527h-61l-80 167h78zM225 527h-61l-80 167h78z" />
    <glyph glyph-name="uni030F.cap" unicode="&#xea27;" horiz-adv-x="0" 
d="M-98 777h-61l-80 167h78zM-265 777h-61l-80 167h78z" />
    <glyph glyph-name="dieresis.cap" unicode="&#xea28;" 
d="M203 486h-80v80h80v-80zM377 486h-80v80h80v-80z" />
    <glyph glyph-name="space_uni0308_uni0301.cap" unicode="&#xea29;" 
d="M203 486h-80v80h80v-80zM377 486h-80v80h80v-80zM441 740l-197 -122h-89l175 122h111z" />
    <glyph glyph-name="space_uni0308_uni0301" unicode="&#xea2a;" 
d="M217 571h-80v80h80v-80zM363 571h-80v80h80v-80zM441 829l-197 -122h-89l175 122h111z" />
    <glyph glyph-name="space_uni0308_uni030C.cap" unicode="&#xea2b;" 
d="M203 486h-80v80h80v-80zM377 486h-80v80h80v-80zM406 742l-126 -134h-60l-126 134h59l97 -97l97 97h59z" />
    <glyph glyph-name="space_uni0308_uni030C" unicode="&#xea2c;" 
d="M217 571h-80v80h80v-80zM363 571h-80v80h80v-80zM406 831l-126 -134h-60l-126 134h59l97 -97l97 97h59z" />
    <glyph glyph-name="uni0308.cap" unicode="&#xea2d;" horiz-adv-x="0" 
d="M-273 821h-80v80h80v-80zM-127 821h-80v80h80v-80z" />
    <glyph glyph-name="space_uni0308_uni0300.cap" unicode="&#xea2e;" 
d="M203 486h-80v80h80v-80zM377 486h-80v80h80v-80zM345 618h-89l-197 122h111z" />
    <glyph glyph-name="space_uni0308_uni0300" unicode="&#xea2f;" 
d="M217 571h-80v80h80v-80zM363 571h-80v80h80v-80zM345 707h-89l-197 122h111z" />
    <glyph glyph-name="dotaccent.cap" unicode="&#xea30;" horiz-adv-x="278" 
d="M183 486h-89v89h89v-89z" />
    <glyph glyph-name="uni0307.cap" unicode="&#xea31;" horiz-adv-x="0" 
d="M-196 816h-89v89h89v-89z" />
    <glyph glyph-name="grave.cap" unicode="&#xea32;" 
d="M345 496h-89l-197 122h111z" />
    <glyph glyph-name="uni0300.cap" unicode="&#xea33;" horiz-adv-x="0" 
d="M-170 777h-61l-150 167h78z" />
    <glyph glyph-name="space_uni0309.cap" unicode="&#xea34;" 
d="M347 623q0 -33 -27 -50q-4 -3 -13 -9q-28 -17 -39 -29t-11 -29v-19l-1 -1h-26l-1 1v19q0 67 54 96q14 9 14 21q0 21 -12 30q-14 9 -42 9q-50 0 -74 -44h-1h-1l-14 40q34 43 90 43q50 0 77 -20q27 -19 27 -58z" />
    <glyph glyph-name="space_uni0309" unicode="&#xea35;" 
d="M347 640q0 -33 -27 -50q-4 -3 -13 -9q-28 -17 -39 -29t-11 -29v-19l-1 -1h-26l-1 1v19q0 67 54 96q14 9 14 21q0 21 -12 30q-14 9 -42 9q-50 0 -74 -44h-1h-1l-14 40q34 43 90 43q50 0 77 -20q27 -19 27 -58z" />
    <glyph glyph-name="uni0309.cap" unicode="&#xea36;" horiz-adv-x="0" 
d="M-143 890q0 -33 -27 -50q-4 -3 -13 -9q-28 -17 -39 -29t-11 -29v-19l-1 -1h-26l-1 1v19q0 67 54 96q14 9 14 21q0 21 -12 30q-14 9 -42 9q-50 0 -74 -44h-1h-1l-14 40q34 43 90 43q50 0 77 -20t27 -58z" />
    <glyph glyph-name="hungarumlaut.cap" unicode="&#xea38;" 
d="M249 663l-80 -167h-61l63 167h78zM416 663l-80 -167h-61l63 167h78z" />
    <glyph glyph-name="uni030B.cap" unicode="&#xea39;" horiz-adv-x="0" 
d="M-241 944l-80 -167h-61l63 167h78zM-74 944l-80 -167h-61l63 167h78z" />
    <glyph glyph-name="space_uni0332" unicode="&#xea3a;" 
d="M431 -187h-361v64h361v-64z" />
    <glyph glyph-name="macron.cap" unicode="&#xea3b;" 
d="M431 506h-361v64h361v-64z" />
    <glyph glyph-name="macron.cap.alt" unicode="&#xea3c;" 
d="M348 506h-195v64h195v-64z" />
    <glyph glyph-name="macron.alt" unicode="&#xea3d;" 
d="M348 579h-195v64h195v-64z" />
    <glyph glyph-name="space_uni0331" unicode="&#xea3e;" 
d="M431 -187h-361v64h361v-64z" />
    <glyph glyph-name="uni0304.cap" unicode="&#xea3f;" horiz-adv-x="0" 
d="M-59 829h-361v64h361v-64z" />
    <glyph glyph-name="ring.cap" unicode="&#xea40;" horiz-adv-x="667" 
d="M383 528q0 37 -50 37t-50 -37t50 -37t50 37zM444 527q0 -33 -32 -58t-79 -25t-79 24.5t-32 60.5q0 33 32 58t79 25t79 -24.5t32 -60.5z" />
    <glyph glyph-name="space_uni030A_uni0301.cap" unicode="&#xea41;" horiz-adv-x="667" 
d="M383 528q0 37 -50 37t-50 -37t50 -37t50 37zM444 527q0 -33 -32 -58t-79 -25t-79 24.5t-32 60.5q0 33 32 58t79 25t79 -24.5t32 -60.5zM476 769l-197 -122h-89l175 122h111z" />
    <glyph glyph-name="space_uni030A_uni0301" unicode="&#xea42;" horiz-adv-x="667" 
d="M383 601q0 37 -50 37t-50 -37t50 -37t50 37zM444 600q0 -33 -32 -58t-79 -25t-79 24.5t-32 60.5q0 33 32 58t79 25t79 -24.5t32 -60.5zM476 842l-197 -122h-89l175 122h111z" />
    <glyph glyph-name="uni030A.cap" unicode="&#xea43;" horiz-adv-x="0" 
d="M-191 851q0 37 -50 37t-50 -37t50 -37t50 37zM-130 850q0 -33 -32 -58t-79 -25t-79 24.5t-32 60.5q0 33 32 58t79 25t79 -24.5t32 -60.5z" />
    <glyph glyph-name="tilde.cap" unicode="&#xea44;" 
d="M417 605q-1 -55 -30.5 -87t-67.5 -32q-27 0 -64 25q-47 33 -71 33q-37 0 -39 -58h-61q1 55 30.5 87t67.5 32q27 0 64 -25q47 -33 71 -33q37 0 39 58h61z" />
    <glyph glyph-name="space_uni0330" unicode="&#xea45;" 
d="M417 -95q-1 -55 -30.5 -87t-67.5 -32q-27 0 -64 25q-47 33 -71 33q-37 0 -39 -58h-61q1 55 30.5 87t67.5 32q27 0 64 -25q47 -33 71 -33q37 0 39 58h61z" />
    <glyph glyph-name="uni0303.cap" unicode="&#xea46;" horiz-adv-x="0" 
d="M-73 920q-1 -55 -30.5 -87t-67.5 -32q-27 0 -64 25q-47 33 -71 33q-37 0 -39 -58h-61q1 55 30.5 87t67.5 32q27 0 64 -25q47 -33 71 -33q37 0 39 58h61z" />
    <glyph glyph-name="acute.ts1" unicode="&#xeb02;" 
d="M416 723l-151 -185h-60l33 46l101 139h77z" />
    <glyph glyph-name="Aogonekacute" unicode="&#xeb03;" horiz-adv-x="667" 
d="M656 -187q-53 -25 -98 -25q-47 0 -72.5 25t-26.5 60q-2 37 22.5 71t64.5 56l-76 204h-291l-77 -204h-74l261 694h88l261 -694h-29q-88 -50 -87 -104q1 -34 53 -38q29 -1 67 14zM448 260l-91 257q-29 83 -32 105h-1q-6 -33 -59 -181q-25 -72 -32 -91t-33 -90h248zM524 868
l-197 -122h-89l175 122h111z" />
    <glyph glyph-name="aogonekacute" unicode="&#xeb04;" horiz-adv-x="481" 
d="M444 -187q-53 -25 -98 -25q-47 0 -72.5 25t-26.5 60q-2 37 22.5 71t64.5 56v36q-61 -47 -166 -47q-58 0 -86 40.5t-28 83.5q0 63 78.5 96.5t198.5 35.5v43q0 53 -25 83.5t-62 30.5q-81 0 -151 -50l-6 66q75 43 157 43q70 0 117.5 -48.5t47.5 -123.5v-289h-11
q-89 -50 -88 -104q1 -34 53 -38q29 -1 67 14zM331 132v62q-205 -10 -205 -79q0 -30 27.5 -47.5t65.5 -17.5q47 0 78 19q34 19 34 63zM381 694l-150 -167h-61l133 167h78z" />
    <glyph glyph-name="bigcircle" unicode="&#xeb08;" horiz-adv-x="694" 
d="M694 347q0 -144 -101.5 -245.5t-245.5 -101.5t-245.5 101.5t-101.5 245.5t101.5 245.5t245.5 101.5t245.5 -101.5t101.5 -245.5zM656 347q0 128 -90.5 218.5t-218.5 90.5t-218.5 -90.5t-90.5 -218.5t90.5 -218.5t218.5 -90.5t218.5 90.5t90.5 218.5z" />
    <glyph glyph-name="star.alt" unicode="&#xeb09;" 
d="M500 309l-198 -98l104 -198l-143 146l-13 10l-13 -10l-143 -146l104 198l-198 98l218 -37l31 218h2l31 -218z" />
    <glyph glyph-name="breve.ts1" unicode="&#xeb0a;" horiz-adv-x="611" 
d="M530 723q0 -90 -69 -143.5t-156 -53.5q-88 0 -156.5 54.5t-68.5 142.5h61q0 -59 51.5 -94.5t112.5 -35.5q62 0 113 35.5t51 94.5h61z" />
    <glyph glyph-name="caron.ts1" unicode="&#xeb0d;" horiz-adv-x="611" 
d="M477 745q-4 -10 -36 -65l-62 -113l-29 -52l-4 -8t-4.5 -8.5t-5.5 -5.5t-9 -3h-50q-3 1 -5 4t-4 7.5t-3 5.5l-26 46l-69 125q-30 50 -37 67h42l18 -2l111 -186h2l111 186z" />
    <glyph glyph-name="copyleft" unicode="&#xeb0f;" horiz-adv-x="694" 
d="M694 347q0 -144 -101.5 -245.5t-245.5 -101.5t-245.5 101.5t-101.5 245.5t101.5 245.5t245.5 101.5t245.5 -101.5t101.5 -245.5zM656 347q0 128 -90.5 218.5t-218.5 90.5t-218.5 -90.5t-90.5 -218.5t90.5 -218.5t218.5 -90.5t218.5 90.5t90.5 218.5zM531 347
q0 -94 -58 -163t-148 -69q-39 0 -63 7t-59 28l4 44q53 -39 117 -39q68 0 109.5 57.5t41.5 134.5q0 79 -42 135.5t-107 56.5q-57 0 -106 -32l-10 51q59 22 115 22q89 0 147.5 -69t58.5 -164z" />
    <glyph glyph-name="cwm" unicode="&#xeb10;" horiz-adv-x="0" 
 />
    <glyph glyph-name="cwmascender" unicode="&#xeb11;" horiz-adv-x="0" 
 />
    <glyph glyph-name="cwmcapital" unicode="&#xeb12;" horiz-adv-x="0" 
 />
    <glyph glyph-name="dblgrave.ts1" unicode="&#xeb15;" 
d="M225 540h-60l-82 183h56l21 -2zM391 540h-60l-82 183h56l21 -2z" />
    <glyph glyph-name="died" unicode="&#xeb16;" 
d="M444 367h-155v-394h-78v392h-156v68h156v193h78v-191h155v-68z" />
    <glyph glyph-name="dieresis.ts1" unicode="&#xeb17;" 
d="M194 598h-83v83h83v-83zM388 598h-83v83h83v-83z" />
    <glyph glyph-name="space_uni0323" unicode="&#xeb19;" horiz-adv-x="278" 
d="M183 -200h-89v89h89v-89z" />
    <glyph glyph-name="Eogonekacute" unicode="&#xeb1e;" horiz-adv-x="597" 
d="M554 -187q-53 -25 -98 -25q-47 0 -72.5 25t-26.5 60q-4 66 87 127h-350v691h446v-65h-183q-6 0 -18 0.5t-18 0.5h-138v-237h330v-61h-330v-259h209q6 0 18 0.5t18 0.5h126v-71h-45q-90 -51 -89 -104q1 -34 53 -38q29 -1 67 14zM490 868l-197 -122h-89l175 122h111z" />
    <glyph glyph-name="eogonekacute" unicode="&#xeb1f;" horiz-adv-x="444" 
d="M414 219h-309q2 -73 44.5 -121t102.5 -48q84 0 152 56l6 -65q-33 -23 -75 -38q-90 -51 -89 -107q1 -34 53 -38q29 -1 67 14l14 -59q-53 -25 -98 -25q-47 0 -72.5 25t-26.5 60q-4 65 68 116q-90 0 -153 69t-63 168q0 97 59 166t142 69q90 0 138 -73q40 -62 40 -169z
M357 274q-9 64 -43 95t-78 31q-43 0 -78.5 -35t-47.5 -91h247zM363 694l-150 -167h-61l133 167h78z" />
    </font>
</defs>
</svg>
